<svg xmlns="http://www.w3.org/2000/svg" xmlns:svg="http://www.w3.org/2000/svg" id="svg5386" width="32" height="84" version="1.1" viewBox="0 0 32 84"><defs id="defs5388"><clipPath id="clipPath4154" clipPathUnits="userSpaceOnUse"><rect style="opacity:1;fill:#5294e2;fill-opacity:1;stroke:none;stroke-width:1;stroke-linecap:round;stroke-linejoin:miter;stroke-miterlimit:4;stroke-dasharray:none;stroke-dashoffset:0;stroke-opacity:1" id="rect4156" width="43" height="24.5" x="-5.5" y="-992.362" rx="1.5" ry="1.5" transform="scale(1,-1)"/></clipPath></defs><metadata id="metadata5391"/><g id="layer1" transform="translate(0,-968.3622)"><rect id="rect4164-4-3" width="23" height="73.999" x="4.5" y="972.863" rx="2" ry="2" style="display:inline;opacity:.64;fill:none;fill-opacity:1;stroke:#000;stroke-width:.99999988;stroke-linecap:round;stroke-linejoin:miter;stroke-miterlimit:4;stroke-dasharray:none;stroke-dashoffset:0;stroke-opacity:1"/><rect id="rect4164" width="22" height="21" x="5" y="973.363" clip-path="url(#clipPath4154)" rx="1.4" ry="2.046" transform="matrix(1,0,0,0.68420028,0,307.38771)" style="display:inline;opacity:.99999999;fill:#323644;fill-opacity:1;stroke:none;stroke-width:1;stroke-linecap:round;stroke-linejoin:miter;stroke-miterlimit:4;stroke-dasharray:none;stroke-dashoffset:0;stroke-opacity:1"/><g style="display:inline;opacity:.64999999" id="g4271" transform="translate(-425.99995,606.36226)"><rect style="display:inline;opacity:.02;fill:none;fill-opacity:1;stroke:#000;stroke-width:.99999988;stroke-linecap:round;stroke-linejoin:miter;stroke-miterlimit:4;stroke-dasharray:none;stroke-dashoffset:0;stroke-opacity:1" id="rect4164-4-7-5-3-8-8" width="31" height="83" x="426.5" y="362.5" rx="8" ry="8"/><rect style="display:inline;opacity:.07;fill:none;fill-opacity:1;stroke:#000;stroke-width:.99999982;stroke-linecap:round;stroke-linejoin:miter;stroke-miterlimit:4;stroke-dasharray:none;stroke-dashoffset:0;stroke-opacity:1" id="rect4164-4-7-5-3-8" width="29" height="81" x="427.5" y="363.5" rx="7" ry="7"/><rect style="display:inline;opacity:.13;fill:none;fill-opacity:1;stroke:#000;stroke-width:.99999988;stroke-linecap:round;stroke-linejoin:miter;stroke-miterlimit:4;stroke-dasharray:none;stroke-dashoffset:0;stroke-opacity:1" id="rect4164-4-7-5-3" width="27" height="79" x="428.5" y="364.5" rx="6" ry="6"/><rect style="display:inline;opacity:.2;fill:none;fill-opacity:1;stroke:#000;stroke-width:1;stroke-linecap:round;stroke-linejoin:miter;stroke-miterlimit:4;stroke-dasharray:none;stroke-dashoffset:0;stroke-opacity:1" id="rect4164-4-7-5" width="25" height="77" x="429.5" y="365.5" rx="5" ry="5"/><path style="display:inline;opacity:.25;fill:none;fill-opacity:1;stroke:#000;stroke-width:1;stroke-linecap:round;stroke-linejoin:miter;stroke-miterlimit:4;stroke-dasharray:none;stroke-dashoffset:0;stroke-opacity:1" id="rect4164-4-7" d="m 431.64838,440.30463 c 0.72475,0.73691 1.73153,1.19531 2.85156,1.19531 l 15.00023,0 c 1.12003,0 2.12681,-0.4584 2.85156,-1.19531 -0.2591,0.12217 -0.5451,0.19531 -0.85156,0.19531 l -19.00023,0 c -0.30646,0 -0.59246,-0.0731 -0.85156,-0.19531 z"/></g></g></svg>