<svg xmlns="http://www.w3.org/2000/svg" xmlns:svg="http://www.w3.org/2000/svg" id="svg4142" width="28" height="32" version="1.1" viewBox="0 0 28 32"><defs id="defs4144"><filter style="color-interpolation-filters:sRGB" id="filter4145" width="1.168" height="1.168" x="-.084" y="-.084"><feGaussianBlur id="feGaussianBlur4147" stdDeviation=".84"/></filter></defs><metadata id="metadata4147"/><g id="layer1" transform="translate(0,-1020.3622)"><rect style="opacity:1;fill:#1e1f29;fill-opacity:1;fill-rule:evenodd;stroke:none;stroke-width:2.74499989;stroke-linecap:butt;stroke-linejoin:miter;stroke-miterlimit:4;stroke-dasharray:none;stroke-dashoffset:478.43673706;stroke-opacity:1" id="rect4741" width="28" height="32" x="0" y="1020.362"/><circle style="opacity:.49000005;fill:#000;fill-opacity:.32000002;fill-rule:evenodd;stroke:none;stroke-width:2.74499989;stroke-linecap:butt;stroke-linejoin:miter;stroke-miterlimit:4;stroke-dasharray:none;stroke-dashoffset:478.43673706;stroke-opacity:1;filter:url(#filter4145)" id="path4143" cx="14" cy="1037.362" r="12"/><rect style="opacity:1;fill:#fff;fill-opacity:.07000002;fill-rule:evenodd;stroke:none;stroke-width:2.74499989;stroke-linecap:butt;stroke-linejoin:miter;stroke-miterlimit:4;stroke-dasharray:none;stroke-dashoffset:478.43673706;stroke-opacity:1" id="rect4142" width="28" height="1" x="0" y="1020.362"/><path style="fill:#f55;fill-opacity:1;fill-rule:evenodd;stroke:none;stroke-width:.01351731" id="path4096" d="m 14.500073,1042.8622 c 3.865917,0 6.999926,-3.134 6.999926,-7 0,-3.866 -3.134009,-7 -6.999926,-7 -3.866062,0 -7.0000733,3.134 -7.0000733,7 0,3.866 3.1340113,7 7.0000733,7"/><path id="path4098" d="m 11.348347,1032.0689 c -0.161113,0 -0.322471,0.062 -0.444723,0.1851 l -0.01105,0.011 c -0.244524,0.2445 -0.244524,0.6449 0,0.8894 l 2.707011,2.707 -2.707011,2.7098 c -0.244453,0.2444 -0.244453,0.6422 0,0.8866 l 0.01105,0.014 c 0.244435,0.2446 0.64494,0.2446 0.889446,0 l 2.707012,-2.7069 2.707012,2.7069 c 0.244451,0.2446 0.64494,0.2446 0.889447,0 l 0.01105,-0.014 c 0.244433,-0.2444 0.244433,-0.6422 0,-0.8866 l -2.707012,-2.7098 2.707011,-2.707 c 0.244434,-0.2445 0.244507,-0.645 0,-0.8894 l -0.01105,-0.011 c -0.244578,-0.2445 -0.644995,-0.2445 -0.889446,0 l -2.707012,2.707 -2.707012,-2.707 c -0.122253,-0.1223 -0.28361,-0.1851 -0.444723,-0.1851 z" style="fill:#9f1d2b;fill-opacity:1;fill-rule:evenodd;stroke:none;stroke-width:.01351731"/></g></svg>