<svg xmlns="http://www.w3.org/2000/svg" xmlns:svg="http://www.w3.org/2000/svg" id="svg4142" width="28" height="32" version="1.1" viewBox="0 0 28 32"><metadata id="metadata4147"/><g id="layer1" transform="translate(0,-1020.3622)"><rect style="opacity:1;fill:#1e1f29;fill-opacity:1;fill-rule:evenodd;stroke:none;stroke-width:2.74499989;stroke-linecap:butt;stroke-linejoin:miter;stroke-miterlimit:4;stroke-dasharray:none;stroke-dashoffset:478.43673706;stroke-opacity:1" id="rect4741" width="28" height="32" x="0" y="1020.362"/><rect style="opacity:1;fill:#fff;fill-opacity:.07;fill-rule:evenodd;stroke:none;stroke-width:2.74499989;stroke-linecap:butt;stroke-linejoin:miter;stroke-miterlimit:4;stroke-dasharray:none;stroke-dashoffset:478.43673706;stroke-opacity:1" id="rect4959" width="28" height="1" x="0" y="1020.362"/><path style="fill:#50fa7b;fill-opacity:1;fill-rule:evenodd;stroke:none;stroke-width:.01662081" id="path4291" d="m 14.500038,1042.8622 c 3.865969,0 6.999961,-3.134 6.999961,-7 0,-3.866 -3.133992,-7 -6.999961,-7 -3.866041,0 -7.0000382,3.134 -7.0000382,7 0,3.866 3.1339972,7 7.0000382,7"/><path style="fill:#0b7407;fill-opacity:1;fill-rule:evenodd;stroke:none;stroke-width:.01662081" id="path4293" d="m 12.430213,1031.9583 h 4.782683 c 0.63684,0 1.157943,0.5211 1.157943,1.158 v 4.7826 z m 4.158443,7.8079 h -4.801548 c -0.636912,0 -1.157944,-0.5211 -1.157944,-1.158 v -4.8016 l 5.959492,5.9596"/></g></svg>