<svg xmlns="http://www.w3.org/2000/svg" xmlns:osb="http://www.openswatchbook.org/uri/2009/osb" xmlns:svg="http://www.w3.org/2000/svg" xmlns:xlink="http://www.w3.org/1999/xlink" id="svg2" width="35" height="200" version="1.1"><defs id="defs4"><linearGradient id="selected_fg_color" osb:paint="solid"><stop style="stop-color:#fff;stop-opacity:1" id="stop4147" offset="0"/></linearGradient><linearGradient id="selected_bg_color" osb:paint="solid"><stop style="stop-color:#5294e2;stop-opacity:1" id="stop4144" offset="0"/></linearGradient><linearGradient id="linearGradient4149" x1="18" x2="18" y1="944.362" y2="960.362" gradientUnits="userSpaceOnUse" xlink:href="#selected_fg_color"/></defs><metadata id="metadata7"/><g id="layer1" transform="translate(0,-852.36218)"><path style="opacity:.5;fill:#bd93f9;fill-opacity:1;stroke:none;stroke-width:0;stroke-linecap:butt;stroke-linejoin:miter;stroke-miterlimit:4;stroke-dasharray:none;stroke-dashoffset:0;stroke-opacity:1" id="rect3810" d="M 3,0 C 1.3380015,0 0,1.3380015 0,3 v 194 c 0,1.662 1.3380015,3 3,3 h 33 c 1.661999,0 3,-1.338 3,-3 V 3 C 39,1.3380015 37.661999,0 36,0 Z m 0,1 h 33 c 1.108,0 2,0.892 2,2 v 194 c 0,1.108 -0.892,2 -2,2 H 3 c -1.108,0 -2,-0.892 -2,-2 V 3 C 1,1.892 1.892,1 3,1 Z" transform="translate(0,852.36218)"/><rect style="opacity:.5;fill:#bd93f9;fill-opacity:1;stroke:#8fbcbb;stroke-width:0;stroke-linecap:butt;stroke-linejoin:miter;stroke-miterlimit:4;stroke-dasharray:none;stroke-dashoffset:0;stroke-opacity:1" id="rect3812" width="37" height="198" x="1" y="853.362" rx="2" ry="2"/><g id="g3917" style="fill:url(#linearGradient4149);fill-opacity:1"><rect id="rect3897" width="2" height="16" x="17" y="944.362" ry="1.143" style="opacity:1;fill:url(#linearGradient4149);fill-opacity:1;stroke:#102b68;stroke-width:0;stroke-linecap:butt;stroke-linejoin:miter;stroke-miterlimit:4;stroke-dasharray:none;stroke-dashoffset:0;stroke-opacity:1"/><rect id="rect3897-6" width="2" height="16" x="951.362" y="-26" ry="1.143" transform="rotate(90)" style="opacity:1;fill:url(#linearGradient4149);fill-opacity:1;stroke:#102b68;stroke-width:0;stroke-linecap:butt;stroke-linejoin:miter;stroke-miterlimit:4;stroke-dasharray:none;stroke-dashoffset:0;stroke-opacity:1"/></g></g></svg>