<svg xmlns="http://www.w3.org/2000/svg" xmlns:svg="http://www.w3.org/2000/svg" id="svg2" width="35" height="200" version="1.1"><metadata id="metadata7"/><g id="layer1" transform="translate(0,-852.36218)"><path style="opacity:.45;fill:#000;fill-opacity:1;stroke:#102b68;stroke-width:0;stroke-linecap:butt;stroke-linejoin:miter;stroke-miterlimit:4;stroke-opacity:1;stroke-dasharray:none;stroke-dashoffset:0" id="rect3810" d="M 3 0 C 1.3380015 0 0 1.3380015 0 3 L 0 197 C 0 198.662 1.3380015 200 3 200 L 36 200 C 37.661999 200 39 198.662 39 197 L 39 3 C 39 1.3380015 37.661999 0 36 0 L 3 0 z M 3 1 L 36 1 C 37.108 1 38 1.892 38 3 L 38 197 C 38 198.108 37.108 199 36 199 L 3 199 C 1.892 199 1 198.108 1 197 L 1 3 C 1 1.892 1.892 1 3 1 z" transform="translate(0,852.36218)"/><rect style="opacity:.3;fill:#000;fill-opacity:1;stroke:#102b68;stroke-width:0;stroke-linecap:butt;stroke-linejoin:miter;stroke-miterlimit:4;stroke-dasharray:none;stroke-dashoffset:0;stroke-opacity:1" id="rect3812" width="37" height="198" x="1" y="853.362" rx="2" ry="2"/><g id="g3917" style="fill:#bac3cf;fill-opacity:1"><rect id="rect3897" width="2" height="16" x="17" y="944.362" ry="1.143" style="opacity:1;fill:#bac3cf;fill-opacity:1;stroke:#102b68;stroke-width:0;stroke-linecap:butt;stroke-linejoin:miter;stroke-miterlimit:4;stroke-opacity:1;stroke-dasharray:none;stroke-dashoffset:0"/><rect id="rect3897-6" width="2" height="16" x="951.362" y="-26" ry="1.143" transform="matrix(0,1,-1,0,0,0)" style="opacity:1;fill:#bac3cf;fill-opacity:1;stroke:#102b68;stroke-width:0;stroke-linecap:butt;stroke-linejoin:miter;stroke-miterlimit:4;stroke-opacity:1;stroke-dasharray:none;stroke-dashoffset:0"/></g></g></svg>