<svg xmlns="http://www.w3.org/2000/svg" xmlns:svg="http://www.w3.org/2000/svg" id="svg2" width="173" height="56" version="1.1" viewBox="0 0 173 56"><defs id="defs4"><style id="current-color-scheme" type="text/css">.ColorScheme-Background{color:#eff0f1;stop-color:#eff0f1}</style></defs><metadata id="metadata7"/><g id="layer1" transform="translate(0,-904.36218)"><rect id="hint-tile-center" width="5" height="5" x="0" y="904.362" style="opacity:1;fill:#f60;fill-opacity:1;stroke:none"/><g style="opacity:1;fill:#232530;fill-opacity:1" id="top" transform="matrix(0.375,0,0,2.6666565,21.87499,-1515.261)"><rect style="opacity:1;fill:#232530;fill-opacity:1;stroke:none" id="rect4152" width="6" height="32" x="-916.362" y="-51" class="ColorScheme-Background" transform="matrix(0,-1,-1,0,0,0)"/></g><g style="opacity:1;fill:#232530;fill-opacity:1" id="bottom" transform="matrix(0.375,0,0,2.6666565,21.87499,-1588.594)"><rect id="rect4148" width="6" height="32" x="948.362" y="-51" class="ColorScheme-Background" transform="rotate(90)" style="opacity:1;fill:#232530;fill-opacity:1;stroke:none"/></g><g style="opacity:1;fill:#232530;fill-opacity:1" id="left" transform="matrix(2.6666669,0,0,0.375,-21.666677,584.72634)"><rect id="rect4144" width="6" height="32" x="-19" y="916.362" class="ColorScheme-Background" transform="scale(-1,1)" style="opacity:1;fill:#232530;fill-opacity:1;stroke:none"/></g><g style="opacity:1;fill:#232530;fill-opacity:1" id="right" transform="matrix(2.6666669,0,0,0.375,-94.999985,584.72634)"><rect style="opacity:1;fill:#232530;fill-opacity:1;stroke:none" id="rect4140" width="6" height="32" x="51" y="916.362" class="ColorScheme-Background"/></g><g style="opacity:1" id="center" transform="matrix(0.375,0,0,0.375,21.875002,584.72634)"><rect style="opacity:.7;fill:none;fill-opacity:1;stroke:none" id="rect4401" width="32" height="32" x="19" y="916.362"/><rect id="rect4138" width="32" height="32" x="19" y="916.362" class="ColorScheme-Background" style="opacity:1;fill:#232530;fill-opacity:1;stroke:none"/></g><rect id="hint-top-margin" width="4" height="2" x="33" y="912.362" style="opacity:.7;fill:#f0f;fill-opacity:1;stroke:none"/><rect style="opacity:.7;fill:#f0f;fill-opacity:1;stroke:none" id="hint-bottom-margin" width="4" height="2" x="33" y="954.362"/><rect style="opacity:.7;fill:#f0f;fill-opacity:1;stroke:none" id="hint-right-margin" width="4" height="2" x="932.362" y="-57" transform="rotate(90)"/><rect id="hint-left-margin" width="4" height="2" x="932.362" y="-15" transform="rotate(90)" style="opacity:.7;fill:#f0f;fill-opacity:1;stroke:none"/><g style="opacity:1;fill:#232530;fill-opacity:1" id="topleft" transform="matrix(2.6666667,0,0,2.6666565,-21.666667,-1515.2611)"><path id="rect4159" d="m 13,12 h 6 V 6 c -1.108109,0 -1.108109,0 0,0 -3,2.98e-5 -6,3.0000412 -6,6 z" class="ColorScheme-Background" transform="translate(0,904.36218)" style="color:#eff0f1;opacity:1;fill:#232530;fill-opacity:1;stroke:none"/></g><g style="opacity:1;fill:#232530;fill-opacity:1" id="topright" transform="matrix(2.6666667,0,0,2.6666565,-95,-1515.2611)"><path id="rect4177" d="m 51,6 v 6 h 6 c -10e-7,-2.9999588 -3.000001,-5.9999702 -6,-6 z" class="ColorScheme-Background" transform="translate(0,904.36218)" style="color:#eff0f1;opacity:1;fill:#232530;fill-opacity:1;stroke:none"/></g><g style="opacity:1;fill:#232530;fill-opacity:1" id="bottomleft" transform="matrix(2.6666667,0,0,2.6666565,-21.666667,-1588.594)"><path id="path5048" d="m 19,954.36218 v -6 h -6 c 0,3.00002 2.625,6.00004 6,6 z" class="ColorScheme-Background" style="color:#eff0f1;opacity:1;fill:#232530;fill-opacity:1;stroke:none"/></g><g style="opacity:1;fill:#232530;fill-opacity:1" id="bottomright" transform="matrix(2.6666667,0,0,2.6666565,-95,-1588.594)"><path style="color:#eff0f1;opacity:1;fill:#232530;fill-opacity:1;stroke:none" id="rect4177-6" d="m 51,954.36218 v -6 h 6 c -10e-7,3.00002 -3.000001,6.00004 -6,6 z" class="ColorScheme-Background"/></g><g id="mask-top" transform="matrix(0.37500035,0,0,1.3333275,136.87498,-303.44862)"><rect id="rect4265" width="12" height="32" x="-922.362" y="-51" transform="matrix(0,-1,-1,0,0,0)" style="opacity:.97;fill:#000;fill-opacity:1;stroke:none;stroke-width:1.54919"/></g><g id="mask-topleft" transform="matrix(1.5999977,0,0,1.5999942,107.20003,-546.21192)"><path id="path4277" d="m 23,910.36218 c -5.539984,0 -10,4.46002 -10,10 h 10 z" style="opacity:.97;fill:#000;fill-opacity:1;stroke-width:2"/></g><g id="mask-topright" transform="matrix(2.0000036,0,0,2.0000159,57.999798,-910.37672)"><path id="path4287" d="m 49.000013,910.36218 v 7.99999 H 57 c 0,-4.43198 -3.568007,-7.99999 -7.999987,-7.99999 z" style="opacity:.97;fill:#000;fill-opacity:1;stroke-width:1.6"/></g><g id="mask-bottom" transform="matrix(0.37500035,0,0,1.600003,136.87498,-572.62032)"><rect style="opacity:.97;fill:#000;fill-opacity:1;stroke:none;stroke-width:1.41421" id="rect4291" width="10" height="32" x="944.362" y="-51" transform="rotate(90)"/></g><g id="mask-bottomleft" transform="matrix(1.3333288,0,0,1.3333268,110.66673,-318.11452)"><path id="path4303" d="m 13,942.36218 c 0,6.64797 5.35202,12 12,12 v -12 z" style="opacity:.97;fill:#000;fill-opacity:1;stroke-width:2.40001"/></g><g id="mask-bottomright" transform="matrix(1.3333336,0,0,1.3333316,95.99999,-318.11912)"><path id="path4313" d="m 45,942.36218 v 12 c 6.64798,0 12,-5.35203 12,-12 z" style="opacity:.97;fill:#000;fill-opacity:1;stroke-width:2.40001"/></g><g id="mask-left" transform="matrix(1.3333341,0,0,0.60000604,110.66665,372.93927)"><rect style="opacity:.97;fill:#000;fill-opacity:1;stroke:none;stroke-width:1.22475" id="rect4317" width="12" height="20" x="-25" y="922.362" transform="scale(-1,1)"/></g><g id="mask-right" transform="matrix(1.6000014,0,0,0.37500479,80.799938,582.72193)"><rect id="rect4323" width="10" height="32" x="47" y="916.362" style="opacity:.97;fill:#000;fill-opacity:1;stroke:none;stroke-width:1.41421"/></g><rect id="mask-center" width="12" height="12" x="144" y="926.362" style="opacity:.97;fill:#000;fill-opacity:1;stroke:none;stroke-width:.375001"/></g></svg>