<svg xmlns="http://www.w3.org/2000/svg" xmlns:svg="http://www.w3.org/2000/svg" xmlns:xlink="http://www.w3.org/1999/xlink" id="svg4428" width="119.467" height="29.867" version="1.1"><defs id="defs4430"><linearGradient id="linearGradient3913"><stop id="stop3915" offset="0" style="stop-color:#fff;stop-opacity:1"/><stop style="stop-color:#fff;stop-opacity:.49803922" id="stop3921" offset=".5"/><stop id="stop3917" offset="1" style="stop-color:#fff;stop-opacity:0"/></linearGradient><linearGradient id="linearGradient3868"><stop id="stop3870" offset="0" style="stop-color:#5a5a5a;stop-opacity:1"/><stop id="stop3872" offset="1" style="stop-color:#646464;stop-opacity:1"/></linearGradient><linearGradient id="linearGradient3813"><stop id="stop3815" offset="0" style="stop-color:#666;stop-opacity:1"/><stop id="stop3817" offset="1" style="stop-color:#636363;stop-opacity:1"/></linearGradient><linearGradient id="linearGradient3787"><stop id="stop3789" offset="0" style="stop-color:#e5e5df;stop-opacity:1"/><stop id="stop3791" offset="1" style="stop-color:#dadad4;stop-opacity:1"/></linearGradient><linearGradient id="linearGradient3806-3-5-6"><stop id="stop3808-6-9-1" offset="0" style="stop-color:#303030;stop-opacity:1"/><stop id="stop3810-4-6-3" offset="1" style="stop-color:#232323;stop-opacity:1"/></linearGradient><linearGradient id="linearGradient3793" x1="40" x2="40" y1="1044.362" y2="1032.362" gradientUnits="userSpaceOnUse" xlink:href="#linearGradient3787"/><linearGradient id="linearGradient3828" x1="40" x2="40" y1="1044.362" y2="1032.362" gradientTransform="matrix(1.1666666,0,0,1.0769231,-6.5,-80.335554)" gradientUnits="userSpaceOnUse" xlink:href="#linearGradient3787"/><linearGradient id="linearGradient3835" x1="40" x2="40" y1="1044.362" y2="1032.362" gradientTransform="matrix(1.1666666,0,0,1.0769231,-35.5,-1105.6978)" gradientUnits="userSpaceOnUse" xlink:href="#linearGradient3787-8"/><linearGradient id="linearGradient3835-4" x1="40" x2="40" y1="1044.362" y2="1032.362" gradientTransform="matrix(1.1666666,0,0,1.0769231,-35.5,-1105.6978)" gradientUnits="userSpaceOnUse" xlink:href="#linearGradient3787-8"/><linearGradient id="linearGradient3787-8"><stop id="stop3789-2" offset="0" style="stop-color:#f5f5ee;stop-opacity:1"/><stop id="stop3791-6" offset="1" style="stop-color:#e6e6df;stop-opacity:1"/></linearGradient><linearGradient id="linearGradient3835-3" x1="40" x2="40" y1="1044.362" y2="1032.362" gradientTransform="matrix(1.1666666,0,0,1.0769231,-35.5,-1105.6978)" gradientUnits="userSpaceOnUse" xlink:href="#linearGradient3787-8"/><linearGradient id="linearGradient3787-7"><stop id="stop3789-3" offset="0" style="stop-color:#f5f5ee;stop-opacity:1"/><stop id="stop3791-3" offset="1" style="stop-color:#e6e6e0;stop-opacity:1"/></linearGradient><linearGradient id="linearGradient3807" x1="11" x2="11" y1="15.75" y2="8.25" gradientUnits="userSpaceOnUse" xlink:href="#linearGradient3787"/><linearGradient id="linearGradient3819" x1="29.5" x2="29.5" y1="15.2" y2="8.8" gradientUnits="userSpaceOnUse" xlink:href="#linearGradient3813"/><linearGradient id="linearGradient3807-1" x1="10" x2="10" y1="7" y2="15.889" gradientUnits="userSpaceOnUse" xlink:href="#linearGradient4231"/><linearGradient id="linearGradient4231"><stop style="stop-color:#e7e7e1;stop-opacity:1" id="stop4233" offset="0"/><stop style="stop-color:#dadad3;stop-opacity:1" id="stop4239" offset="1"/></linearGradient><linearGradient id="linearGradient3807-1-1" x1="10" x2="10" y1="15.889" y2="7" gradientUnits="userSpaceOnUse" xlink:href="#linearGradient4231-1"/><linearGradient id="linearGradient4231-1"><stop style="stop-color:#e5e5de;stop-opacity:1" id="stop4233-6" offset="0"/><stop style="stop-color:#dadad3;stop-opacity:1" id="stop4239-7" offset="1"/></linearGradient><linearGradient id="linearGradient4363"><stop id="stop4365" offset="0" style="stop-color:#979791;stop-opacity:1"/><stop id="stop4367" offset="1" style="stop-color:#dadad4;stop-opacity:0"/></linearGradient><linearGradient id="linearGradient4363-7"><stop id="stop4365-9" offset="0" style="stop-color:#f5f5ef;stop-opacity:1"/><stop id="stop4367-8" offset="1" style="stop-color:#dadad4;stop-opacity:0"/></linearGradient><linearGradient id="linearGradient4361" x1="248.632" x2="248.632" y1="79" y2="58" gradientTransform="matrix(1.1875,0,0,1,-41.25,0)" gradientUnits="userSpaceOnUse" xlink:href="#linearGradient4231-7"/><linearGradient id="linearGradient4231-7"><stop style="stop-color:#e6e6df;stop-opacity:1" id="stop4233-4" offset="0"/><stop style="stop-color:#d1d1ca;stop-opacity:1" id="stop4239-8" offset="1"/></linearGradient><linearGradient id="linearGradient3127" x1="248.632" x2="248.632" y1="79" y2="58" gradientTransform="matrix(1.1875,0,0,1,-262.25,-55.99998)" gradientUnits="userSpaceOnUse" xlink:href="#linearGradient4231-7"/><linearGradient id="linearGradient3154" x1="248.632" x2="248.632" y1="79" y2="58" gradientTransform="matrix(1.1875,0,0,1,-262.25,-55.99998)" gradientUnits="userSpaceOnUse" xlink:href="#linearGradient4231-7"/><linearGradient id="linearGradient3159" x1="248.632" x2="248.632" y1="79" y2="58" gradientTransform="matrix(1.1875,0,0,1,-249.25,-54.99998)" gradientUnits="userSpaceOnUse" xlink:href="#linearGradient4231-7"/><linearGradient id="linearGradient3159-0" x1="248.632" x2="248.632" y1="79" y2="58" gradientTransform="matrix(1.1875,0,0,1,-262.25,-55.99998)" gradientUnits="userSpaceOnUse" xlink:href="#linearGradient4231-7-9"/><linearGradient id="linearGradient4231-7-9"><stop style="stop-color:#e6e6df;stop-opacity:1" id="stop4233-4-2" offset="0"/><stop style="stop-color:#d1d1ca;stop-opacity:1" id="stop4239-8-9" offset="1"/></linearGradient><linearGradient id="linearGradient4231-5"><stop style="stop-color:#e5e5de;stop-opacity:1" id="stop4233-41" offset="0"/><stop style="stop-color:#dadad3;stop-opacity:1" id="stop4239-73" offset="1"/></linearGradient><linearGradient id="linearGradient3159-1" x1="248.632" x2="248.632" y1="79" y2="58" gradientTransform="matrix(1.1875,0,0,1,-262.25,-55.99998)" gradientUnits="userSpaceOnUse" xlink:href="#linearGradient4231-7-7"/><linearGradient id="linearGradient4231-7-7"><stop style="stop-color:#e6e6df;stop-opacity:1" id="stop4233-4-7" offset="0"/><stop style="stop-color:#d1d1ca;stop-opacity:1" id="stop4239-8-2" offset="1"/></linearGradient><linearGradient id="linearGradient3807-1-7" x1="10" x2="10" y1="15.889" y2="7" gradientUnits="userSpaceOnUse" xlink:href="#linearGradient4231-73"/><linearGradient id="linearGradient4231-73"><stop style="stop-color:#e5e5de;stop-opacity:1" id="stop4233-1" offset="0"/><stop style="stop-color:#dadad3;stop-opacity:1" id="stop4239-85" offset="1"/></linearGradient><filter id="filter5355" width="1.365" height="1.746" x="-.182" y="-.373"><feGaussianBlur id="feGaussianBlur5357" stdDeviation="1.207"/></filter></defs><metadata id="metadata4433"/><g id="layer1" transform="translate(0,-1092.653)"><path id="path3863" d="m -22.665748,1038.6229 h 15.8877044 c -0.3742772,-10.7481 -15.8936154,-9.9594 -15.8877044,0 z" transform="matrix(0.99862602,0,0,0.91748438,122.43674,158.27533)" style="opacity:0;fill:#5b5c63;fill-opacity:1;stroke:#000;stroke-width:.1;stroke-linecap:butt;stroke-linejoin:miter;stroke-miterlimit:4;stroke-dasharray:none;stroke-opacity:1;filter:url(#filter5355)"/><g style="fill:#72bfd0;fill-opacity:1" id="active-center" transform="matrix(0.02211836,0,0,-0.02211825,2.8148384,1117.8901)"><path id="path14-3" d="m 458.87898,7.8583349 c 251.80054,0 455.92106,204.1245951 455.92106,455.9294151 0,251.79515 -204.12052,455.92105 -455.92106,455.92105 C 207.07954,919.7088 2.9541296,715.5829 2.9541296,463.78775 2.9541296,211.98293 207.07954,7.8583349 458.87898,7.8583349" style="fill:#72bfd0;fill-opacity:1;fill-rule:evenodd;stroke:none;stroke-width:1.06666672;enable-background:new"/><path id="path16-6" d="m 458.87707,46.637804 c 230.38404,0 417.14987,186.762966 417.14987,417.150176 0,230.37865 -186.76583,417.14135 -417.14987,417.14135 -230.38291,0 -417.149847,-186.7627 -417.149847,-417.14135 0,-230.38721 186.766937,-417.150176 417.149847,-417.150176" style="fill:#72bfd0;fill-opacity:1;fill-rule:evenodd;stroke:none;stroke-width:1.06666672;enable-background:new"/></g><g id="hover-center" transform="matrix(0.02211825,0,0,-0.02211826,25.480173,1117.8188)"><path id="path14-3-7" d="m 461.86451,4.6374457 c 251.80184,0 455.92334,204.1245143 455.92334,455.9292243 0,251.79508 -204.1215,455.92086 -455.92334,455.92086 -251.8007,0 -455.927123,-204.12578 -455.927123,-455.92086 0,-251.80471 204.126423,-455.9292243 455.927123,-455.9292243" style="fill:#72bfd0;fill-opacity:1;fill-rule:evenodd;stroke:none;stroke-width:1.06666911;enable-background:new"/><path id="path16-5" d="m 461.86261,43.416911 c 230.38514,0 417.15194,186.762879 417.15194,417.149989 0,230.37856 -186.7668,417.14116 -417.15194,417.14116 -230.38407,0 -417.151923,-186.7626 -417.151923,-417.14116 0,-230.38711 186.767853,-417.149989 417.151923,-417.149989" style="fill:#72bfd0;fill-opacity:1;fill-rule:evenodd;stroke:none;stroke-width:1.06666911;enable-background:new"/><ellipse style="opacity:1;fill:#324a7d;fill-opacity:1;stroke:none;stroke-width:96.4512558;stroke-miterlimit:4;stroke-dasharray:none;stroke-opacity:1;enable-background:new" id="path4179" cx="461.863" cy="-460.563" rx="144.677" ry="144.677" transform="scale(1,-1)"/></g><g id="pressed-center" transform="matrix(0.02211825,0,0,-0.02211836,47.96021,1117.9438)"><path style="fill:#72bfd0;fill-opacity:1;fill-rule:evenodd;stroke:none;stroke-width:1.06666672" id="path14-2" d="m 461.86449,10.287447 c 251.80179,0 455.92339,204.123583 455.92339,455.927123 0,251.79395 -204.1216,455.91881 -455.92339,455.91881 -251.80072,0 -455.927139,-204.12486 -455.927139,-455.91881 0,-251.80354 204.126419,-455.927123 455.927139,-455.927123"/><path style="fill:#72bfd0;fill-opacity:1;fill-rule:evenodd;stroke:none;stroke-width:1.06666672" id="path16-9" d="m 461.86262,49.066727 c 230.38516,0 417.15195,186.762053 417.15195,417.148103 0,230.37753 -186.76679,417.13927 -417.15195,417.13927 -230.38409,0 -417.151953,-186.76174 -417.151953,-417.13927 0,-230.38605 186.767863,-417.148104 417.151953,-417.148104"/><ellipse id="path4179-6" cx="461.863" cy="-466.21" rx="144.677" ry="144.676" transform="scale(1,-1)" style="opacity:1;fill:#324a7d;fill-opacity:1;stroke:none;stroke-width:96.45103455;stroke-miterlimit:4;stroke-dasharray:none;stroke-opacity:1;enable-background:new"/></g><g style="fill:#5b5c63;fill-opacity:1" id="inactive-center" transform="matrix(0.02211826,0,0,-0.02211835,73.959447,1117.8241)"><path style="fill:#5b5c63;fill-opacity:1;fill-rule:evenodd;stroke:none;stroke-width:1.06669128" id="path4199" d="m 406.44683,-0.25162337 c 251.80614,0 455.9357,204.12594337 455.9357,455.93560337 0,251.8022 -204.12956,455.9317 -455.9357,455.9317 -251.80541,0 -455.935322,-204.1295 -455.935322,-455.9317 0,-251.80966 204.129912,-455.93560337 455.935322,-455.93560337"/><path style="fill:#5b5c63;fill-opacity:1;fill-rule:evenodd;stroke:none;stroke-width:1.06669128" id="path4201" d="m 406.44683,38.524317 c 230.38911,0 417.1594,186.767123 417.1594,417.159663 0,230.38395 -186.77029,417.1554 -417.1594,417.1554 -230.38837,0 -417.159362,-186.77145 -417.159362,-417.1554 0,-230.39254 186.770992,-417.159663 417.159362,-417.159663"/></g><g id="deactivated-center" transform="matrix(0.02211826,0,0,-0.02211835,96.716341,1117.8241)"><path style="fill:#5b5c63;fill-opacity:1;fill-rule:evenodd;stroke:none;stroke-width:1.06669116" id="path4199-3" d="m 358.16954,-0.25162337 c 251.8062,0 455.9357,204.12594337 455.9357,455.93559337 0,251.8022 -204.1295,455.93172 -455.9357,455.93172 -251.8054,0 -455.935328,-204.12952 -455.935328,-455.93172 0,-251.80965 204.129928,-455.93559337 455.935328,-455.93559337"/><path style="fill:#5b5c63;fill-opacity:1;fill-rule:evenodd;stroke:none;stroke-width:1.06669116" id="path4201-6" d="m 358.16954,38.524327 c 230.3891,0 417.1594,186.767093 417.1594,417.159643 0,230.38394 -186.7703,417.15542 -417.1594,417.15542 -230.3884,0 -417.159428,-186.77148 -417.159428,-417.15542 0,-230.39255 186.771028,-417.159643 417.159428,-417.159643"/></g></g></svg>