<svg xmlns="http://www.w3.org/2000/svg" xmlns:svg="http://www.w3.org/2000/svg" xmlns:xlink="http://www.w3.org/1999/xlink" id="svg4428" width="119.467" height="29.867" version="1.1"><defs id="defs4430"><linearGradient id="linearGradient3913"><stop id="stop3915" offset="0" style="stop-color:#fff;stop-opacity:1"/><stop style="stop-color:#fff;stop-opacity:.49803922" id="stop3921" offset=".5"/><stop id="stop3917" offset="1" style="stop-color:#fff;stop-opacity:0"/></linearGradient><linearGradient id="linearGradient3868"><stop id="stop3870" offset="0" style="stop-color:#5a5a5a;stop-opacity:1"/><stop id="stop3872" offset="1" style="stop-color:#646464;stop-opacity:1"/></linearGradient><linearGradient id="linearGradient3813"><stop id="stop3815" offset="0" style="stop-color:#666;stop-opacity:1"/><stop id="stop3817" offset="1" style="stop-color:#636363;stop-opacity:1"/></linearGradient><linearGradient id="linearGradient3787"><stop id="stop3789" offset="0" style="stop-color:#e5e5df;stop-opacity:1"/><stop id="stop3791" offset="1" style="stop-color:#dadad4;stop-opacity:1"/></linearGradient><linearGradient id="linearGradient3806-3-5-6"><stop id="stop3808-6-9-1" offset="0" style="stop-color:#303030;stop-opacity:1"/><stop id="stop3810-4-6-3" offset="1" style="stop-color:#232323;stop-opacity:1"/></linearGradient><linearGradient id="linearGradient3793" x1="40" x2="40" y1="1044.362" y2="1032.362" gradientUnits="userSpaceOnUse" xlink:href="#linearGradient3787"/><linearGradient id="linearGradient3828" x1="40" x2="40" y1="1044.362" y2="1032.362" gradientTransform="matrix(1.1666666,0,0,1.0769231,-6.5,-80.335554)" gradientUnits="userSpaceOnUse" xlink:href="#linearGradient3787"/><linearGradient id="linearGradient3835" x1="40" x2="40" y1="1044.362" y2="1032.362" gradientTransform="matrix(1.1666666,0,0,1.0769231,-35.5,-1105.6978)" gradientUnits="userSpaceOnUse" xlink:href="#linearGradient3787-8"/><linearGradient id="linearGradient3835-4" x1="40" x2="40" y1="1044.362" y2="1032.362" gradientTransform="matrix(1.1666666,0,0,1.0769231,-35.5,-1105.6978)" gradientUnits="userSpaceOnUse" xlink:href="#linearGradient3787-8"/><linearGradient id="linearGradient3787-8"><stop id="stop3789-2" offset="0" style="stop-color:#f5f5ee;stop-opacity:1"/><stop id="stop3791-6" offset="1" style="stop-color:#e6e6df;stop-opacity:1"/></linearGradient><linearGradient id="linearGradient3835-3" x1="40" x2="40" y1="1044.362" y2="1032.362" gradientTransform="matrix(1.1666666,0,0,1.0769231,-35.5,-1105.6978)" gradientUnits="userSpaceOnUse" xlink:href="#linearGradient3787-8"/><linearGradient id="linearGradient3787-7"><stop id="stop3789-3" offset="0" style="stop-color:#f5f5ee;stop-opacity:1"/><stop id="stop3791-3" offset="1" style="stop-color:#e6e6e0;stop-opacity:1"/></linearGradient><linearGradient id="linearGradient3807" x1="11" x2="11" y1="15.75" y2="8.25" gradientUnits="userSpaceOnUse" xlink:href="#linearGradient3787"/><linearGradient id="linearGradient3819" x1="29.5" x2="29.5" y1="15.2" y2="8.8" gradientUnits="userSpaceOnUse" xlink:href="#linearGradient3813"/><linearGradient id="linearGradient3807-1" x1="10" x2="10" y1="7" y2="15.889" gradientUnits="userSpaceOnUse" xlink:href="#linearGradient4231"/><linearGradient id="linearGradient4231"><stop style="stop-color:#e7e7e1;stop-opacity:1" id="stop4233" offset="0"/><stop style="stop-color:#dadad3;stop-opacity:1" id="stop4239" offset="1"/></linearGradient><linearGradient id="linearGradient3807-1-1" x1="10" x2="10" y1="15.889" y2="7" gradientUnits="userSpaceOnUse" xlink:href="#linearGradient4231-1"/><linearGradient id="linearGradient4231-1"><stop style="stop-color:#e5e5de;stop-opacity:1" id="stop4233-6" offset="0"/><stop style="stop-color:#dadad3;stop-opacity:1" id="stop4239-7" offset="1"/></linearGradient><linearGradient id="linearGradient4363"><stop id="stop4365" offset="0" style="stop-color:#979791;stop-opacity:1"/><stop id="stop4367" offset="1" style="stop-color:#dadad4;stop-opacity:0"/></linearGradient><linearGradient id="linearGradient4363-7"><stop id="stop4365-9" offset="0" style="stop-color:#f5f5ef;stop-opacity:1"/><stop id="stop4367-8" offset="1" style="stop-color:#dadad4;stop-opacity:0"/></linearGradient><linearGradient id="linearGradient4361" x1="248.632" x2="248.632" y1="79" y2="58" gradientTransform="matrix(1.1875,0,0,1,-41.25,0)" gradientUnits="userSpaceOnUse" xlink:href="#linearGradient4231-7"/><linearGradient id="linearGradient4231-7"><stop style="stop-color:#e6e6df;stop-opacity:1" id="stop4233-4" offset="0"/><stop style="stop-color:#d1d1ca;stop-opacity:1" id="stop4239-8" offset="1"/></linearGradient><linearGradient id="linearGradient3127" x1="248.632" x2="248.632" y1="79" y2="58" gradientTransform="matrix(1.1875,0,0,1,-262.25,-55.99998)" gradientUnits="userSpaceOnUse" xlink:href="#linearGradient4231-7"/><linearGradient id="linearGradient3154" x1="248.632" x2="248.632" y1="79" y2="58" gradientTransform="matrix(1.1875,0,0,1,-262.25,-55.99998)" gradientUnits="userSpaceOnUse" xlink:href="#linearGradient4231-7"/><linearGradient id="linearGradient3159" x1="248.632" x2="248.632" y1="79" y2="58" gradientTransform="matrix(1.1875,0,0,1,-249.25,-54.99998)" gradientUnits="userSpaceOnUse" xlink:href="#linearGradient4231-7"/><linearGradient id="linearGradient3159-0" x1="248.632" x2="248.632" y1="79" y2="58" gradientTransform="matrix(1.1875,0,0,1,-262.25,-55.99998)" gradientUnits="userSpaceOnUse" xlink:href="#linearGradient4231-7-9"/><linearGradient id="linearGradient4231-7-9"><stop style="stop-color:#e6e6df;stop-opacity:1" id="stop4233-4-2" offset="0"/><stop style="stop-color:#d1d1ca;stop-opacity:1" id="stop4239-8-9" offset="1"/></linearGradient><linearGradient id="linearGradient4231-5"><stop style="stop-color:#e5e5de;stop-opacity:1" id="stop4233-41" offset="0"/><stop style="stop-color:#dadad3;stop-opacity:1" id="stop4239-73" offset="1"/></linearGradient><linearGradient id="linearGradient3159-1" x1="248.632" x2="248.632" y1="79" y2="58" gradientTransform="matrix(1.1875,0,0,1,-262.25,-55.99998)" gradientUnits="userSpaceOnUse" xlink:href="#linearGradient4231-7-7"/><linearGradient id="linearGradient4231-7-7"><stop style="stop-color:#e6e6df;stop-opacity:1" id="stop4233-4-7" offset="0"/><stop style="stop-color:#d1d1ca;stop-opacity:1" id="stop4239-8-2" offset="1"/></linearGradient><linearGradient id="linearGradient3807-1-7" x1="10" x2="10" y1="15.889" y2="7" gradientUnits="userSpaceOnUse" xlink:href="#linearGradient4231-73"/><linearGradient id="linearGradient4231-73"><stop style="stop-color:#e5e5de;stop-opacity:1" id="stop4233-1" offset="0"/><stop style="stop-color:#dadad3;stop-opacity:1" id="stop4239-85" offset="1"/></linearGradient><filter id="filter5355" width="1.365" height="1.746" x="-.182" y="-.373"><feGaussianBlur id="feGaussianBlur5357" stdDeviation="1.207"/></filter></defs><metadata id="metadata4433"/><g id="layer1" transform="translate(0,-1092.653)"><path id="path3863" d="m -22.665748,1038.6229 h 15.8877044 c -0.3742772,-10.7481 -15.8936154,-9.9594 -15.8877044,0 z" transform="matrix(0.99862602,0,0,0.91748438,122.43674,158.27533)" style="opacity:0;fill:#5b5c63;fill-opacity:1;stroke:#000;stroke-width:.1;stroke-linecap:butt;stroke-linejoin:miter;stroke-miterlimit:4;stroke-dasharray:none;stroke-opacity:1;filter:url(#filter5355)"/><g style="fill:#f55;fill-opacity:1" id="active-center" transform="matrix(0.02211836,0,0,-0.02211825,2.8148384,1117.8901)"><path style="fill:#f55;fill-opacity:1;fill-rule:evenodd;stroke:#f55;stroke-width:32.23240662;stroke-miterlimit:4;stroke-dasharray:none;stroke-opacity:1" id="path4094" d="m 507.23281,11.262772 c 242.90015,0 439.81335,196.914398 439.81335,439.819128 0,242.90572 -196.9132,439.81987 -439.81335,439.81987 -242.90751,0 -439.821125,-196.91415 -439.821125,-439.81987 0,-242.90473 196.913615,-439.819128 439.821125,-439.819128"/></g><g id="hover-center" transform="matrix(0.02211825,0,0,-0.02211826,25.480173,1117.8188)"><path style="fill:#f55;fill-opacity:1;fill-rule:evenodd;stroke:#f55;stroke-width:32.23263931;stroke-miterlimit:4;stroke-dasharray:none;stroke-opacity:1" id="path4094-6" d="m 462.87291,899.08853 c 242.90132,0 439.81547,-196.9119 439.81547,-439.8192 0,-242.9074 -196.91415,-439.819207 -439.81547,-439.819207 -242.90875,0 -439.823309,196.911807 -439.823309,439.819207 0,242.9073 196.914559,439.8192 439.823309,439.8192"/><path id="path18" d="m 246.82133,299.19147 376.41174,376.4128 c 14.56746,14.5664 38.4,14.5664 52.97493,0 l 0.69653,-0.704 c 14.57067,-14.5664 14.57067,-38.4 0.004,-52.97067 L 300.496,245.52107 c -14.57067,-14.57067 -38.40427,-14.57067 -52.97067,0 l -0.704,0.69546 c -14.56746,14.57067 -14.56746,38.40854 0,52.97494" style="fill:#9f1d2b;fill-opacity:1;fill-rule:evenodd;stroke:none;stroke-width:1.06666672"/><path id="path20" d="m 300.496,675.60427 376.40853,-376.4128 c 14.5664,-14.5664 14.5664,-38.40427 0,-52.97067 l -0.7008,-0.69973 c -14.57066,-14.57067 -38.4032,-14.57067 -52.97066,0 L 246.82133,621.9296 c -14.57173,14.57067 -14.57173,38.40427 0,52.97493 l 0.69974,0.69974 c 14.57066,14.57066 38.40426,14.57066 52.97493,0" style="fill:#9f1d2b;fill-opacity:1;fill-rule:evenodd;stroke:none;stroke-width:1.06666672"/></g><g id="pressed-center" transform="matrix(0.02211825,0,0,-0.02211836,47.96021,1117.9438)"><path id="path14-4" d="m 461.86667,10.287499 c 251.79626,0 455.92106,204.125301 455.92106,455.920501 0,251.80053 -204.1248,455.92533 -455.92106,455.92533 -251.80374,0 -455.929166,-204.1248 -455.929166,-455.92533 0,-251.7952 204.125426,-455.920501 455.929166,-455.920501" style="fill:#f55;fill-opacity:1;fill-rule:evenodd;stroke:none;stroke-width:1.06666672"/><path id="path16-2" d="m 461.86667,49.062507 c 230.37866,0 417.14133,186.766823 417.14133,417.145493 0,230.38827 -186.76267,417.14987 -417.14133,417.14987 -230.3872,0 -417.149977,-186.7616 -417.149977,-417.14987 0,-230.37867 186.762777,-417.145493 417.149977,-417.145493" style="fill:#f55;fill-opacity:1;fill-rule:evenodd;stroke:none;stroke-width:1.06666672"/><path id="path18-6" d="m 246.82133,304.8416 376.41174,376.40853 c 14.56746,14.57067 38.4,14.57067 52.97493,0 l 0.69653,-0.69973 c 14.57067,-14.56747 14.57067,-38.40427 0.004,-52.97173 L 300.496,251.1712 c -14.57067,-14.57067 -38.40427,-14.57067 -52.97067,0 l -0.704,0.69547 c -14.56746,14.57066 -14.56746,38.40426 0,52.97493" style="fill:#9f1d2b;fill-opacity:1;fill-rule:evenodd;stroke:none;stroke-width:1.06666672"/><path id="path20-2" d="M 300.496,681.25013 676.90453,304.8416 c 14.5664,-14.5664 14.5664,-38.40427 0,-52.97493 l -0.7008,-0.69547 c -14.57066,-14.57067 -38.4032,-14.57067 -52.97066,0 L 246.82133,627.57867 c -14.57173,14.56746 -14.57173,38.40426 0,52.97173 l 0.69974,0.69973 c 14.57066,14.57067 38.40426,14.57067 52.97493,0" style="fill:#9f1d2b;fill-opacity:1;fill-rule:evenodd;stroke:none;stroke-width:1.06666672"/></g><g style="fill:#5b5c63;fill-opacity:1" id="inactive-center" transform="matrix(0.02211826,0,0,-0.02211835,75.008737,1117.8241)"><path style="fill:#5b5c63;fill-opacity:1;fill-rule:evenodd;stroke:none;stroke-width:1.06669128" id="path4199" d="m 289.1262,8.2787733 c 251.80616,0 455.93572,204.1259967 455.93572,455.9355867 0,251.8022 -204.12956,455.93175 -455.93572,455.93175 -251.805422,0 -455.93529,-204.12955 -455.93529,-455.93175 0,-251.80959 204.129868,-455.9355867 455.93529,-455.9355867"/><path style="fill:#5b5c63;fill-opacity:1;fill-rule:evenodd;stroke:none;stroke-width:1.06669128" id="path4201" d="m 289.1262,47.054643 c 230.38913,0 417.15942,186.767157 417.15942,417.159717 0,230.38396 -186.77029,417.15535 -417.15942,417.15535 -230.388392,0 -417.15933,-186.77139 -417.15933,-417.15535 0,-230.39256 186.770938,-417.159717 417.15933,-417.159717"/></g><g style="fill:#5b5c63;fill-opacity:1" id="deactivated-center" transform="matrix(0.02211826,0,0,-0.02211835,96.716341,1117.8241)"><path style="fill:#5b5c63;fill-opacity:1;fill-rule:evenodd;stroke:none;stroke-width:1.06669128" id="path4199-2" d="m 313.42064,8.2787733 c 251.80634,0 455.93588,204.1259867 455.93588,455.9355767 0,251.80222 -204.12954,455.93171 -455.93588,455.93171 -251.805206,0 -455.93512,-204.12949 -455.93512,-455.93171 0,-251.80959 204.129914,-455.9355767 455.93512,-455.9355767"/><path style="fill:#5b5c63;fill-opacity:1;fill-rule:evenodd;stroke:none;stroke-width:1.06669128" id="path4201-6" d="m 313.42064,47.054653 c 230.38931,0 417.15955,186.767147 417.15955,417.159697 0,230.38396 -186.77024,417.15541 -417.15955,417.15541 -230.388176,0 -417.15916,-186.77145 -417.15916,-417.15541 0,-230.39255 186.770984,-417.159697 417.15916,-417.159697"/></g></g></svg>