<svg xmlns="http://www.w3.org/2000/svg" xmlns:svg="http://www.w3.org/2000/svg" xmlns:xlink="http://www.w3.org/1999/xlink" id="svg4428" width="119.467" height="29.867" version="1.1"><defs id="defs4430"><linearGradient id="linearGradient3913"><stop id="stop3915" offset="0" style="stop-color:#fff;stop-opacity:1"/><stop style="stop-color:#fff;stop-opacity:.49803922" id="stop3921" offset=".5"/><stop id="stop3917" offset="1" style="stop-color:#fff;stop-opacity:0"/></linearGradient><linearGradient id="linearGradient3868"><stop id="stop3870" offset="0" style="stop-color:#5a5a5a;stop-opacity:1"/><stop id="stop3872" offset="1" style="stop-color:#646464;stop-opacity:1"/></linearGradient><linearGradient id="linearGradient3813"><stop id="stop3815" offset="0" style="stop-color:#666;stop-opacity:1"/><stop id="stop3817" offset="1" style="stop-color:#636363;stop-opacity:1"/></linearGradient><linearGradient id="linearGradient3787"><stop id="stop3789" offset="0" style="stop-color:#e5e5df;stop-opacity:1"/><stop id="stop3791" offset="1" style="stop-color:#dadad4;stop-opacity:1"/></linearGradient><linearGradient id="linearGradient3806-3-5-6"><stop id="stop3808-6-9-1" offset="0" style="stop-color:#303030;stop-opacity:1"/><stop id="stop3810-4-6-3" offset="1" style="stop-color:#232323;stop-opacity:1"/></linearGradient><linearGradient id="linearGradient3793" x1="40" x2="40" y1="1044.362" y2="1032.362" gradientUnits="userSpaceOnUse" xlink:href="#linearGradient3787"/><linearGradient id="linearGradient3828" x1="40" x2="40" y1="1044.362" y2="1032.362" gradientTransform="matrix(1.1666666,0,0,1.0769231,-6.5,-80.335554)" gradientUnits="userSpaceOnUse" xlink:href="#linearGradient3787"/><linearGradient id="linearGradient3835" x1="40" x2="40" y1="1044.362" y2="1032.362" gradientTransform="matrix(1.1666666,0,0,1.0769231,-35.5,-1105.6978)" gradientUnits="userSpaceOnUse" xlink:href="#linearGradient3787-8"/><linearGradient id="linearGradient3835-4" x1="40" x2="40" y1="1044.362" y2="1032.362" gradientTransform="matrix(1.1666666,0,0,1.0769231,-35.5,-1105.6978)" gradientUnits="userSpaceOnUse" xlink:href="#linearGradient3787-8"/><linearGradient id="linearGradient3787-8"><stop id="stop3789-2" offset="0" style="stop-color:#f5f5ee;stop-opacity:1"/><stop id="stop3791-6" offset="1" style="stop-color:#e6e6df;stop-opacity:1"/></linearGradient><linearGradient id="linearGradient3835-3" x1="40" x2="40" y1="1044.362" y2="1032.362" gradientTransform="matrix(1.1666666,0,0,1.0769231,-35.5,-1105.6978)" gradientUnits="userSpaceOnUse" xlink:href="#linearGradient3787-8"/><linearGradient id="linearGradient3787-7"><stop id="stop3789-3" offset="0" style="stop-color:#f5f5ee;stop-opacity:1"/><stop id="stop3791-3" offset="1" style="stop-color:#e6e6e0;stop-opacity:1"/></linearGradient><linearGradient id="linearGradient3807" x1="11" x2="11" y1="15.75" y2="8.25" gradientUnits="userSpaceOnUse" xlink:href="#linearGradient3787"/><linearGradient id="linearGradient3819" x1="29.5" x2="29.5" y1="15.2" y2="8.8" gradientUnits="userSpaceOnUse" xlink:href="#linearGradient3813"/><linearGradient id="linearGradient3807-1" x1="10" x2="10" y1="7" y2="15.889" gradientUnits="userSpaceOnUse" xlink:href="#linearGradient4231"/><linearGradient id="linearGradient4231"><stop style="stop-color:#e7e7e1;stop-opacity:1" id="stop4233" offset="0"/><stop style="stop-color:#dadad3;stop-opacity:1" id="stop4239" offset="1"/></linearGradient><linearGradient id="linearGradient3807-1-1" x1="10" x2="10" y1="15.889" y2="7" gradientUnits="userSpaceOnUse" xlink:href="#linearGradient4231-1"/><linearGradient id="linearGradient4231-1"><stop style="stop-color:#e5e5de;stop-opacity:1" id="stop4233-6" offset="0"/><stop style="stop-color:#dadad3;stop-opacity:1" id="stop4239-7" offset="1"/></linearGradient><linearGradient id="linearGradient4363"><stop id="stop4365" offset="0" style="stop-color:#979791;stop-opacity:1"/><stop id="stop4367" offset="1" style="stop-color:#dadad4;stop-opacity:0"/></linearGradient><linearGradient id="linearGradient4363-7"><stop id="stop4365-9" offset="0" style="stop-color:#f5f5ef;stop-opacity:1"/><stop id="stop4367-8" offset="1" style="stop-color:#dadad4;stop-opacity:0"/></linearGradient><linearGradient id="linearGradient4361" x1="248.632" x2="248.632" y1="79" y2="58" gradientTransform="matrix(1.1875,0,0,1,-41.25,0)" gradientUnits="userSpaceOnUse" xlink:href="#linearGradient4231-7"/><linearGradient id="linearGradient4231-7"><stop style="stop-color:#e6e6df;stop-opacity:1" id="stop4233-4" offset="0"/><stop style="stop-color:#d1d1ca;stop-opacity:1" id="stop4239-8" offset="1"/></linearGradient><linearGradient id="linearGradient3127" x1="248.632" x2="248.632" y1="79" y2="58" gradientTransform="matrix(1.1875,0,0,1,-262.25,-55.99998)" gradientUnits="userSpaceOnUse" xlink:href="#linearGradient4231-7"/><linearGradient id="linearGradient3154" x1="248.632" x2="248.632" y1="79" y2="58" gradientTransform="matrix(1.1875,0,0,1,-262.25,-55.99998)" gradientUnits="userSpaceOnUse" xlink:href="#linearGradient4231-7"/><linearGradient id="linearGradient3159" x1="248.632" x2="248.632" y1="79" y2="58" gradientTransform="matrix(1.1875,0,0,1,-249.25,-54.99998)" gradientUnits="userSpaceOnUse" xlink:href="#linearGradient4231-7"/><linearGradient id="linearGradient3159-0" x1="248.632" x2="248.632" y1="79" y2="58" gradientTransform="matrix(1.1875,0,0,1,-262.25,-55.99998)" gradientUnits="userSpaceOnUse" xlink:href="#linearGradient4231-7-9"/><linearGradient id="linearGradient4231-7-9"><stop style="stop-color:#e6e6df;stop-opacity:1" id="stop4233-4-2" offset="0"/><stop style="stop-color:#d1d1ca;stop-opacity:1" id="stop4239-8-9" offset="1"/></linearGradient><linearGradient id="linearGradient4231-5"><stop style="stop-color:#e5e5de;stop-opacity:1" id="stop4233-41" offset="0"/><stop style="stop-color:#dadad3;stop-opacity:1" id="stop4239-73" offset="1"/></linearGradient><linearGradient id="linearGradient3159-1" x1="248.632" x2="248.632" y1="79" y2="58" gradientTransform="matrix(1.1875,0,0,1,-262.25,-55.99998)" gradientUnits="userSpaceOnUse" xlink:href="#linearGradient4231-7-7"/><linearGradient id="linearGradient4231-7-7"><stop style="stop-color:#e6e6df;stop-opacity:1" id="stop4233-4-7" offset="0"/><stop style="stop-color:#d1d1ca;stop-opacity:1" id="stop4239-8-2" offset="1"/></linearGradient><linearGradient id="linearGradient3807-1-7" x1="10" x2="10" y1="15.889" y2="7" gradientUnits="userSpaceOnUse" xlink:href="#linearGradient4231-73"/><linearGradient id="linearGradient4231-73"><stop style="stop-color:#e5e5de;stop-opacity:1" id="stop4233-1" offset="0"/><stop style="stop-color:#dadad3;stop-opacity:1" id="stop4239-85" offset="1"/></linearGradient><radialGradient id="radialGradient5329" cx="-14.843" cy="1034.921" r="8.006" fx="-14.843" fy="1034.921" gradientTransform="matrix(1,0,0,0.49292897,0.12127985,524.5964)" gradientUnits="userSpaceOnUse" xlink:href="#linearGradient4363-7"/><filter id="filter5355" width="1.365" height="1.746" x="-.182" y="-.373"><feGaussianBlur id="feGaussianBlur5357" stdDeviation="1.207"/></filter></defs><metadata id="metadata4433"/><g id="layer1" transform="translate(0,-1092.653)"><path id="path3863" d="m -22.665748,1038.6229 h 15.8877044 c -0.3742772,-10.7481 -15.8936154,-9.9594 -15.8877044,0 z" transform="matrix(0.99862602,0,0,0.91748438,122.43674,158.27533)" style="opacity:0;fill:url(#radialGradient5329);fill-opacity:1;stroke:#000;stroke-width:.1;stroke-linecap:butt;stroke-linejoin:miter;stroke-miterlimit:4;stroke-dasharray:none;stroke-opacity:1;filter:url(#filter5355)"/><g id="active-center" transform="matrix(0.02211836,0,0,-0.02211825,2.8148384,1117.8901)"><path id="path14" d="m 458.87899,7.858327 c 251.80054,0 455.92104,204.124603 455.92104,455.929423 0,251.79516 -204.1205,455.92106 -455.92104,455.92106 C 207.07954,919.70881 2.9541365,715.58291 2.9541365,463.78775 2.9541365,211.98293 207.07954,7.858327 458.87899,7.858327" style="fill:#ffb86c;fill-opacity:1;fill-rule:evenodd;stroke:none;stroke-width:1.06666672;enable-background:new"/><path id="path16" d="m 458.87709,46.637797 c 230.38404,0 417.14984,186.762973 417.14984,417.150183 0,230.37866 -186.7658,417.14136 -417.14984,417.14136 -230.38292,0 -417.149854,-186.7627 -417.149854,-417.14136 0,-230.38721 186.766934,-417.150183 417.149854,-417.150183" style="fill:#ffb86c;fill-opacity:1;fill-rule:evenodd;stroke:none;stroke-width:1.06666672;enable-background:new"/></g><g id="hover-center" transform="matrix(0.02211825,0,0,-0.02211826,25.480173,1117.8188)"><path id="path14-3" d="m 461.86453,4.63743 c 251.8018,0 455.9233,204.12451 455.9233,455.92922 0,251.7951 -204.1215,455.9209 -455.9233,455.9209 -251.8007,0 -455.92712,-204.1258 -455.92712,-455.9209 0,-251.80471 204.12642,-455.92922 455.92712,-455.92922" style="fill:#ffb86c;fill-opacity:1;fill-rule:evenodd;stroke:none;stroke-width:1.06666911;enable-background:new"/><path id="path16-5-3" d="m 461.86264,43.41688 c 230.38518,0 417.15189,186.76293 417.15189,417.15004 0,230.37853 -186.76671,417.14113 -417.15189,417.14113 -230.38408,0 -417.15193,-186.7626 -417.15193,-417.14113 0,-230.38711 186.76785,-417.15004 417.15193,-417.15004" style="fill:#ffb86c;fill-opacity:1;fill-rule:evenodd;stroke:none;stroke-width:1.06666911;enable-background:new"/><path id="path18-6" d="M 712.98802,538.66275 510.65895,336.33378 c -26.83834,-26.83837 -70.74928,-26.83828 -97.58704,-5.5e-4 L 210.74106,538.66395 h 502.24696" style="fill:#713739;fill-opacity:1;fill-rule:evenodd;stroke:none;stroke-width:1.06666911;enable-background:new"/></g><g id="pressed-center" transform="matrix(0.02211825,0,0,-0.02211836,47.96021,1117.9438)"><path id="path14-2" d="m 461.8645,10.28742 c 251.80183,0 455.92333,204.12359 455.92333,455.92716 0,251.79393 -204.1215,455.91883 -455.92333,455.91883 -251.8007,0 -455.9271,-204.1249 -455.9271,-455.91883 0,-251.80357 204.1264,-455.92716 455.9271,-455.92716" style="fill:#ffb86c;fill-opacity:1;fill-rule:evenodd;stroke:none;stroke-width:1.06666672;enable-background:new"/><path id="path16-9-6" d="m 461.8645,49.06647 c 230.38523,0 417.15193,186.76204 417.15193,417.14811 0,230.37753 -186.7667,417.13923 -417.15193,417.13923 -230.3841,0 -417.1519,-186.7617 -417.1519,-417.13923 0,-230.38607 186.7678,-417.14811 417.1519,-417.14811" style="fill:#ffb86c;fill-opacity:1;fill-rule:evenodd;stroke:none;stroke-width:1.06666672;enable-background:new"/><path id="path18-6-3" d="M 712.98803,544.44176 510.6589,342.1137 c -26.8383,-26.83825 -70.7493,-26.83816 -97.5871,-5.4e-4 l -202.3308,202.32983 502.24703,-10e-4" style="fill:#713739;fill-opacity:1;fill-rule:evenodd;stroke:none;stroke-width:1.06666672;enable-background:new"/></g><g style="fill-opacity:1;fill:#5b5c63" id="inactive-center" transform="matrix(0.02211826,0,0,-0.02211835,73.959447,1117.8241)"><path style="fill:#5b5c63;fill-opacity:1;fill-rule:evenodd;stroke:none;stroke-width:1.06669128" id="path4199" d="m 406.02302,3.4042596 c 251.80615,0 455.93568,204.1260004 455.93568,455.9355904 0,251.8022 -204.12953,455.93169 -455.93568,455.93169 -251.80541,0 -455.935317,-204.12949 -455.935317,-455.93169 0,-251.80959 204.129907,-455.9355904 455.935317,-455.9355904"/><path style="fill:#5b5c63;fill-opacity:1;fill-rule:evenodd;stroke:none;stroke-width:1.06669128" id="path4201" d="m 406.02302,42.180129 c 230.38912,0 417.15936,186.767161 417.15936,417.159721 0,230.38396 -186.77024,417.15539 -417.15936,417.15539 -230.38838,0 -417.159361,-186.77143 -417.159361,-417.15539 0,-230.39256 186.770981,-417.159721 417.159361,-417.159721"/></g><g style="fill-opacity:1;fill:#5b5c63" id="deactivated-center" transform="matrix(0.02211826,0,0,-0.02211835,96.716341,1117.8241)"><path style="fill:#5b5c63;fill-opacity:1;fill-rule:evenodd;stroke:none;stroke-width:1.06669116" id="path4199-3" d="m 365.58933,3.4042596 c 251.8062,0 455.9357,204.1260304 455.9357,455.9355904 0,251.80222 -204.1295,455.93172 -455.9357,455.93172 -251.8054,0 -455.935302,-204.1295 -455.935302,-455.93172 0,-251.80956 204.129902,-455.9355904 455.935302,-455.9355904"/><path style="fill:#5b5c63;fill-opacity:1;fill-rule:evenodd;stroke:none;stroke-width:1.06669116" id="path4201-6" d="m 365.58933,42.18016 c 230.3891,0 417.1594,186.76714 417.1594,417.15969 0,230.38398 -186.7703,417.15542 -417.1594,417.15542 -230.3884,0 -417.159402,-186.77144 -417.159402,-417.15542 0,-230.39255 186.771002,-417.15969 417.159402,-417.15969"/></g></g></svg>