<svg xmlns="http://www.w3.org/2000/svg" xmlns:svg="http://www.w3.org/2000/svg" id="svg17" width="32" height="32" version="1.1"><metadata id="metadata23"/><defs id="defs21"><linearGradient id="_lgradient_4" x1="26.5" x2="51.5" y1="16" y2="16" gradientTransform="matrix(1.1199999,0,0,1.1199999,-27.239997,-1.9800147)" gradientUnits="userSpaceOnUse"><stop style="stop-color:#ff8fc3" id="stop15-3" offset="0%" stop-opacity="1"/><stop style="stop-color:#a1a1ff" id="stop17-6" offset="100%" stop-opacity="1"/></linearGradient></defs><g id="applications-other"><g style="clip-rule:evenodd;fill-rule:evenodd;stroke-linejoin:round;stroke-miterlimit:1.41421" id="applications-other-3" transform="translate(0.27357099,0.15566293)"><path style="fill:#ffffc1;fill-opacity:0;stroke-width:1.00213" id="rect817" d="M 22,0 V 32 H 54 V 0 Z" transform="translate(-21.999998,-1.5e-5)"/><path id="path20" stroke-miterlimit="3" d="m 4.120002,2.4999855 h 8.96 c 0.61824,0 1.120001,0.50176 1.120001,1.1199998 v 8.9599997 c 0,0.618241 -0.501761,1.120001 -1.120001,1.120001 h -8.96 c -0.61824,0 -1.12,-0.50176 -1.12,-1.120001 V 3.6199853 c 0,-0.6182398 0.50176,-1.1199998 1.12,-1.1199998 z m 15.68,0 h 8.960001 c 0.618236,0 1.119999,0.50176 1.119999,1.1199998 v 8.9599997 c 0,0.618241 -0.501763,1.120001 -1.119999,1.120001 h -8.960001 c -0.61824,0 -1.119999,-0.50176 -1.119999,-1.120001 V 3.6199853 c 0,-0.6182398 0.501759,-1.1199998 1.119999,-1.1199998 z m 0,15.6799995 h 8.960001 c 0.618236,0 1.119999,0.50176 1.119999,1.12 v 8.960001 c 0,0.618239 -0.501763,1.119999 -1.119999,1.119999 h -8.960001 c -0.61824,0 -1.119999,-0.50176 -1.119999,-1.119999 v -8.960001 c 0,-0.61824 0.501759,-1.12 1.119999,-1.12 z m -15.68,0 h 8.96 c 0.61824,0 1.120001,0.50176 1.120001,1.12 v 8.960001 c 0,0.618239 -0.501761,1.119999 -1.120001,1.119999 h -8.96 c -0.61824,0 -1.12,-0.50176 -1.12,-1.119999 v -8.960001 c 0,-0.61824 0.50176,-1.12 1.12,-1.12 z" style="opacity:1;isolation:isolate;vector-effect:non-scaling-stroke;fill:none;fill-rule:evenodd;stroke:#ffb86c;stroke-width:1.12;stroke-linecap:square;stroke-linejoin:miter;stroke-miterlimit:3;stroke-opacity:1"/></g></g></svg>