<svg xmlns="http://www.w3.org/2000/svg" xmlns:svg="http://www.w3.org/2000/svg" id="svg7539" width="50" height="20" version="1.1"><defs id="defs7541"><linearGradient id="linearGradient4695-1-4-3-5-0-6"><stop id="stop4697-9-9-7-0-1-5" offset="0" style="stop-color:#000;stop-opacity:1"/><stop id="stop4699-5-8-9-0-4-0" offset="1" style="stop-color:#000;stop-opacity:0"/></linearGradient><linearGradient id="linearGradient3768-6"><stop style="stop-color:#0f0f0f;stop-opacity:1" id="stop3770-0" offset="0"/><stop id="stop3778-6" offset=".078" style="stop-color:#171717;stop-opacity:1"/><stop style="stop-color:#171717;stop-opacity:1" id="stop3774-2" offset=".974"/><stop style="stop-color:#1b1b1b;stop-opacity:1" id="stop3776-2" offset="1"/></linearGradient><linearGradient id="linearGradient3969-0-4"><stop style="stop-color:#353537;stop-opacity:1" id="stop3971-2-6" offset="0"/><stop style="stop-color:#4d4f52;stop-opacity:1" id="stop3973-0-1" offset="1"/></linearGradient><linearGradient id="linearGradient3938"><stop id="stop3940" offset="0" style="stop-color:#fff;stop-opacity:0"/><stop id="stop3942" offset="1" style="stop-color:#fff;stop-opacity:.54901963"/></linearGradient><linearGradient id="linearGradient6523"><stop id="stop6525" offset="0" style="stop-color:#1a1a1a;stop-opacity:1"/><stop id="stop6527" offset="1" style="stop-color:#1a1a1a;stop-opacity:0"/></linearGradient><linearGradient id="linearGradient3938-6"><stop id="stop3940-4" offset="0" style="stop-color:#bebebe;stop-opacity:1"/><stop id="stop3942-8" offset="1" style="stop-color:#fff;stop-opacity:1"/></linearGradient><filter id="filter930" width="1.072" height="1.072" x="-.036" y="-.036" style="color-interpolation-filters:sRGB"><feGaussianBlur id="feGaussianBlur932" stdDeviation=".225"/></filter></defs><metadata id="metadata7544"/><g id="layer1" transform="translate(-120,87.999997)"><path id="path900" d="m 127.85953,-77.245935 a 9.5,9.5 0 0 0 -0.0195,0.585938 9.5,9.5 0 0 0 9.5,9.5 h 7.5 2 7.5 a 9.5,9.5 0 0 0 9.5,-9.5 9.5,9.5 0 0 0 -0.0195,-0.414062 9.5,9.5 0 0 1 -9.48053,8.914062 h -7.5 -2 -7.5 a 9.5,9.5 0 0 1 -9.48047,-9.085938 z" style="opacity:1;fill:none;fill-opacity:1"/><path id="path872" d="m 137.34,-87.159997 a 9.5,9.5 0 0 0 -9.5,9.5 9.5,9.5 0 0 0 9.5,9.5 h 7.5 2 7.5 a 9.5,9.5 0 0 0 9.5,-9.5 9.5,9.5 0 0 0 -9.5,-9.5 h -7.5 -2 z" style="fill:#44475a;fill-opacity:1;stroke:#44475a;stroke-opacity:1"/><rect id="rect934" width="15" height="15" x="129.84" y="-83.66" ry="7.392" style="color:#000;display:inline;overflow:visible;visibility:visible;opacity:1;fill:#000;fill-opacity:.1;fill-rule:nonzero;stroke:none;stroke-width:1.76471;stroke-opacity:1;marker:none;filter:url(#filter930);enable-background:new"/><rect style="color:#000;display:inline;overflow:visible;visibility:visible;opacity:1;fill:#000;fill-opacity:.2;fill-rule:nonzero;stroke:none;stroke-width:1.76471;stroke-opacity:1;marker:none;filter:url(#filter930);enable-background:new" id="rect912" width="15" height="15" x="129.84" y="-84.66" ry="7.392"/><rect id="rect3872" width="15" height="15" x="129.84" y="-85.16" ry="7.392" style="color:#000;display:inline;overflow:visible;visibility:visible;opacity:1;fill:#f8f8f8;fill-opacity:1;fill-rule:nonzero;stroke:none;stroke-width:1.76471;stroke-opacity:1;marker:none;enable-background:new"/><path id="path902" d="m 137.34,-87.159997 a 9.5,9.5 0 0 0 -9.5,9.5 9.5,9.5 0 0 0 0.0195,0.414062 9.5,9.5 0 0 1 9.4805,-8.914062 h 7.5 2 7.5 a 9.5,9.5 0 0 1 9.48047,9.085938 9.5,9.5 0 0 0 0.0195,-0.585938 9.5,9.5 0 0 0 -9.5,-9.5 h -7.5 -2 z" style="fill:none;fill-opacity:1"/><path id="rect936" d="m 137.23259,-85.159997 c -4.09536,0 -7.39258,3.29722 -7.39258,7.39258 v 0.21484 c 0,0.1326 0.0127,0.26174 0.0195,0.39258 0.20406,-3.91019 3.41029,-7 7.37305,-7 h 0.21484 c 3.96276,0 7.16899,3.08981 7.37305,7 0.007,-0.13084 0.0195,-0.25998 0.0195,-0.39258 v -0.21484 c 0,-4.09536 -3.29722,-7.39258 -7.39258,-7.39258 z" style="color:#000;display:inline;overflow:visible;visibility:visible;opacity:1;fill:none;fill-opacity:.2;fill-rule:nonzero;stroke:none;stroke-width:1.76471;stroke-opacity:1;marker:none;enable-background:new"/></g></svg>