<svg xmlns="http://www.w3.org/2000/svg" xmlns:svg="http://www.w3.org/2000/svg" id="svg2" version="1.1" viewBox="0 0 104 138"><metadata id="metadata72"/><style id="current-color-scheme" type="text/css">.ColorScheme-Background{color:#eff0f1}.ColorScheme-ButtonText{color:#232629}.ColorScheme-ButtonHover{color:#93cee9}.ColorScheme-ButtonFocus{color:#3daee9}</style><g id="22-22-pressed"><path id="rect835-3-6-5" fill="none" d="m62 46h22v22h-22z" opacity=".02"/><rect id="rect841-6-0" width="22" height="22" x="62" y="46" fill="currentColor" fill-rule="evenodd" class="ColorScheme-ButtonFocus" rx="11" style="fill:#bd93f9;fill-opacity:1"/><rect id="rect841-6-0-3" width="20" height="20" x="63" y="47" fill="currentColor" fill-rule="evenodd" class="ColorScheme-Background" rx="10" style="fill:#272834;fill-opacity:1"/></g><g id="22-22-hover"><path id="rect835-3-6-5-1" fill="none" d="m62 80h22v22h-22z" opacity=".02"/><rect id="rect841-6-6" width="22" height="22" x="62" y="80" fill="currentColor" fill-rule="evenodd" class="ColorScheme-ButtonHover" rx="11" style="fill:#bd93f9;fill-opacity:1"/><rect id="rect841-6-6-5" width="20" height="20" x="63" y="81" fill="currentColor" fill-rule="evenodd" class="ColorScheme-Background" rx="10" style="fill:#272834;fill-opacity:1"/></g><g id="22-22-normal"><path id="rect835-3-6" fill="none" d="m62 12h22v22h-22z" opacity=".02"/><rect id="rect841-6-6-5-3-3" width="22" height="22" x="62" y="12" fill="currentColor" fill-rule="evenodd" class="ColorScheme-Background" rx="11" style="fill:#272834;fill-opacity:1"/><path id="rect841-6" fill="currentColor" fill-rule="evenodd" d="m73 12c-6.094 0-11 4.906-11 11s4.906 11 11 11 11-4.906 11-11-4.906-11-11-11zm0 1c5.54 0 10 4.46 10 10s-4.46 10-10 10-10-4.46-10-10 4.46-10 10-10z" class="ColorScheme-ButtonText" opacity=".3" style="fill:#16171d;fill-opacity:1"/></g><g id="22-22-focus"><path id="rect835-3-6-5-1-9" fill="none" d="m62 114h22v22h-22z" opacity=".02"/><rect id="rect841-6-2" width="22" height="22" x="62" y="114" fill="currentColor" fill-rule="evenodd" class="ColorScheme-ButtonFocus" rx="11" style="fill:#bd93f9;fill-opacity:1"/><rect id="rect841-6-6-5-5" width="20" height="20" x="63" y="115" fill="currentColor" fill-rule="evenodd" class="ColorScheme-Background" rx="10" style="fill:#272834;fill-opacity:1"/></g><g id="24-24-focus"><path id="rect835-3-3-9-0" fill="none" d="m36 112h24v24h-24z" opacity=".02"/><rect id="rect841-6-2-9" width="24" height="24" x="36" y="112" fill="currentColor" fill-rule="evenodd" class="ColorScheme-ButtonFocus" rx="12" style="fill:#bd93f9;fill-opacity:1"/><rect id="rect841-6-6-5-5-1" width="22" height="22" x="37" y="113" fill="currentColor" fill-rule="evenodd" class="ColorScheme-Background" rx="11" style="fill:#272834;fill-opacity:1"/></g><g id="24-24-hover"><path id="rect835-3-3-9" fill="none" d="m36 78h24v24h-24z" opacity=".02"/><rect id="rect841-6-6-7" width="24" height="24" x="36" y="78" fill="currentColor" fill-rule="evenodd" class="ColorScheme-ButtonHover" rx="12" style="fill:#bd93f9;fill-opacity:1"/><rect id="rect841-6-6-5-0" width="22" height="22" x="37" y="79" fill="currentColor" fill-rule="evenodd" class="ColorScheme-Background" rx="11" style="fill:#272834;fill-opacity:1"/></g><g id="24-24-pressed"><path id="rect835-3-3" fill="none" d="m36 44h24v24h-24z" opacity=".02"/><rect id="rect841-6-0-9" width="24" height="24" x="36" y="44" fill="currentColor" fill-rule="evenodd" class="ColorScheme-ButtonFocus" rx="12" style="fill:#bd93f9;fill-opacity:1"/><rect id="rect841-6-0-3-3" width="22" height="22" x="37" y="45" fill="currentColor" fill-rule="evenodd" class="ColorScheme-Background" rx="11" style="fill:#272834;fill-opacity:1"/></g><g id="24-24-normal"><path id="rect835-3" fill="none" d="m36 10h24v24h-24z" opacity=".02"/><rect id="rect841-6-6-5-3-3-6" width="24" height="24" x="36" y="10" fill="currentColor" fill-rule="evenodd" class="ColorScheme-Background" rx="12" style="fill:#272834;fill-opacity:1"/><path id="rect841-6-26" fill="currentColor" fill-rule="evenodd" d="m48 10c-6.648 0-12 5.352-12 12s5.352 12 12 12 12-5.352 12-12-5.352-12-12-12zm0 1c6.094 0 11 4.906 11 11s-4.906 11-11 11-11-4.906-11-11 4.906-11 11-11z" class="ColorScheme-ButtonText" opacity=".3" style="fill:#16171d;fill-opacity:1"/></g><g id="normal"><path id="rect835" fill="none" d="m2 2h32v32h-32z" opacity=".02"/><rect id="rect841-6-6-5-3-3-6-8" width="32" height="32" x="2" y="2" fill="currentColor" fill-rule="evenodd" class="ColorScheme-Background" rx="16" style="fill:#272834;fill-opacity:1"/><path id="rect841-6-26-7" fill="currentColor" fill-rule="evenodd" d="m18 2c-8.864 0-16 7.136-16 16s7.136 16 16 16 16-7.136 16-16-7.136-16-16-16zm0 1c8.31 0 15 6.69 15 15s-6.69 15-15 15-15-6.69-15-15 6.69-15 15-15z" class="ColorScheme-ButtonText" opacity=".3" style="fill:#16171d;fill-opacity:1"/></g><g id="pressed"><path id="rect835-5" fill="none" d="m2 36h32v32h-32z" opacity=".02"/><rect id="rect841-6-0-9-0" width="32" height="32" x="2" y="36" fill="currentColor" fill-rule="evenodd" class="ColorScheme-ButtonFocus" rx="16" style="fill:#bd93f9;fill-opacity:1"/><rect id="rect841-6-0-3-3-2" width="30" height="30" x="3" y="37" fill="currentColor" fill-rule="evenodd" class="ColorScheme-Background" rx="15" style="fill:#272834;fill-opacity:1"/></g><g id="hover"><path id="rect835-5-2" fill="none" d="m2 70h32v32h-32z" opacity=".02"/><rect id="rect841-6-6-7-3" width="32" height="32" x="2" y="70" fill="currentColor" fill-rule="evenodd" class="ColorScheme-ButtonHover" rx="16" style="fill:#bd93f9;fill-opacity:1"/><rect id="rect841-6-6-5-0-7" width="30" height="30" x="3" y="71" fill="currentColor" fill-rule="evenodd" class="ColorScheme-Background" rx="15" style="fill:#272834;fill-opacity:1"/></g><g id="focus"><path id="rect835-5-2-7" fill="none" d="m2 104h32v32h-32z" opacity=".02"/><rect id="rect841-6-6-7-3-8" width="32" height="32" x="2" y="104" fill="currentColor" fill-rule="evenodd" class="ColorScheme-ButtonFocus" rx="16" style="fill:#bd93f9;fill-opacity:1"/><rect id="rect841-6-6-5-0-7-9" width="30" height="30" x="3" y="105" fill="currentColor" fill-rule="evenodd" class="ColorScheme-Background" rx="15" style="fill:#272834;fill-opacity:1"/></g><g id="16-16-pressed" transform="translate(24 6)"><path id="rect835-3-6-5-3" fill="none" d="m62 46h16v16h-16z" opacity=".02"/><rect id="rect841-6-0-6" width="16" height="16" x="62" y="46" fill="currentColor" fill-rule="evenodd" class="ColorScheme-ButtonFocus" rx="14" style="fill:#bd93f9;fill-opacity:1"/><rect id="rect841-6-0-3-1" width="14" height="14" x="63" y="47" fill="currentColor" fill-rule="evenodd" class="ColorScheme-Background" rx="14" style="fill:#272834;fill-opacity:1"/></g><g id="16-16-hover" transform="translate(24 6)"><path id="rect835-3-6-5-1-93" fill="none" d="m62 80h16v16h-16z" opacity=".02"/><rect id="rect841-6-6-9" width="16" height="16" x="62" y="80" fill="currentColor" fill-rule="evenodd" class="ColorScheme-ButtonHover" rx="14" style="fill:#bd93f9;fill-opacity:1"/><rect id="rect841-6-6-5-4" width="14" height="14" x="63" y="81" fill="currentColor" fill-rule="evenodd" class="ColorScheme-Background" rx="14" style="fill:#272834;fill-opacity:1"/></g><g id="16-16-normal" transform="translate(24 6)"><path id="rect835-3-6-8" fill="none" d="m62 12h16v16h-16z" opacity=".02"/><rect id="rect841-6-6-5-3-3-5" width="16" height="16" x="62" y="12" fill="currentColor" fill-rule="evenodd" class="ColorScheme-Background" rx="14" style="fill:#272834;fill-opacity:1"/><path id="rect841-6-03" fill="currentColor" fill-rule="evenodd" d="m94 18c-4.432 0-8 3.568-8 8s3.568 8 8 8 8-3.568 8-8-3.568-8-8-8zm0 1c3.878 0 7 3.122 7 7s-3.122 7-7 7-7-3.122-7-7 3.122-7 7-7z" class="ColorScheme-ButtonText" opacity=".3" transform="translate(-24,-6)" style="fill:#16171d;fill-opacity:1"/></g><g id="16-16-focus" transform="translate(24 6)"><path id="rect835-3-6-5-1-9-0" fill="none" d="m62 114h16v16h-16z" opacity=".02"/><rect id="rect841-6-2-3" width="16" height="16" x="62" y="114" fill="currentColor" fill-rule="evenodd" class="ColorScheme-ButtonFocus" rx="14" style="fill:#bd93f9;fill-opacity:1"/><rect id="rect841-6-6-5-5-2" width="14" height="14" x="63" y="115" fill="currentColor" fill-rule="evenodd" class="ColorScheme-Background" rx="14" style="fill:#272834;fill-opacity:1"/></g></svg>