<svg xmlns="http://www.w3.org/2000/svg" xmlns:svg="http://www.w3.org/2000/svg" xmlns:xlink="http://www.w3.org/1999/xlink" id="svg2" width="89" height="63" version="1.1"><defs id="defs4"><linearGradient id="linearGradient3887"><stop style="stop-color:#fff;stop-opacity:.39215687" id="stop3889" offset="0"/><stop style="stop-color:#fff;stop-opacity:0" id="stop3891" offset="1"/></linearGradient><linearGradient id="linearGradient4160"><stop style="stop-color:#fff;stop-opacity:.17647059" id="stop4162" offset="0"/><stop style="stop-color:#000;stop-opacity:.11764706" id="stop4164" offset="1"/></linearGradient><linearGradient id="linearGradient4080"><stop style="stop-color:#fff;stop-opacity:.27450982" id="stop4082" offset="0"/><stop style="stop-color:#fff;stop-opacity:.17647059" id="stop4084" offset="1"/></linearGradient><linearGradient id="linearGradient4008"><stop style="stop-color:#fff;stop-opacity:.47058824" id="stop4010" offset="0"/><stop style="stop-color:#fff;stop-opacity:.17647059" id="stop4012" offset="1"/></linearGradient><linearGradient id="linearGradient4014" x1="400" x2="400" y1="558.362" y2="575.362" gradientTransform="translate(-65,50.000036)" gradientUnits="userSpaceOnUse" xlink:href="#linearGradient4008"/><linearGradient id="linearGradient4022" x1="330" x2="415" y1="585.362" y2="585.362" gradientUnits="userSpaceOnUse" xlink:href="#linearGradient4008"/><linearGradient id="linearGradient4030" x1="355" x2="355" y1="583.362" y2="600.362" gradientUnits="userSpaceOnUse" xlink:href="#linearGradient4008"/><linearGradient id="linearGradient4038" x1="61" x2="61" y1="1" y2="18" gradientUnits="userSpaceOnUse" xlink:href="#linearGradient4008"/><linearGradient id="linearGradient4046" x1="330" x2="415" y1="586.362" y2="586.362" gradientUnits="userSpaceOnUse" xlink:href="#linearGradient4008"/><linearGradient id="linearGradient4054" x1="53" x2="53" y1="1" y2="18" gradientUnits="userSpaceOnUse" xlink:href="#linearGradient4008"/><linearGradient id="linearGradient4062" x1="54" x2="54" y1="19" y2="2" gradientUnits="userSpaceOnUse" xlink:href="#linearGradient4008"/><linearGradient id="linearGradient4070" x1="395" x2="395" y1="601.362" y2="584.362" gradientUnits="userSpaceOnUse" xlink:href="#linearGradient4008"/><linearGradient id="linearGradient4078" x1="60" x2="60" y1="19" y2="2" gradientUnits="userSpaceOnUse" xlink:href="#linearGradient4008"/><linearGradient id="linearGradient4014-5" x1="400" x2="400" y1="558.362" y2="575.362" gradientTransform="translate(0,51.000011)" gradientUnits="userSpaceOnUse" xlink:href="#linearGradient4008-2"/><linearGradient id="linearGradient4008-2"><stop style="stop-color:#fff;stop-opacity:.47058824" id="stop4010-4" offset="0"/><stop style="stop-color:#fff;stop-opacity:.17647059" id="stop4012-7" offset="1"/></linearGradient><linearGradient id="linearGradient4022-1" x1="330" x2="415" y1="585.362" y2="585.362" gradientUnits="userSpaceOnUse" xlink:href="#linearGradient4008-2"/><linearGradient id="linearGradient3428"><stop style="stop-color:#fff;stop-opacity:.47058824" id="stop3430" offset="0"/><stop style="stop-color:#fff;stop-opacity:.17647059" id="stop3432" offset="1"/></linearGradient><linearGradient id="linearGradient4046-1" x1="330" x2="415" y1="586.362" y2="586.362" gradientUnits="userSpaceOnUse" xlink:href="#linearGradient4008-2"/><linearGradient id="linearGradient3435"><stop style="stop-color:#fff;stop-opacity:.47058824" id="stop3437" offset="0"/><stop style="stop-color:#fff;stop-opacity:.17647059" id="stop3439" offset="1"/></linearGradient><linearGradient id="linearGradient4070-4" x1="395" x2="395" y1="601.362" y2="584.362" gradientUnits="userSpaceOnUse" xlink:href="#linearGradient4008-2"/><linearGradient id="linearGradient3442"><stop style="stop-color:#fff;stop-opacity:.47058824" id="stop3444" offset="0"/><stop style="stop-color:#fff;stop-opacity:.17647059" id="stop3446" offset="1"/></linearGradient><linearGradient id="linearGradient4030-8" x1="355" x2="355" y1="583.362" y2="600.362" gradientUnits="userSpaceOnUse" xlink:href="#linearGradient4008-2"/><linearGradient id="linearGradient3449"><stop style="stop-color:#fff;stop-opacity:.47058824" id="stop3451" offset="0"/><stop style="stop-color:#fff;stop-opacity:.17647059" id="stop3453" offset="1"/></linearGradient><linearGradient id="linearGradient4054-6" x1="53" x2="53" y1="1" y2="18" gradientUnits="userSpaceOnUse" xlink:href="#linearGradient4008-2"/><linearGradient id="linearGradient3456"><stop style="stop-color:#fff;stop-opacity:.47058824" id="stop3458" offset="0"/><stop style="stop-color:#fff;stop-opacity:.17647059" id="stop3460" offset="1"/></linearGradient><linearGradient id="linearGradient4062-6" x1="54" x2="54" y1="19" y2="2" gradientUnits="userSpaceOnUse" xlink:href="#linearGradient4008-2"/><linearGradient id="linearGradient3463"><stop style="stop-color:#fff;stop-opacity:.47058824" id="stop3465" offset="0"/><stop style="stop-color:#fff;stop-opacity:.17647059" id="stop3467" offset="1"/></linearGradient><linearGradient id="linearGradient4078-9" x1="60" x2="60" y1="19" y2="2" gradientUnits="userSpaceOnUse" xlink:href="#linearGradient4008-2"/><linearGradient id="linearGradient3470"><stop style="stop-color:#fff;stop-opacity:.47058824" id="stop3472" offset="0"/><stop style="stop-color:#fff;stop-opacity:.17647059" id="stop3474" offset="1"/></linearGradient><linearGradient id="linearGradient4038-9" x1="61" x2="61" y1="1" y2="18" gradientUnits="userSpaceOnUse" xlink:href="#linearGradient4008-2"/><linearGradient id="linearGradient3477"><stop style="stop-color:#fff;stop-opacity:.47058824" id="stop3479" offset="0"/><stop style="stop-color:#fff;stop-opacity:.17647059" id="stop3481" offset="1"/></linearGradient><linearGradient id="linearGradient3247" x1="60" x2="60" y1="2" y2="18" gradientUnits="userSpaceOnUse" xlink:href="#linearGradient3477"/><linearGradient id="linearGradient3249" x1="61" x2="61" y1="18" y2="2" gradientUnits="userSpaceOnUse" xlink:href="#linearGradient3477"/><linearGradient id="linearGradient3251" x1="53" x2="53" y1="18" y2="2" gradientUnits="userSpaceOnUse" xlink:href="#linearGradient3477"/><linearGradient id="linearGradient3253" x1="53" x2="53" y1="2" y2="18" gradientUnits="userSpaceOnUse" xlink:href="#linearGradient3477"/><linearGradient id="linearGradient3255" x1="405" x2="405" y1="584.362" y2="600.362" gradientUnits="userSpaceOnUse" xlink:href="#linearGradient3477"/><linearGradient id="linearGradient3257" x1="395" x2="395" y1="600.362" y2="584.362" gradientUnits="userSpaceOnUse" xlink:href="#linearGradient3477"/><linearGradient id="linearGradient3259" x1="335" x2="415" y1="585.362" y2="585.362" gradientUnits="userSpaceOnUse" xlink:href="#linearGradient3477"/><linearGradient id="linearGradient3261" x1="335" x2="415" y1="582.362" y2="582.362" gradientUnits="userSpaceOnUse" xlink:href="#linearGradient3477"/><linearGradient id="linearGradient3263" x1="61" x2="61" y1="2" y2="18" gradientTransform="translate(345,608.36218)" gradientUnits="userSpaceOnUse" xlink:href="#linearGradient3477"/><linearGradient id="linearGradient4025" x1="61" x2="61" y1="2" y2="18" gradientTransform="translate(345,608.36219)" gradientUnits="userSpaceOnUse" xlink:href="#linearGradient3477"/><linearGradient id="linearGradient4160-3"><stop style="stop-color:#fff;stop-opacity:.17647059" id="stop4162-7" offset="0"/><stop style="stop-color:#000;stop-opacity:.11764706" id="stop4164-9" offset="1"/></linearGradient><linearGradient id="linearGradient3197"><stop style="stop-color:#fff;stop-opacity:.17647059" id="stop3199" offset="0"/><stop style="stop-color:#000;stop-opacity:.11764706" id="stop3201" offset="1"/></linearGradient><linearGradient id="linearGradient3887-7"><stop style="stop-color:#fff;stop-opacity:.39215687" id="stop3889-9" offset="0"/><stop style="stop-color:#fff;stop-opacity:0" id="stop3891-7" offset="1"/></linearGradient><linearGradient id="linearGradient3208"><stop style="stop-color:#fff;stop-opacity:.17647059" id="stop3210" offset="0"/><stop style="stop-color:#000;stop-opacity:.11764706" id="stop3212" offset="1"/></linearGradient><linearGradient id="linearGradient3215"><stop style="stop-color:#fff;stop-opacity:.39215687" id="stop3217" offset="0"/><stop style="stop-color:#fff;stop-opacity:0" id="stop3219" offset="1"/></linearGradient><linearGradient id="linearGradient3222"><stop style="stop-color:#fff;stop-opacity:.17647059" id="stop3224" offset="0"/><stop style="stop-color:#000;stop-opacity:.11764706" id="stop3226" offset="1"/></linearGradient><linearGradient id="linearGradient3229"><stop style="stop-color:#fff;stop-opacity:.17647059" id="stop3231" offset="0"/><stop style="stop-color:#000;stop-opacity:.11764706" id="stop3233" offset="1"/></linearGradient><linearGradient id="linearGradient3236"><stop style="stop-color:#fff;stop-opacity:.39215687" id="stop3238" offset="0"/><stop style="stop-color:#fff;stop-opacity:0" id="stop3240" offset="1"/></linearGradient><linearGradient id="linearGradient3243"><stop style="stop-color:#fff;stop-opacity:.17647059" id="stop3245" offset="0"/><stop style="stop-color:#000;stop-opacity:.11764706" id="stop3247" offset="1"/></linearGradient><linearGradient id="linearGradient3250"><stop style="stop-color:#fff;stop-opacity:.39215687" id="stop3252" offset="0"/><stop style="stop-color:#fff;stop-opacity:0" id="stop3254" offset="1"/></linearGradient><linearGradient id="linearGradient3257-6"><stop style="stop-color:#fff;stop-opacity:.17647059" id="stop3259" offset="0"/><stop style="stop-color:#000;stop-opacity:.11764706" id="stop3261" offset="1"/></linearGradient><linearGradient id="linearGradient3264"><stop style="stop-color:#fff;stop-opacity:.17647059" id="stop3266" offset="0"/><stop style="stop-color:#000;stop-opacity:.11764706" id="stop3268" offset="1"/></linearGradient><linearGradient id="linearGradient3271"><stop style="stop-color:#fff;stop-opacity:.39215687" id="stop3273" offset="0"/><stop style="stop-color:#fff;stop-opacity:0" id="stop3275" offset="1"/></linearGradient><linearGradient id="linearGradient3278"><stop style="stop-color:#fff;stop-opacity:.17647059" id="stop3280" offset="0"/><stop style="stop-color:#000;stop-opacity:.11764706" id="stop3282" offset="1"/></linearGradient><linearGradient id="linearGradient3285"><stop style="stop-color:#fff;stop-opacity:.39215687" id="stop3287" offset="0"/><stop style="stop-color:#fff;stop-opacity:0" id="stop3289" offset="1"/></linearGradient><linearGradient id="linearGradient4080-6"><stop style="stop-color:#fff;stop-opacity:.70588237" id="stop4082-8" offset="0"/><stop style="stop-color:#fff;stop-opacity:.27450982" id="stop4084-6" offset="1"/></linearGradient><linearGradient id="linearGradient3296"><stop style="stop-color:#fff;stop-opacity:.27450982" id="stop3298" offset="0"/><stop style="stop-color:#fff;stop-opacity:.17647059" id="stop3300" offset="1"/></linearGradient><linearGradient id="linearGradient3303"><stop style="stop-color:#fff;stop-opacity:.27450982" id="stop3305" offset="0"/><stop style="stop-color:#fff;stop-opacity:.17647059" id="stop3307" offset="1"/></linearGradient><linearGradient id="linearGradient3310"><stop style="stop-color:#fff;stop-opacity:.27450982" id="stop3312" offset="0"/><stop style="stop-color:#fff;stop-opacity:.17647059" id="stop3314" offset="1"/></linearGradient><linearGradient id="linearGradient3317"><stop style="stop-color:#fff;stop-opacity:.27450982" id="stop3319" offset="0"/><stop style="stop-color:#fff;stop-opacity:.17647059" id="stop3321" offset="1"/></linearGradient><linearGradient id="linearGradient3324"><stop style="stop-color:#fff;stop-opacity:.27450982" id="stop3326" offset="0"/><stop style="stop-color:#fff;stop-opacity:.17647059" id="stop3328" offset="1"/></linearGradient><linearGradient id="linearGradient3331"><stop style="stop-color:#fff;stop-opacity:.27450982" id="stop3333" offset="0"/><stop style="stop-color:#fff;stop-opacity:.17647059" id="stop3335" offset="1"/></linearGradient><linearGradient id="linearGradient3338"><stop style="stop-color:#fff;stop-opacity:.27450982" id="stop3340" offset="0"/><stop style="stop-color:#fff;stop-opacity:.17647059" id="stop3342" offset="1"/></linearGradient><linearGradient id="linearGradient3345"><stop style="stop-color:#fff;stop-opacity:.27450982" id="stop3347" offset="0"/><stop style="stop-color:#fff;stop-opacity:.17647059" id="stop3349" offset="1"/></linearGradient></defs><metadata id="metadata7"/><g id="layer1" transform="translate(-509,-574.36219)"><rect style="fill:#00f;fill-opacity:1;stroke-width:10.9545;stroke-miterlimit:4;stroke-dasharray:none" id="normal-hint-bottom-margin" width="2" height="6" x="374" y="564.362"/><rect id="normal-hint-top-margin" width="2" height="6" x="374" y="545.362" style="fill:#00f;fill-opacity:1;stroke-width:10.9545;stroke-miterlimit:4;stroke-dasharray:none"/><rect style="fill:#00f;fill-opacity:1;stroke-width:10.9545;stroke-miterlimit:4;stroke-dasharray:none" id="normal-hint-right-margin" width="2" height="6" x="558.362" y="-409" transform="rotate(90)"/><rect id="normal-hint-left-margin" width="2" height="6" x="558.362" y="-350" transform="rotate(90)" style="fill:#00f;fill-opacity:1;stroke-width:10.9545;stroke-miterlimit:4;stroke-dasharray:none"/><rect id="pressed-hint-bottom-margin" width="2" height="6" x="374" y="591.362" style="fill:#00f;fill-opacity:1;stroke-width:10.9545;stroke-miterlimit:4;stroke-dasharray:none"/><rect style="fill:#00f;fill-opacity:1;stroke-width:10.9545;stroke-miterlimit:4;stroke-dasharray:none" id="pressed-hint-top-margin" width="2" height="6" x="374" y="572.362"/><rect id="pressed-hint-right-margin" width="2" height="6" x="585.362" y="-409" transform="rotate(90)" style="fill:#00f;fill-opacity:1;stroke-width:10.9545;stroke-miterlimit:4;stroke-dasharray:none"/><rect style="fill:#00f;fill-opacity:1;stroke-width:10.9545;stroke-miterlimit:4;stroke-dasharray:none" id="pressed-hint-left-margin" width="2" height="6" x="585.362" y="-350" transform="rotate(90)"/><rect id="normal-hint-compose-over-border" width="3" height="2.661" x="335" y="556.701" ry="0" style="fill:#00f;fill-opacity:1;fill-rule:nonzero;stroke:none"/><rect style="fill:#00f;fill-opacity:1;fill-rule:nonzero;stroke:none" id="pressed-hint-compose-over-border" width="3" height="2.661" x="335" y="596.701" ry="0"/><rect style="opacity:1;fill:#000;fill-opacity:1;fill-rule:nonzero;stroke:none;stroke-width:6;stroke-linecap:round;stroke-linejoin:round;stroke-miterlimit:4;stroke-dasharray:none;stroke-dashoffset:0;stroke-opacity:1" id="hint-stretch-borders" width="13" height="10" x="444.445" y="629.701" ry="0"/><rect id="focus-hint-top-margin" width="2" height="1" x="788" y="595.362" style="fill:red;fill-opacity:1;fill-rule:nonzero;stroke:none"/><rect style="fill:red;fill-opacity:1;fill-rule:nonzero;stroke:none" id="focus-hint-bottom-margin" width="2" height="1" x="788" y="612.362"/><rect style="fill:red;fill-opacity:1;fill-rule:nonzero;stroke:none" id="focus-hint-left-margin" width="1" height="2" x="778" y="603.362"/><rect id="focus-hint-right-margin" width="1" height="2" x="799" y="603.362" style="fill:red;fill-opacity:1;fill-rule:nonzero;stroke:none"/><rect style="fill:red;fill-opacity:1;fill-rule:nonzero;stroke:none" id="hover-hint-top-margin" width="2" height="1" x="788" y="621.362"/><rect id="hover-hint-bottom-margin" width="2" height="1" x="788" y="638.362" style="fill:red;fill-opacity:1;fill-rule:nonzero;stroke:none"/><rect id="hover-hint-left-margin" width="1" height="2" x="778" y="629.362" style="fill:red;fill-opacity:1;fill-rule:nonzero;stroke:none"/><rect style="fill:red;fill-opacity:1;fill-rule:nonzero;stroke:none" id="hover-hint-right-margin" width="1" height="2" x="799" y="629.362"/><g id="normal-left" transform="matrix(0,1,1,0,-48.64795,285.21927)"><path id="path4720" d="m 296.14285,557.64795 h 11 v 1 h -11 z" style="opacity:1;fill:#16171d;fill-opacity:1;stroke:none"/><path style="opacity:.8;fill:#272835;fill-opacity:.990909;stroke:none" id="path4722" d="m 296.14285,564.64795 h 11 v -6 h -11 z"/></g><g id="normal-right" transform="rotate(90,435.21437,720.43365)"><path style="opacity:1;fill:#16171d;fill-opacity:1;stroke:none" id="path4726" d="m 296.14285,557.64795 h 11 v 1 h -11 z"/><path id="path4728" d="m 296.14285,564.64795 h 11 v -6 h -11 z" style="opacity:.8;fill:#272835;fill-opacity:.990909;stroke:none"/></g><path style="opacity:1;fill:#272834;fill-opacity:1;stroke:none" id="normal-center" d="m 516,581.36213 h 74.99999 v 11.00002 H 516 Z"/><g id="normal-top" transform="matrix(6.8181809,0,0,1.0000016,-1503.1555,16.713292)"><path style="opacity:1;fill:#16171d;fill-opacity:1;stroke:none" id="path4712-3" d="m 296.14285,557.64795 h 11 v 1 h -11 z"/><path id="path4714-1" d="m 296.14285,564.64795 h 11 v -6 h -11 z" style="opacity:.8;fill:#272835;fill-opacity:.990909;stroke:none"/></g><g id="pressed-left" transform="matrix(0,1,1,0,-48.64795,323.21927)"><path id="path4720-1" d="m 296.14285,557.64795 h 11 v 1 h -11 z" style="opacity:.4;fill:#000;fill-opacity:1;stroke:none"/><path style="opacity:1;fill:#c28ff5;fill-opacity:.0980392;stroke:none" id="path4722-5" d="m 296.14285,564.64795 h 11 v -6 h -11 z"/></g><g id="pressed-right" transform="rotate(90,416.21437,739.43365)"><path style="opacity:.4;fill:#000;fill-opacity:1;stroke:none" id="path4726-4" d="m 296.14285,557.64795 h 11 v 1 h -11 z"/><path id="path4728-7" d="m 296.14285,564.64795 h 11 v -6 h -11 z" style="opacity:1;fill:#c28ff5;fill-opacity:.0980392;stroke:none"/></g><path style="opacity:.6;fill:#bd93f9;fill-opacity:1;stroke:none" id="pressed-center" d="M 516.00001,619.36212 H 591 v 11 h -74.99999 z"/><g id="normal-bottom" transform="translate(0,-5.8146972e-5)"><path id="rect4479" d="m 516,592.36218 h 75 v 6 h -75 z" style="opacity:.8;fill:#272835;fill-opacity:.990909;stroke:none"/><path style="opacity:1;fill:#16171d;fill-opacity:1;stroke:none" id="path4482" d="m 516,599.36219 h 75 v -1.00001 h -75 z"/></g><g id="pressed-top" transform="matrix(6.8181809,0,0,1.0000016,-1503.1555,54.713292)"><path id="path4623" d="m 296.14285,557.64795 h 11 v 1 h -11 z" style="opacity:.4;fill:#000;fill-opacity:1;stroke:none"/><path style="opacity:1;fill:#c28ff5;fill-opacity:.0980392;stroke:none" id="path4625" d="m 296.14285,564.64795 h 11 v -6 h -11 z"/></g><g id="pressed-bottom" transform="matrix(6.8181809,0,0,-1.0000016,-1503.1555,1195.0109)"><path style="opacity:.4;fill:#000;fill-opacity:1;stroke:none" id="path4641" d="m 296.14285,557.64795 h 11 v 1 h -11 z"/><path id="path4643" d="m 296.14285,564.64795 h 11 v -6 h -11 z" style="opacity:1;fill:#c28ff5;fill-opacity:.0980392;stroke:none"/></g><g id="normal-topright"><path style="opacity:1;fill:#16171d;fill-opacity:1;stroke:none" id="path4788" d="m 591,574.36219 v 1 h 4.51562 c 0.82235,0 1.48438,0.68991 1.48438,1.54688 v 4.45312 h 1 v -5 c 0,-1.108 -0.892,-2 -2,-2 z"/><path id="rect4771" d="m 591,575.36219 v 6 h 6 v -5 c 0,-0.554 -0.446,-1 -1,-1 z" style="opacity:.8;fill:#272835;fill-opacity:.990909"/></g><g id="normal-topleft" transform="matrix(-1,0,0,1,1107,1.8530274e-6)"><path id="path4773" d="m 591,574.36219 v 1 h 4.51562 c 0.82235,0 1.48438,0.68991 1.48438,1.54688 v 4.45312 h 1 v -5 c 0,-1.108 -0.892,-2 -2,-2 z" style="opacity:1;fill:#16171d;fill-opacity:1;stroke:none"/><path style="opacity:.8;fill:#272835;fill-opacity:.990909" id="path4775" d="m 591,575.36219 v 6 h 6 v -5 c 0,-0.554 -0.446,-1 -1,-1 z"/></g><g id="normal-bottomleft" transform="matrix(0,1,1,0,-65.36219,1.3621919)"><path style="opacity:1;fill:#16171d;fill-opacity:1;stroke:none" id="path4781" d="m 591,574.36219 v 1 h 4.51562 c 0.82235,0 1.48438,0.68991 1.48438,1.54688 v 4.45312 h 1 v -5 c 0,-1.108 -0.892,-2 -2,-2 z"/><path id="path4783" d="m 591,575.36219 v 6 h 6 v -5 c 0,-0.554 -0.446,-1 -1,-1 z" style="opacity:.8;fill:#272835;fill-opacity:.990909"/></g><g id="normal-bottomright" transform="rotate(90,585.5,586.86219)"><path id="path4789" d="m 591,574.36219 v 1 h 4.51562 c 0.82235,0 1.48438,0.68991 1.48438,1.54688 v 4.45312 h 1 v -5 c 0,-1.108 -0.892,-2 -2,-2 z" style="opacity:1;fill:#16171d;fill-opacity:1;stroke:none"/><path style="opacity:.8;fill:#272835;fill-opacity:.990909" id="path4791" d="m 591,575.36219 v 6 h 6 v -5 c 0,-0.554 -0.446,-1 -1,-1 z"/></g><g id="pressed-topright"><path id="path4799" d="m 82,38 v 1 H 86.515625 87 c 0.554,0 1,0.446 1,1 V 40.546875 45 h 1 v -5 c 0,-1.108 -0.892,-2 -2,-2 z" transform="translate(509,574.36219)" style="opacity:.4;fill:#000;fill-opacity:1;stroke:none"/><path style="fill:#c28ff5;fill-opacity:.0980392" id="path4812" d="m 591,613.36219 v 6 h 6 v -5 c 0,-0.554 -0.446,-1 -1,-1 z"/></g><g id="pressed-topleft" transform="matrix(-1,0,0,1,1107,0)"><path style="opacity:.4;fill:#000;fill-opacity:1;stroke:none" id="path4819" d="m 82,38 v 1 H 86.515625 87 c 0.554,0 1,0.446 1,1 V 40.546875 45 h 1 v -5 c 0,-1.108 -0.892,-2 -2,-2 z" transform="translate(509,574.36219)"/><path id="path4821" d="m 591,613.36219 v 6 h 6 v -5 c 0,-0.554 -0.446,-1 -1,-1 z" style="fill:#c28ff5;fill-opacity:.0980392"/></g><g id="pressed-bottomleft" transform="rotate(-180,553.5,624.86219)"><path id="path4825" d="m 82,38 v 1 H 86.515625 87 c 0.554,0 1,0.446 1,1 V 40.546875 45 h 1 v -5 c 0,-1.108 -0.892,-2 -2,-2 z" transform="translate(509,574.36219)" style="opacity:.4;fill:#000;fill-opacity:1;stroke:none"/><path style="fill:#c28ff5;fill-opacity:.0980392" id="path4827" d="m 591,613.36219 v 6 h 6 v -5 c 0,-0.554 -0.446,-1 -1,-1 z"/></g><g id="pressed-bottomright" transform="matrix(1,0,0,-1,0,1249.7244)"><path style="opacity:.4;fill:#000;fill-opacity:1;stroke:none" id="path4831" d="m 82,38 v 1 H 86.515625 87 c 0.554,0 1,0.446 1,1 V 40.546875 45 h 1 v -5 c 0,-1.108 -0.892,-2 -2,-2 z" transform="translate(509,574.36219)"/><path id="path4833" d="m 591,613.36219 v 6 h 6 v -5 c 0,-0.554 -0.446,-1 -1,-1 z" style="fill:#c28ff5;fill-opacity:.0980392"/></g><rect id="toolbutton-hover-hint-bottom-margin" width="2" height="6" x="374" y="498.362" style="fill:#00f;fill-opacity:1;stroke-width:10.9545;stroke-miterlimit:4;stroke-dasharray:none"/><rect style="fill:#00f;fill-opacity:1;stroke-width:10.9545;stroke-miterlimit:4;stroke-dasharray:none" id="toolbutton-hover-hint-top-margin" width="2" height="6" x="374" y="479.362"/><rect id="toolbutton-hover-hint-right-margin" width="2" height="6" x="492.362" y="-409" transform="rotate(90)" style="fill:#00f;fill-opacity:1;stroke-width:10.9545;stroke-miterlimit:4;stroke-dasharray:none"/><rect style="fill:#00f;fill-opacity:1;stroke-width:10.9545;stroke-miterlimit:4;stroke-dasharray:none" id="toolbutton-hover-hint-left-margin" width="2" height="6" x="492.362" y="-350" transform="rotate(90)"/><rect style="fill:#00f;fill-opacity:1;stroke-width:10.9545;stroke-miterlimit:4;stroke-dasharray:none" id="toolbutton-pressed-hint-bottom-margin" width="2" height="6" x="374" y="525.362"/><rect id="toolbutton-pressed-hint-top-margin" width="2" height="6" x="374" y="506.362" style="fill:#00f;fill-opacity:1;stroke-width:10.9545;stroke-miterlimit:4;stroke-dasharray:none"/><rect style="fill:#00f;fill-opacity:1;stroke-width:10.9545;stroke-miterlimit:4;stroke-dasharray:none" id="toolbutton-pressed-hint-right-margin" width="2" height="6" x="519.362" y="-409" transform="rotate(90)"/><rect id="toolbutton-pressed-hint-left-margin" width="2" height="6" x="519.362" y="-350" transform="rotate(90)" style="fill:#00f;fill-opacity:1;stroke-width:10.9545;stroke-miterlimit:4;stroke-dasharray:none"/><g id="mask-normal-right" transform="rotate(90,385.71431,768.93364)" style="fill:#000"><path id="path1169" d="m 296.14285,556.64795 h 11 v 2 h -11 z" style="opacity:1;fill:#000;fill-opacity:0;stroke:none;stroke-width:1.41421"/><path style="opacity:1;fill:#000;fill-opacity:1;stroke:none" id="path1171" d="m 296.14285,557.64795 h 11 v 1 h -11 z"/><path id="path1173" d="m 296.14285,564.64795 h 11 v -6 h -11 z" style="opacity:1;fill:#000;fill-opacity:1;stroke:none"/></g><path style="opacity:1;fill:#000;fill-opacity:1;stroke:none" id="mask-normal-center" d="M 515.00001,679.36216 H 590 v 11.00002 h -74.99999 z"/><g id="mask-normal-topright" transform="translate(-97,169.99997)" style="fill:#000"><g style="fill:#000;fill-opacity:1" id="g1183" transform="translate(87,-56.999952)"><path style="fill:#000;fill-opacity:0;stroke:none" id="path1181" d="m 600,558.36217 v 1 h 5 c 1.108,0 2,0.892 2,2 v 5 h 1 v -5 c 0,-1.662 -1.33799,-3 -3,-3 z"/></g><g id="g1189" transform="translate(96,-71.999998)" style="fill:#000"><path id="path1185" d="m 591,574.36219 v 1 h 4.51562 c 0.82235,0 1.48438,0.68991 1.48438,1.54688 v 4.45312 h 1 v -5 c 0,-1.108 -0.892,-2 -2,-2 z" style="fill:#000;fill-opacity:1;stroke:none"/><path style="fill:#000;fill-opacity:1" id="path1187" d="m 591,575.36219 v 6 h 6 v -5 c 0,-0.554 -0.446,-1 -1,-1 z"/><path id="path1268" d="m 592,574.36222 v 6 h 6 v -5 c 0,-0.554 -0.446,-1 -1,-1 z" style="fill:#000;fill-opacity:1"/></g></g><g id="mask-normal-left" transform="matrix(0,1,1,0,-49.64795,383.21931)" style="fill:#000"><path style="opacity:1;fill:#000;fill-opacity:0;stroke:none;stroke-width:1.41421" id="path1193" d="m 296.14285,556.64795 h 11 v 2 h -11 z"/><path id="path1195" d="m 296.14285,557.64795 h 11 v 1 h -11 z" style="opacity:1;fill:#000;fill-opacity:1;stroke:none"/><path style="opacity:1;fill:#000;fill-opacity:1;stroke:none" id="path1197" d="m 296.14285,564.64795 h 11 v -6 h -11 z"/></g><g id="mask-normal-topleft" transform="matrix(-1,0,0,1,1202,169.99998)" style="fill:#000"><g id="g1205" transform="translate(87,-56.999952)" style="fill:#000;fill-opacity:1"><path style="fill:#000;fill-opacity:0;stroke:none" id="path1201" d="m 600,559.36214 v 1 l 4,5e-5 c 1.108,10e-6 2,0.892 2,2 v 3.99995 h 1 v -3.99995 c 0,-3.00005 1,-2.99995 -3,-3 z"/><path id="path1203" d="m 600,558.36217 v 1 h 5 c 1.108,0 2,0.892 2,2 v 5 h 1 v -5 c 0,-1.662 -1.33799,-3 -3,-3 z" style="fill:#000;fill-opacity:0;stroke:none"/></g><g id="g1211" transform="translate(96,-71.999998)" style="fill:#000"><path style="fill:#000;fill-opacity:1;stroke:none" id="path1207" d="m 591,574.36219 v 1 h 4.51562 c 0.82235,0 1.48438,0.68991 1.48438,1.54688 v 4.45312 h 1 v -5 c 0,-1.108 -0.892,-2 -2,-2 z"/><path id="path1209" d="m 591,575.36219 v 6 h 6 v -5 c 0,-0.554 -0.446,-1 -1,-1 z" style="fill:#000;fill-opacity:1"/><path style="fill:#000;fill-opacity:1" id="path1266" d="m 592,574.36221 v 6 h 6 v -5 c 0,-0.554 -0.446,-1 -1,-1 z"/></g></g><g id="mask-normal-bottomleft" transform="rotate(-180,601,599.86218)" style="fill:#000"><g style="fill:#000;fill-opacity:1" id="g1219" transform="translate(87,-56.999952)"><path id="path1215" d="m 600,559.36214 v 1 l 4,5e-5 c 1.108,10e-6 2,0.892 2,2 v 3.99995 h 1 v -3.99995 c 0,-3.00005 1,-2.99995 -3,-3 z" style="fill:#000;fill-opacity:0;stroke:none"/><path style="fill:#000;fill-opacity:0;stroke:none" id="path1217" d="m 600,558.36217 v 1 h 5 c 1.108,0 2,0.892 2,2 v 5 h 1 v -5 c 0,-1.662 -1.33799,-3 -3,-3 z"/></g><g id="g1225" transform="translate(96,-71.999998)" style="fill:#000"><path id="path1221" d="m 591,574.36219 v 1 h 4.51562 c 0.82235,0 1.48438,0.68991 1.48438,1.54688 v 4.45312 h 1 v -5 c 0,-1.108 -0.892,-2 -2,-2 z" style="fill:#000;fill-opacity:1;stroke:none"/><path style="fill:#000;fill-opacity:1" id="path1223" d="m 591,575.36219 v 6 h 6 v -5 c 0,-0.554 -0.446,-1 -1,-1 z"/><path id="path1264" d="m 592,574.36217 v 6 h 6 v -5 c 0,-0.554 -0.446,-1 -1,-1 z" style="fill:#000;fill-opacity:1"/></g></g><g id="mask-normal-bottomright" transform="matrix(1,0,0,-1,-97,1199.7244)" style="fill:#000"><g id="g1233" transform="translate(87,-56.999952)" style="fill:#000;fill-opacity:1"><path id="path1231" d="m 600,558.36217 v 1 h 5 c 1.108,0 2,0.892 2,2 v 5 h 1 v -5 c 0,-1.662 -1.33799,-3 -3,-3 z" style="fill:#000;fill-opacity:0;stroke:none"/></g><g id="g1239" transform="translate(96,-71.999998)" style="fill:#000"><path style="fill:#000;fill-opacity:1;stroke:none" id="path1235" d="m 591,574.36219 v 1 h 4.51562 c 0.82235,0 1.48438,0.68991 1.48438,1.54688 v 4.45312 h 1 v -5 c 0,-1.108 -0.892,-2 -2,-2 z"/><path id="path1237" d="m 591,575.36219 v 6 h 6 v -5 c 0,-0.554 -0.446,-1 -1,-1 z" style="fill:#000;fill-opacity:1"/><path style="fill:#000;fill-opacity:1" id="path1270" d="m 592,574.36221 v 6 h 6 v -5 c 0,-0.554 -0.446,-1 -1,-1 z"/></g></g><g id="mask-normal-bottom" transform="matrix(-6.8181827,0,0,-1,2609.1561,1255.0101)" style="fill:#000"><path style="opacity:1;fill:#000;fill-opacity:0;stroke:none;stroke-width:1.41421" id="path1243" d="m 296.14285,556.64795 h 11 v 2 h -11 z"/><path id="path1245" d="m 296.14285,557.64795 h 11 v 1 h -11 z" style="opacity:1;fill:#000;fill-opacity:1;stroke:none"/><path style="opacity:1;fill:#000;fill-opacity:1;stroke:none" id="path1247" d="m 296.14285,564.64795 h 11 v -6 h -11 z"/></g><g id="mask-normal-top" transform="matrix(-6.8181827,0,0,1,2609.1561,114.71422)" style="fill:#000"><path id="path1251" d="m 296.14285,556.64795 h 11 v 2 h -11 z" style="opacity:1;fill:#000;fill-opacity:0;stroke:none;stroke-width:1.41421"/><path style="opacity:1;fill:#000;fill-opacity:1;stroke:none" id="path1253" d="m 296.14285,557.64795 h 11 v 1 h -11 z"/><path id="path1255" d="m 296.14285,564.64795 h 11 v -6 h -11 z" style="opacity:1;fill:#000;fill-opacity:1;stroke:none"/></g><g style="fill:#000" id="mask-pressed-right" transform="rotate(90,365.71431,788.93364)"><path style="opacity:1;fill:#000;fill-opacity:0;stroke:none;stroke-width:1.41421" id="path1259" d="m 296.14285,556.64795 h 11 v 2 h -11 z"/><path id="path1261" d="m 296.14285,557.64795 h 11 v 1 h -11 z" style="opacity:1;fill:#000;fill-opacity:1;stroke:none"/><path style="opacity:1;fill:#000;fill-opacity:1;stroke:none" id="path1263" d="m 296.14285,564.64795 h 11 v -6 h -11 z"/></g><path id="mask-pressed-center" d="M 515.00001,719.36216 H 590 v 11.00002 h -74.99999 z" style="opacity:1;fill:#000;fill-opacity:1;stroke:none"/><g style="fill:#000" id="mask-pressed-topright" transform="translate(-97,209.99997)"><g id="g1271" transform="translate(87,-56.999952)" style="fill:#000;fill-opacity:1"><path id="path1269" d="m 600,558.36217 v 1 h 5 c 1.108,0 2,0.892 2,2 v 5 h 1 v -5 c 0,-1.662 -1.33799,-3 -3,-3 z" style="fill:#000;fill-opacity:0;stroke:none"/></g><g style="fill:#000" id="g1277" transform="translate(96,-71.999998)"><path style="fill:#000;fill-opacity:1;stroke:none" id="path1273" d="m 591,574.36219 v 1 h 4.51562 c 0.82235,0 1.48438,0.68991 1.48438,1.54688 v 4.45312 h 1 v -5 c 0,-1.108 0,-2 -2,-2 z"/><path id="path1275" d="m 591,575.36219 v 6 h 6 v -5 c 0,-0.554 -0.446,-1 -1,-1 z" style="fill:#000;fill-opacity:1"/><path style="fill:#000;fill-opacity:1" id="path1256" d="m 592,574.36222 v 6 h 6 v -5 c 0,-0.554 -0.446,-1 -1,-1 z"/></g></g><g style="fill:#000" id="mask-pressed-left" transform="matrix(0,1,1,0,-49.64795,423.21931)"><path id="path1281" d="m 296.14285,556.64795 h 11 v 2 h -11 z" style="opacity:1;fill:#000;fill-opacity:0;stroke:none;stroke-width:1.41421"/><path style="opacity:1;fill:#000;fill-opacity:1;stroke:none" id="path1283" d="m 296.14285,557.64795 h 11 v 1 h -11 z"/><path id="path1285" d="m 296.14285,564.64795 h 11 v -6 h -11 z" style="opacity:1;fill:#000;fill-opacity:1;stroke:none"/></g><g style="fill:#000" id="mask-pressed-topleft" transform="matrix(-1,0,0,1,1202,209.99998)"><g style="fill:#000;fill-opacity:1" id="g1293" transform="translate(87,-56.999952)"><path id="path1289" d="m 600,559.36214 v 1 l 4,5e-5 c 1.108,10e-6 2,0.892 2,2 v 3.99995 h 1 v -3.99995 c 0,-3.00005 1,-2.99995 -3,-3 z" style="fill:#000;fill-opacity:0;stroke:none"/><path style="fill:#000;fill-opacity:0;stroke:none" id="path1291" d="m 600,558.36217 v 1 h 5 c 1.108,0 2,0.892 2,2 v 5 h 1 v -5 c 0,-1.662 -1.33799,-3 -3,-3 z"/></g><g style="fill:#000" id="g1299" transform="translate(96,-71.999998)"><path id="path1295" d="m 591,574.36219 v 1 h 4.51562 c 0.82235,0 1.48438,0.68991 1.48438,1.54688 v 4.45312 h 1 v -5 c 0,-1.108 -0.892,-2 -2,-2 z" style="fill:#000;fill-opacity:1;stroke:none"/><path style="fill:#000;fill-opacity:1" id="path1297" d="m 591,575.36219 v 6 h 6 v -5 c 0,-0.554 -0.446,-1 -1,-1 z"/><path id="path1262" d="m 592,574.36221 v 6 h 6 v -5 c 0,-0.554 -0.446,-1 -1,-1 z" style="fill:#000;fill-opacity:1"/></g></g><g style="fill:#000" id="mask-pressed-bottomleft" transform="rotate(-180,601,619.86218)"><g id="g1307" transform="translate(87,-56.999952)" style="fill:#000;fill-opacity:1"><path style="fill:#000;fill-opacity:0;stroke:none" id="path1303" d="m 600,559.36214 v 1 l 4,5e-5 c 1.108,10e-6 2,0.892 2,2 v 3.99995 h 1 v -3.99995 c 0,-3.00005 1,-2.99995 -3,-3 z"/><path id="path1305" d="m 600,558.36217 v 1 h 5 c 1.108,0 2,0.892 2,2 v 5 h 1 v -5 c 0,-1.662 -1.33799,-3 -3,-3 z" style="fill:#000;fill-opacity:0;stroke:none"/></g><g style="fill:#000" id="g1313" transform="translate(96,-71.999998)"><path style="fill:#000;fill-opacity:1;stroke:none" id="path1309" d="m 591,574.36219 v 1 h 4.51562 c 0.82235,0 1.48438,0.68991 1.48438,1.54688 v 4.45312 h 1 v -5 c 0,-1.108 -0.892,-2 -2,-2 z"/><path id="path1311" d="m 591,575.36219 v 6 h 6 v -5 c 0,-0.554 -0.446,-1 -1,-1 z" style="fill:#000;fill-opacity:1"/><path style="fill:#000;fill-opacity:1" id="path1260" d="m 592,574.36217 v 6 h 6 v -5 c 0,-0.554 -0.446,-1 -1,-1 z"/></g></g><g style="fill:#000" id="mask-pressed-bottomright" transform="matrix(1,0,0,-1,-97,1239.7244)"><g style="fill:#000;fill-opacity:1" id="g1319" transform="translate(87,-56.999952)"><path style="fill:#000;fill-opacity:0;stroke:none" id="path1317" d="m 600,558.36217 v 1 h 5 c 1.108,0 2,0.892 2,2 v 5 h 1 v -5 c 0,-1.662 -1.33799,-3 -3,-3 z"/></g><g style="fill:#000" id="g1325" transform="translate(96,-71.999998)"><path id="path1321" d="m 591,574.36219 v 1 h 4.51562 c 0.82235,0 1.48438,0.68991 1.48438,1.54688 v 4.45312 h 1 v -5 c 0,-1.108 -0.892,-2 -2,-2 z" style="fill:#000;fill-opacity:1;stroke:none"/><path style="fill:#000;fill-opacity:1" id="path1323" d="m 591,575.36219 v 6 h 6 v -5 c 0,-0.554 -0.446,-1 -1,-1 z"/><path id="path1258" d="m 592,574.36221 v 6 h 6 v -5 c 0,-0.554 -0.446,-1 -1,-1 z" style="fill:#000;fill-opacity:1"/></g></g><g style="fill:#000" id="mask-pressed-bottom" transform="matrix(-6.8181827,0,0,-1,2609.1561,1295.0101)"><path id="path1329" d="m 296.14285,556.64795 h 11 v 2 h -11 z" style="opacity:1;fill:#000;fill-opacity:0;stroke:none;stroke-width:1.41421"/><path style="opacity:1;fill:#000;fill-opacity:1;stroke:none" id="path1331" d="m 296.14285,557.64795 h 11 v 1 h -11 z"/><path id="path1333" d="m 296.14285,564.64795 h 11 v -6 h -11 z" style="opacity:1;fill:#000;fill-opacity:1;stroke:none"/></g><g style="fill:#000" id="mask-pressed-top" transform="matrix(-6.8181827,0,0,1,2609.1561,154.71422)"><path style="opacity:1;fill:#000;fill-opacity:0;stroke:none;stroke-width:1.41421" id="path1337" d="m 296.14285,556.64795 h 11 v 2 h -11 z"/><path id="path1339" d="m 296.14285,557.64795 h 11 v 1 h -11 z" style="opacity:1;fill:#000;fill-opacity:1;stroke:none"/><path style="opacity:1;fill:#000;fill-opacity:1;stroke:none" id="path1341" d="m 296.14285,564.64795 h 11 v -6 h -11 z"/></g><g id="toolbutton-hover-bottomleft" transform="matrix(3.7795276,0,0,7.5589457,614,-1705.6446)" style="opacity:.2;fill:#bd93f9;fill-opacity:1"><path style="opacity:1;fill:#bd93f9;fill-opacity:1;stroke:none;stroke-width:2.19091;stroke-opacity:1" id="rect4494" d="m -0.52916664,296.47079 1.0583333,10e-6 v 0.52918 l -1.0583333,-10e-6 z"/></g><g id="toolbutton-hover-topleft" transform="matrix(3.7795276,0,0,-3.0234861,614,1411.3376)" style="opacity:.2;fill:#bd93f9;fill-opacity:1"><path style="opacity:1;fill:#bd93f9;fill-opacity:1;stroke:none;stroke-width:2;stroke-opacity:1" id="path4501" d="m 0.26458334,295.67707 v 1.32291 l 0.26458335,4e-5 -2e-8,-1.32295 z"/><rect style="opacity:1;fill:#bd93f9;fill-opacity:1;stroke:none;stroke-width:3.4641;stroke-opacity:1" id="rect4505" width=".794" height="1.323" x="-.529" y="295.677"/></g><g id="toolbutton-hover-left" transform="matrix(3.7795276,0,0,3.7795276,614,-585.15758)" style="opacity:.2;fill:#bd93f9;fill-opacity:1"><path style="opacity:1;fill:#bd93f9;fill-opacity:1;stroke:none;stroke-width:3.4641;stroke-opacity:1" id="rect4509" d="m -0.52916664,291.70831 h 0.79374999 l -2e-8,4.76248 h -0.79374999 z"/><path style="opacity:1;fill:#bd93f9;fill-opacity:1;stroke:none;stroke-width:3.4641;stroke-opacity:1" id="path4514" d="m 0.26458336,291.7083 0.26458333,2e-5 v 4.76248 l -0.26458333,-2e-5 z"/></g><g id="toolbutton-hover-bottomright" transform="matrix(-3.7795276,0,0,7.5589457,708,-1705.6446)" style="opacity:.2;fill:#bd93f9;fill-opacity:1"><path style="opacity:1;fill:#bd93f9;fill-opacity:1;stroke:none;stroke-width:2.19091;stroke-opacity:1" id="rect4525" d="m -0.5291667,296.47079 1.05833336,10e-6 v 0.52918 l -1.05833336,-10e-6 z"/></g><g id="toolbutton-hover-topright" transform="matrix(-3.7795276,0,0,-3.0234861,708,1411.3374)" style="opacity:.2;fill:#bd93f9;fill-opacity:1"><path id="path4529" d="m 0.26458334,295.67707 v 1.32291 h 0.26458332 v -1.32291 z" style="opacity:1;fill:#bd93f9;fill-opacity:1;stroke:none;stroke-width:2;stroke-opacity:1"/><rect id="rect4533" width=".794" height="1.323" x="-.529" y="295.677" style="opacity:1;fill:#bd93f9;fill-opacity:1;stroke:none;stroke-width:3.4641;stroke-opacity:1"/></g><g id="toolbutton-hover-right" transform="matrix(-3.7795276,0,0,3.7795276,708,-585.15768)" style="opacity:.2;fill:#bd93f9;fill-opacity:1"><path style="opacity:1;fill:#bd93f9;fill-opacity:1;stroke:none;stroke-width:3.4641;stroke-opacity:1" id="rect4537" d="m -0.5291667,291.70831 h 0.79374999 l 4e-8,4.76251 h -0.79374999 z"/><path id="path4541" d="m 0.26458333,291.7083 h 0.26458333 v 4.7625 H 0.26458333 Z" style="opacity:1;fill:#bd93f9;fill-opacity:1;stroke:none;stroke-width:3.4641;stroke-opacity:1"/></g><g id="toolbutton-hover-top" transform="matrix(3.7795276,0,0,3.0234861,611,-364.61402)" style="opacity:.2;fill:#bd93f9;fill-opacity:1"><path style="opacity:1;fill:#bd93f9;fill-opacity:1;stroke:none;stroke-width:4.00002;stroke-opacity:1" id="path4548" d="M 1.3229167,290.38538 H 25.135417 v 1.32293 H 1.3229164 Z"/></g><path style="opacity:.2;fill:#bd93f9;fill-opacity:1;stroke:none;stroke-width:7.55906;stroke-opacity:1" id="toolbutton-hover-center" d="m 616,517.36199 h 90 v 17.99996 l -90,10e-6 z"/><g id="toolbutton-pressed-bottomleft" transform="matrix(3.7795276,0,0,3.7795276,510,-585.15748)" style="opacity:.1;fill:#000;fill-opacity:1"><path style="opacity:1;fill:#000;fill-opacity:1;stroke:none;stroke-width:3.09836;stroke-opacity:1" id="rect4494-7" d="m -0.52916664,296.47079 1.0583333,-1e-5 v 1.05833 h -1.0583333 z"/></g><g id="toolbutton-pressed-topleft" transform="matrix(3.7795276,0,0,-3.0234861,510,1411.3378)" style="opacity:.1;fill:#000;fill-opacity:1"><path style="opacity:1;fill:#000;fill-opacity:1;stroke:none;stroke-width:2;stroke-opacity:1" id="path4501-9" d="m 0.26458334,295.67707 v 1.32291 l 0.26458335,4e-5 -2e-8,-1.32295 z"/><rect style="opacity:1;fill:#000;fill-opacity:1;stroke:none;stroke-width:3.4641;stroke-opacity:1" id="rect4505-3" width=".794" height="1.323" x="-.529" y="295.677"/></g><g id="toolbutton-pressed-left" transform="matrix(3.7795276,0,0,3.7795276,510,-585.15738)" style="opacity:.1;fill:#000;fill-opacity:1"><path style="opacity:1;fill:#000;fill-opacity:1;stroke:none;stroke-width:3.4641;stroke-opacity:1" id="rect4509-0" d="m -0.52916664,291.70831 h 0.79374999 l -2e-8,4.76244 h -0.79374999 z"/><path style="opacity:1;fill:#000;fill-opacity:1;stroke:none;stroke-width:3.4641;stroke-opacity:1" id="path4514-6" d="m 0.26458336,291.7083 0.26458333,2e-5 v 4.76248 l -0.26458333,-2e-5 z"/></g><g id="toolbutton-pressed-bottomright" transform="matrix(-3.7795276,0,0,3.7795276,604,-585.15748)" style="opacity:.1;fill:#000;fill-opacity:1"><path style="opacity:1;fill:#000;fill-opacity:1;stroke:none;stroke-width:3.09836;stroke-opacity:1" id="rect4525-1" d="m -0.5291667,296.47079 1.05833336,-1e-5 v 1.05833 H -0.5291667 Z"/></g><g id="toolbutton-pressed-topright" transform="matrix(-3.7795276,0,0,-3.0234861,604,1411.3376)" style="opacity:.1;fill:#000;fill-opacity:1"><path id="path4529-7" d="m 0.26458334,295.67707 v 1.32291 h 0.26458332 v -1.32291 z" style="opacity:1;fill:#000;fill-opacity:1;stroke:none;stroke-width:2;stroke-opacity:1"/><rect id="rect4533-9" width=".794" height="1.323" x="-.529" y="295.677" style="opacity:1;fill:#000;fill-opacity:1;stroke:none;stroke-width:3.4641;stroke-opacity:1"/></g><g id="toolbutton-pressed-right" transform="matrix(-3.7795276,0,0,3.7795276,604,-585.15748)" style="opacity:.1;fill:#000;fill-opacity:1"><path style="opacity:1;fill:#000;fill-opacity:1;stroke:none;stroke-width:3.4641;stroke-opacity:1" id="rect4537-0" d="m -0.5291667,291.70831 h 0.79374999 l 4e-8,4.76247 h -0.79374999 z"/><path id="path4541-2" d="m 0.26458333,291.7083 h 0.26458333 v 4.7625 H 0.26458333 Z" style="opacity:1;fill:#000;fill-opacity:1;stroke:none;stroke-width:3.4641;stroke-opacity:1"/></g><g id="toolbutton-pressed-top" transform="matrix(3.7795276,0,0,3.0234861,507,-364.61385)" style="opacity:.1;fill:#000;fill-opacity:1"><path style="opacity:1;fill:#000;fill-opacity:1;stroke:none;stroke-width:4.00002;stroke-opacity:1" id="path4548-7" d="M 1.3229167,290.38538 H 25.135417 v 1.32293 H 1.3229164 Z"/></g><g id="toolbutton-pressed-bottom" transform="matrix(3.7795276,0,0,-3.7795276,507,1634.8818)" style="opacity:.1;fill:#000;fill-opacity:1"><path id="path1257" d="m 1.322916,289.85625 h 23.8125 l -1e-6,0.52916 H 1.3229154 Z" style="opacity:1;fill:#000;fill-opacity:1;stroke:none;stroke-width:2;stroke-opacity:1"/><path style="opacity:1;fill:#000;fill-opacity:1;stroke:none;stroke-width:2;stroke-opacity:1" id="path4554-9" d="M 1.3229166,290.38541 H 25.135417 l -1e-6,0.52916 h -23.8125 z"/></g><path style="opacity:.1;fill:#000;fill-opacity:1;stroke:none;stroke-width:7.55906;stroke-opacity:1" id="toolbutton-pressed-center" d="m 512,517.36215 h 90 v 17.99996 l -90,10e-6 z"/><g id="toolbutton-hover-bottom" transform="translate(10.999998,49.999835)" style="opacity:.2;fill:#bd93f9;fill-opacity:1"><g id="g1267" transform="matrix(3.7795276,0,0,-7.5592192,600,2684.4492)" style="fill:#bd93f9;fill-opacity:1"><path style="opacity:1;fill:#bd93f9;fill-opacity:1;stroke:none;stroke-width:2;stroke-opacity:1" id="path1265" d="M 1.3229166,290.38541 H 25.135417 l -1e-6,0.52916 h -23.8125 z"/></g></g></g></svg>