<svg xmlns="http://www.w3.org/2000/svg" xmlns:svg="http://www.w3.org/2000/svg" xmlns:xlink="http://www.w3.org/1999/xlink" id="svg2" width="36" height="16" version="1.0"><defs id="defs4"><linearGradient id="linearGradient3687"><stop style="stop-color:#363636;stop-opacity:1" id="stop3689" offset="0"/><stop style="stop-color:#000;stop-opacity:1" id="stop3691" offset="1"/></linearGradient><radialGradient id="radialGradient3693" cx="7" cy="76.338" r="5.437" fx="7" fy="76.338" gradientTransform="matrix(1.1035001,-3.0897127e-7,2.5747618e-7,0.91958389,-0.72452067,4.8012607)" gradientUnits="userSpaceOnUse" xlink:href="#linearGradient3687"/><radialGradient id="radialGradient3714" cx="7" cy="76.338" r="5.437" fx="7" fy="76.338" gradientTransform="matrix(1.1035001,-3.0897127e-7,2.5747618e-7,0.91958389,-0.72452067,4.8012607)" gradientUnits="userSpaceOnUse" xlink:href="#linearGradient3687"/><radialGradient id="radialGradient3724" cx="8.5" cy="8.625" r="2.5" fx="8.5" fy="8.625" gradientTransform="matrix(1,0,0,0.8,0,1.6)" gradientUnits="userSpaceOnUse" xlink:href="#linearGradient3687"/><radialGradient id="radialGradient3019" cx="7" cy="76.338" r="5.437" fx="7" fy="76.338" gradientTransform="matrix(1.1035001,-3.0897127e-7,2.5747618e-7,0.91958389,-0.72452067,4.8012607)" gradientUnits="userSpaceOnUse" xlink:href="#linearGradient3687"/><radialGradient id="radialGradient3021" cx="8.5" cy="8.625" r="2.5" fx="8.5" fy="8.625" gradientTransform="matrix(1,0,0,0.8,0,1.6)" gradientUnits="userSpaceOnUse" xlink:href="#linearGradient3687"/><linearGradient id="linearGradient3797" x1="11" x2="11" y1="10" y2="6" gradientUnits="userSpaceOnUse" xlink:href="#linearGradient3687"/><linearGradient id="linearGradient3807" x1="11" x2="11" y1="10" y2="6" gradientUnits="userSpaceOnUse" xlink:href="#linearGradient3687"/><linearGradient id="linearGradient3827" x1="13" x2="13" y1="76" y2="68" gradientUnits="userSpaceOnUse" xlink:href="#linearGradient3687"/><linearGradient id="linearGradient3835" x1="13" x2="13" y1="76" y2="68" gradientUnits="userSpaceOnUse" xlink:href="#linearGradient3687"/></defs><metadata id="metadata7"/><g id="layer1" transform="translate(-20,-64)"><g id="radiobutton" transform="translate(-51,1)"><circle id="path4181-6" cx="79" cy="71" r="8" style="fill:#17b58e;fill-opacity:1;stroke:none;stroke-width:1.14286"/><circle style="fill:#323b3f;fill-opacity:1;stroke:none;stroke-width:1.16667" id="circle4183-2" cx="79" cy="71" r="7"/><circle id="circle4185-9" cx="78.856" cy="71.142" r="3.5" style="fill:#17b58e;fill-opacity:1;stroke:none;stroke-width:.875"/></g><g id="checkbox" transform="translate(-291.5,-171)" style="fill:#17b58e;fill-opacity:1"><path style="fill:#323b3f;fill-opacity:1" id="path5" d="m 333.27734,235 c -1.108,0 -2,0.892 -2,2 v 12 c 0,1.108 0.892,2 2,2 h 12 c 1.108,0 2,-0.892 2,-2 v -12 c 0,-1.108 -0.892,-2 -2,-2 z"/><path style="fill:#17b58e;fill-opacity:1;stroke-width:.91334" id="path1264" d="m 343.64646,238.68963 c -0.30804,0.0101 -0.63178,0.14029 -0.87382,0.38223 l -5.24289,5.24294 -1.74764,-1.74758 c -0.48409,-0.48417 -1.23299,-0.51467 -1.69301,-0.0548 l -0.10923,0.10923 c -0.46002,0.45996 -0.42948,1.20881 0.0546,1.69297 l 2.43029,2.40299 c 0.0426,0.0658 0.079,0.10641 0.13654,0.16386 l 0.10922,0.1096 c 0.0437,0.0402 0.0893,0.0776 0.13653,0.10914 0.0116,0.01 0.0154,0.0201 0.0273,0.0274 0.0586,0.0384 0.12888,0.0548 0.19114,0.0813 0.0545,0.0219 0.10678,0.0411 0.16385,0.0539 0.0197,0.011 0.0348,0.0228 0.0546,0.0274 0.15095,0.0283 0.31071,0.0301 0.46421,0 0.0289,-0.0101 0.0535,-0.0201 0.0819,-0.0274 0.20738,-0.0557 0.40765,-0.16194 0.57344,-0.32762 l 0.0546,-0.0548 c 0.0576,-0.0575 0.094,-0.0982 0.13654,-0.16385 l 5.92557,-5.89826 c 0.48408,-0.48398 0.51463,-1.23292 0.0546,-1.69306 l -0.10922,-0.10914 c -0.23002,-0.22998 -0.51117,-0.33556 -0.8192,-0.3278 z"/></g></g></svg>