<svg xmlns="http://www.w3.org/2000/svg" xmlns:svg="http://www.w3.org/2000/svg" xmlns:xlink="http://www.w3.org/1999/xlink" id="svg8" width="43pt" height="43pt" version="1.1" viewBox="0 0 43 43" style="isolation:isolate"><metadata id="metadata14"/><defs id="defs12"><linearGradient id="linearGradient863"><stop style="stop-color:#cfb0fa;stop-opacity:1" id="stop859" offset="0"/><stop style="stop-color:#cfb0fa;stop-opacity:1" id="stop861" offset="1"/></linearGradient><linearGradient id="linearGradient855" x1="1.47" x2="20.718" y1="11.457" y2="11.457" gradientUnits="userSpaceOnUse" xlink:href="#linearGradient863"/><linearGradient id="linearGradient857" x1="16.863" x2="41.53" y1="26.125" y2="26.125" gradientUnits="userSpaceOnUse" xlink:href="#linearGradient863"/></defs><g id="g6"><path style="fill:url(#linearGradient857);fill-opacity:1" id="path2" fill="#cfb0fa" fill-rule="evenodd" d="M 16.863 38.458 L 39.988 38.458 C 39.988 38.458 39.988 33.833 39.988 33.833 C 39.988 30.429 37.226 27.667 33.822 27.667 L 24.572 27.667 C 21.168 27.667 18.405 30.429 18.405 33.833 L 18.405 38.458 C 18.405 38.458 16.863 38.458 16.863 38.458 L 16.863 33.833 C 16.863 29.578 20.317 26.125 24.572 26.125 L 33.822 26.125 C 38.077 26.125 41.53 29.578 41.53 33.833 L 41.53 40 L 16.863 40 L 16.863 38.458 Z M 29.197 12.25 C 32.601 12.25 35.363 15.013 35.363 18.417 C 35.363 21.821 32.601 24.583 29.197 24.583 C 25.793 24.583 23.03 21.821 23.03 18.417 C 23.03 15.013 25.793 12.25 29.197 12.25 Z M 29.197 13.792 C 31.75 13.792 33.822 15.864 33.822 18.417 C 33.822 20.97 31.75 23.042 29.197 23.042 C 26.644 23.042 24.572 20.97 24.572 18.417 C 24.572 15.864 26.644 13.792 29.197 13.792 Z"/><path style="fill:url(#linearGradient855);fill-opacity:1" id="path4" fill="#cfb0fa" fill-rule="evenodd" d="M 17.767 10.685 L 12.262 5.18 L 12.262 3 L 20.718 11.456 L 12.262 19.914 L 12.262 17.732 L 17.767 12.227 L 1.47 12.227 L 1.47 10.685 L 17.767 10.685 Z"/></g></svg>