<svg xmlns="http://www.w3.org/2000/svg" xmlns:svg="http://www.w3.org/2000/svg" id="svg2" width="70" height="64" version="1.0"><metadata id="metadata7"/><defs id="defs5"><style id="current-color-scheme" type="text/css"/><linearGradient id="_lgradient_18" x1="15.236" x2="20.364" y1="46.129" y2="46.129" gradientTransform="scale(2.5639815,0.39001841)" gradientUnits="userSpaceOnUse"><stop style="stop-color:#f2ff89" id="stop66" offset="0%" stop-opacity="1"/><stop style="stop-color:#ffa3a6" id="stop68" offset="100%" stop-opacity="1"/></linearGradient><linearGradient id="_lgradient_19" x1="21.758" x2="26.886" y1="46.129" y2="46.129" gradientTransform="scale(2.5639812,0.39001847)" gradientUnits="userSpaceOnUse"><stop style="stop-color:#f2ff89" id="stop73" offset="0%" stop-opacity="1"/><stop style="stop-color:#ffa3a6" id="stop75" offset="100%" stop-opacity="1"/></linearGradient><linearGradient id="_lgradient_20" x1="34.65" x2="61.144" y1="18.039" y2="18.039" gradientTransform="matrix(1.0911137,0,0,0.85842552,-36.059042,0.41646158)" gradientUnits="userSpaceOnUse"><stop style="stop-color:#f2ff89" id="stop80" offset="0%" stop-opacity="1"/><stop style="stop-color:#ffa3a6" id="stop82" offset="100%" stop-opacity="1"/></linearGradient><linearGradient id="_lgradient_26" x1="94" x2="98" y1="14.5" y2="14.5" gradientTransform="scale(0.5,2)" gradientUnits="userSpaceOnUse"><stop style="stop-color:#f2ff89" id="stop66-3" offset="0%" stop-opacity="1"/><stop style="stop-color:#ffa3a6" id="stop68-6" offset="100%" stop-opacity="1"/></linearGradient><linearGradient id="_lgradient_27" x1="112" x2="116" y1="14.5" y2="14.5" gradientTransform="scale(0.5,2)" gradientUnits="userSpaceOnUse"><stop style="stop-color:#f2ff89" id="stop73-7" offset="0%" stop-opacity="1"/><stop style="stop-color:#ffa3a6" id="stop75-5" offset="100%" stop-opacity="1"/></linearGradient><linearGradient id="_lgradient_28" x1="13.282" x2="19.606" y1="101.193" y2="101.193" gradientTransform="scale(3.1622777,0.31622777)" gradientUnits="userSpaceOnUse"><stop style="stop-color:#f2ff89" id="stop80-3" offset="0%" stop-opacity="1"/><stop style="stop-color:#ffa3a6" id="stop82-5" offset="100%" stop-opacity="1"/></linearGradient><linearGradient id="_lgradient_29" x1="0" x2="1" y1=".5" y2=".5" gradientTransform="matrix(28.457261,0,0,18.413521,2.2148525,3.4430141)" gradientUnits="userSpaceOnUse"><stop style="stop-color:#f2ff89" id="stop87" offset="0%" stop-opacity="1"/><stop style="stop-color:#ffa3a6" id="stop89" offset="100%" stop-opacity="1"/></linearGradient><linearGradient id="_lgradient_29-6" x1="0" x2="1" y1=".5" y2=".5" gradientTransform="matrix(18.000001,0,0,11.647059,1.9326861,3.6116283)" gradientUnits="userSpaceOnUse"><stop style="stop-color:#f2ff89" id="stop87-2" offset="0%" stop-opacity="1"/><stop style="stop-color:#ffa3a6" id="stop89-9" offset="100%" stop-opacity="1"/></linearGradient><linearGradient id="_lgradient_29-6-2" x1="0" x2="1" y1=".5" y2=".5" gradientTransform="matrix(14.000001,0,0,9.0588237,0.96864537,2.5665613)" gradientUnits="userSpaceOnUse"><stop style="stop-color:#f2ff89" id="stop87-2-8" offset="0%" stop-opacity="1"/><stop style="stop-color:#ffa3a6" id="stop89-9-9" offset="100%" stop-opacity="1"/></linearGradient></defs><g style="clip-rule:evenodd;fill-rule:evenodd;stroke-linejoin:round;stroke-miterlimit:1.41421" id="computer-laptop" transform="translate(38)"><rect id="rect817-6" width="32" height="32" x="0" y="0" style="fill:#fff;fill-opacity:0"/><line id="line71" x1="12.259" x2="12.259" y1="21.857" y2="26.878" stroke-miterlimit="3" style="isolation:isolate;vector-effect:non-scaling-stroke;fill:#cfb0fa;fill-opacity:1;stroke:#f1fa8c;stroke-width:1.67396;stroke-linecap:square;stroke-linejoin:miter;stroke-miterlimit:3;stroke-opacity:1"/><line id="line78" x1="19.791" x2="19.791" y1="21.857" y2="26.878" stroke-miterlimit="3" style="isolation:isolate;vector-effect:non-scaling-stroke;fill:#cfb0fa;fill-opacity:1;stroke:#f1fa8c;stroke-width:1.67396;stroke-linecap:square;stroke-linejoin:miter;stroke-miterlimit:3;stroke-opacity:1"/><line id="line85" x1="8.074" x2="23.139" y1="26.878" y2="26.878" stroke-miterlimit="3" style="isolation:isolate;vector-effect:non-scaling-stroke;fill:#cfb0fa;fill-opacity:1;stroke:#f1fa8c;stroke-width:1.67396;stroke-linecap:square;stroke-linejoin:miter;stroke-miterlimit:3;stroke-opacity:1"/><path id="path92" d="m 28.998155,12.834666 h 1.673958 v 0 6.510934 c 0,1.386036 -1.124899,2.510935 -2.510936,2.510935 H 3.8888093 c -0.9240239,0 -1.6739565,-0.749933 -1.6739565,-1.673957 V 5.1169704 c 0,-0.924024 0.7499326,-1.6739564 1.6739565,-1.6739564 H 28.998155 c 0.924024,0 1.673958,0.7499324 1.673958,1.6739564 v 7.7176956 h -1.673958 v 0 -7.7176956 H 3.8888093 V 20.182578 H 28.998155 Z" style="isolation:isolate;fill:#f1fa8c;fill-opacity:1;stroke-width:.836978"/></g><g style="clip-rule:evenodd;fill-rule:evenodd;stroke-linejoin:round;stroke-miterlimit:1.41421" id="22-22-computer-laptop" transform="translate(16,6.999977)"><rect id="rect817-2" width="22" height="22" x="0" y="0" style="fill:#1ccfff;fill-opacity:0;stroke-width:.997942"/><line id="line71-1" x1="8.286" x2="8.286" y1="15.259" y2="18.435" stroke-miterlimit="3" style="clip-rule:evenodd;isolation:isolate;vector-effect:non-scaling-stroke;fill-rule:evenodd;stroke:#f1fa8c;stroke-width:1.05882;stroke-linecap:square;stroke-linejoin:miter;stroke-miterlimit:3;stroke-opacity:1"/><line id="line78-2" x1="13.05" x2="13.05" y1="15.259" y2="18.435" stroke-miterlimit="3" style="clip-rule:evenodd;isolation:isolate;vector-effect:non-scaling-stroke;fill-rule:evenodd;stroke:#f1fa8c;stroke-width:1.05882;stroke-linecap:square;stroke-linejoin:miter;stroke-miterlimit:3;stroke-opacity:1"/><line id="line85-7" x1="5.639" x2="15.168" y1="18.435" y2="18.435" stroke-miterlimit="3" style="clip-rule:evenodd;isolation:isolate;vector-effect:non-scaling-stroke;fill-rule:evenodd;stroke:#f1fa8c;stroke-width:1.05882;stroke-linecap:square;stroke-linejoin:miter;stroke-miterlimit:3;stroke-opacity:1"/><path id="path92-0" d="m 18.873861,12.082218 v 0 c 0,-0.292235 0.237178,-0.529412 0.529413,-0.529412 v 0 c 0.292235,0 0.529412,0.237177 0.529412,0.529412 v 0 1.588235 c 0,0.876706 -0.71153,1.588235 -1.588236,1.588235 H 2.9915091 c -0.58447,0 -1.058823,-0.474353 -1.058823,-1.058824 V 4.6704523 c 0,-0.584471 0.474353,-1.058824 1.058823,-1.058824 H 18.873861 c 0.584471,0 1.058825,0.474353 1.058825,1.058824 v 4.7647062 0 c 0,0.292235 -0.237177,0.529412 -0.529412,0.529412 v 0 c -0.292235,0 -0.529413,-0.237177 -0.529413,-0.529412 v 0 -4.7647062 H 2.9915091 V 14.199864 H 18.873861 Z" style="clip-rule:evenodd;isolation:isolate;fill:#f1fa8c;fill-opacity:1;fill-rule:evenodd;stroke-width:.529412;stroke-linejoin:round;stroke-miterlimit:1.41421"/></g><g style="clip-rule:evenodd;fill-rule:evenodd;stroke-linejoin:round;stroke-miterlimit:1.41421" id="16-16-computer-laptop" transform="translate(0,12.999977)"><rect id="rect817-1" width="16" height="16" x="0" y="0" style="fill:#242521;fill-opacity:0;stroke-width:.997781"/><line id="line71-1-7" x1="5.91" x2="5.91" y1="11.625" y2="14.096" stroke-miterlimit="3" style="clip-rule:evenodd;isolation:isolate;vector-effect:non-scaling-stroke;fill-rule:evenodd;stroke:#f1fa8c;stroke-width:.823529;stroke-linecap:square;stroke-linejoin:miter;stroke-miterlimit:3;stroke-opacity:1"/><line id="line78-2-3" x1="9.616" x2="9.616" y1="11.625" y2="14.096" stroke-miterlimit="3" style="clip-rule:evenodd;isolation:isolate;vector-effect:non-scaling-stroke;fill-rule:evenodd;stroke:#f1fa8c;stroke-width:.823529;stroke-linecap:square;stroke-linejoin:miter;stroke-miterlimit:3;stroke-opacity:1"/><line id="line85-7-6" x1="3.851" x2="11.263" y1="14.096" y2="14.096" stroke-miterlimit="3" style="clip-rule:evenodd;isolation:isolate;vector-effect:non-scaling-stroke;fill-rule:evenodd;stroke:#f1fa8c;stroke-width:.823529;stroke-linecap:square;stroke-linejoin:miter;stroke-miterlimit:3;stroke-opacity:1"/><path id="path92-0-1" d="m 14.145114,9.1547974 v 0 c 0,-0.227294 0.184472,-0.411765 0.411766,-0.411765 v 0 c 0.227294,0 0.411765,0.184471 0.411765,0.411765 v 0 1.2352946 c 0,0.681882 -0.553412,1.235294 -1.235295,1.235294 H 1.7921744 c -0.454588,0 -0.82352903,-0.368942 -0.82352903,-0.82353 V 3.3900911 c 0,-0.4545886 0.36894103,-0.8235298 0.82352903,-0.8235298 H 14.145114 c 0.454589,0 0.823531,0.3689412 0.823531,0.8235298 v 3.7058823 0 c 0,0.227294 -0.184471,0.411765 -0.411765,0.411765 v 0 c -0.227294,0 -0.411766,-0.184471 -0.411766,-0.411765 v 0 -3.7058823 H 1.7921744 V 10.801856 H 14.145114 Z" style="clip-rule:evenodd;isolation:isolate;fill:#f1fa8c;fill-opacity:1;fill-rule:evenodd;stroke-width:.411765;stroke-linejoin:round;stroke-miterlimit:1.41421"/></g><g id="22-22-computer" transform="translate(0,1.1e-5)"><path id="rect858" d="m 18,44 v 11 1 3 h 6 v 2 h -2 v 1 h 10 v -1 h -2 v -2 h 6 V 56 55 44 Z m 1,1 H 35 V 55 H 19 Z m 0,11 h 16 v 2 H 19 Z m 6,3 h 4 v 2 h -4 z" style="opacity:1;fill:#f1fa8c;fill-opacity:1;stroke-width:1.00157;stroke-miterlimit:4;stroke-dasharray:none"/><rect id="rect876" width="22" height="22" x="16" y="42" style="opacity:1;fill:red;fill-opacity:0;stroke-width:1.00157;stroke-miterlimit:4;stroke-dasharray:none"/></g><g id="16-16-computer" transform="translate(0,1.1e-5)"><path id="rect888" d="m 1,48 v 9 1 2 h 5 v 1 H 5 v 1 h 6 v -1 h -1 v -1 h 5 v -2 -1 -9 z m 1,1 h 12 v 8 H 2 Z m 0,9 h 12 v 1 H 10 9 7 6 2 Z m 5,2 h 2 v 1 H 7 Z" style="opacity:1;fill:#f1fa8c;fill-opacity:1;stroke-width:1.00157;stroke-miterlimit:4;stroke-dasharray:none"/><rect id="rect902" width="16" height="16" x="0" y="47" style="opacity:1;fill:#1f0;fill-opacity:0;stroke-width:1.00157;stroke-miterlimit:4;stroke-dasharray:none"/></g><g id="computer" transform="translate(19,16.000008)"><path style="opacity:1;fill:#f1fa8c;fill-opacity:1;stroke-width:1.00157;stroke-miterlimit:4;stroke-dasharray:none" id="rect825" d="m 22,19.000008 v 2 1 15 1 3 h 10 v 3 h -3 v 1 h 3 1 4 1 3 v -1 h -3 v -3 h 10 v -3 -1 -15 -1 -2 z m 1,1 h 24 v 17 H 23 Z m 0,18 h 24 v 2 h -9 -1 -4 -1 -9 z m 10,3 h 4 v 3 h -4 z"/><rect id="rect852" width="32" height="32" x="19" y="16" style="fill:#fff;fill-opacity:0;stroke-width:.665962;stroke-linecap:butt;stroke-linejoin:miter;paint-order:markers stroke fill"/></g></svg>