<svg xmlns="http://www.w3.org/2000/svg" xmlns:svg="http://www.w3.org/2000/svg" id="svg2" width="12" height="13" version="1.1"><metadata id="metadata7"/><g id="layer1" transform="translate(-671.14288,-651.57648)"><g id="g4090" transform="matrix(0.1265625,0,0,-0.1265625,672.07092,663.09636)"><g id="g4092" transform="scale(0.1,0.1)"><g id="g4195" transform="matrix(9.9999999,0,0,9.9999999,3.1284009,-0.36309974)"><g id="g4197" transform="scale(0.1,0.1)"><path id="path4199" d="m 401.01486,-37.584555 c 236.063,0 427.43,191.363695 427.43,427.429695 0,236.059 -191.367,427.426 -427.43,427.426 -236.062,0 -427.429467,-191.367 -427.429467,-427.426 0,-236.066 191.367467,-427.429695 427.429467,-427.429695" style="fill:#5b5c63;fill-opacity:1;fill-rule:evenodd;stroke:none"/><path id="path4201" d="m 401.01486,-1.2329648 c 215.985,0 391.078,175.0901048 391.078,391.0781048 0,215.98 -175.093,391.074 -391.078,391.074 -215.984,0 -391.0778972,-175.094 -391.0778972,-391.074 0,-215.988 175.0938972,-391.0781048 391.0778972,-391.0781048" style="fill:#5b5c63;fill-opacity:1;fill-rule:evenodd;stroke:none"/></g></g></g></g></g></svg>