<svg xmlns="http://www.w3.org/2000/svg" xmlns:svg="http://www.w3.org/2000/svg" id="svg2" width="16" height="16" version="1.1"><metadata id="metadata7"/><g id="layer1" transform="translate(-671.14288,-648.57648)"><g id="g4090" transform="matrix(0.1265625,0,0,-0.1265625,672.07092,663.09636)"><g id="g4092" transform="scale(0.1,0.1)"><path id="path4094" d="m 558.77702,-37.935253 c 305.45606,0 553.08158,247.625863 553.08158,553.085803 0,305.46124 -247.62552,553.08675 -553.08158,553.08675 -305.46512,0 -553.0913044,-247.62551 -553.0913044,-553.08675 0,-305.45994 247.6261844,-553.085803 553.0913044,-553.085803" style="fill:#f55;fill-opacity:1;fill-rule:evenodd;stroke:none"/><path id="path4096" d="m 558.77747,1.5676633 c 283.63699,0 513.57493,229.9429467 513.57493,513.5851867 0,283.64355 -229.93794,513.58155 -513.57493,513.58155 -283.64749,0 -513.585581,-229.938 -513.585581,-513.58155 0,-283.64224 229.938091,-513.5851867 513.585581,-513.5851867" style="fill:#f55;fill-opacity:1;fill-rule:evenodd;stroke:none"/></g></g></g></svg>