<svg xmlns="http://www.w3.org/2000/svg" xmlns:svg="http://www.w3.org/2000/svg" id="svg2" width="16" height="16" version="1.1"><metadata id="metadata7"/><g id="layer1" transform="translate(-671.14288,-648.57648)"><g id="g4090" transform="matrix(0.1265625,0,0,-0.1265625,672.07092,663.09636)"><g id="g4092" transform="scale(0.1,0.1)"><path id="path4094" d="m 558.77708,-37.935271 c 305.45607,0 553.08142,247.625871 553.08142,553.085831 0,305.46125 -247.62535,553.08674 -553.08142,553.08674 -305.46513,0 -553.0913269,-247.62549 -553.0913269,-553.08674 0,-305.45996 247.6261969,-553.085831 553.0913269,-553.085831" style="fill:#d52735;fill-opacity:1;fill-rule:evenodd;stroke:none"/><g id="g4144" transform="matrix(1.0680345,0,0,1.0680345,0.41786301,-41.900484)"><path style="fill:#f55;fill-opacity:1;fill-rule:evenodd;stroke:none" id="path4096" d="m 522.79173,40.6992 c 265.56911,0 480.85987,215.29542 480.85987,480.86946 0,265.57526 -215.29076,480.86604 -480.85987,480.86604 -265.57896,0 -480.86983,-215.29078 -480.86983,-480.86604 0,-265.57404 215.29087,-480.86946 480.86983,-480.86946"/><path id="path4098" d="m 306.28404,782.14979 c -11.06764,0 -22.15209,-4.31529 -30.55026,-12.71345 l -0.75901,-0.75902 c -16.79758,-16.79634 -16.79758,-44.30417 0,-61.10052 L 460.93287,521.6187 274.97477,335.47086 c -16.79266,-16.79145 -16.79266,-44.11445 0,-60.91075 l 0.75901,-0.94881 c 16.79142,-16.7963 44.30418,-16.7963 61.10051,0 L 522.7924,459.56941 708.7505,273.6113 c 16.79265,-16.7963 44.30417,-16.7963 61.10052,0 l 0.75901,0.94881 c 16.79142,16.79144 16.79142,44.1193 0,60.91075 l -185.9581,186.14784 185.9581,185.9581 c 16.79142,16.79635 16.79635,44.3091 0,61.10052 l -0.75901,0.75902 c -16.80126,16.79142 -44.30787,16.79142 -61.10052,0 L 522.7924,583.47823 336.83429,769.43634 c -8.39817,8.39816 -19.48262,12.71345 -30.55025,12.71345 z" style="fill:#220609;fill-opacity:1;fill-rule:evenodd;stroke:none"/></g></g></g></g></svg>