<svg xmlns="http://www.w3.org/2000/svg" xmlns:svg="http://www.w3.org/2000/svg" id="svg2" width="12" height="13" version="1.1"><metadata id="metadata7"/><g id="layer1" transform="translate(-671.14288,-651.57648)"><g id="g4090" transform="matrix(0.1265625,0,0,-0.1265625,672.07092,663.09636)"><g id="g4092" transform="scale(0.1,0.1)"><g id="g4285" transform="matrix(9.9999999,0,0,9.9999999,-4.0034923,0.11816995)"><g id="g4287" transform="scale(0.1,0.1)"><g id="g4371" transform="matrix(9.9999999,0,0,9.9999999,0.45158899,-5.5533388)"><g id="g4373" transform="scale(0.1,0.1)"><path id="path4375" d="M 437.004,9.64453 C 673.063,9.64453 864.43,201.012 864.43,437.07 864.43,673.133 673.063,864.5 437.004,864.5 200.938,864.5 9.57031,673.133 9.57031,437.07 9.57031,201.012 200.938,9.64453 437.004,9.64453" style="fill:#13c11e;fill-opacity:1;fill-rule:evenodd;stroke:none"/><path id="path4377" d="m 437.004,45.9961 c 215.984,0 391.074,175.0939 391.074,391.0739 0,215.989 -175.09,391.078 -391.074,391.078 C 221.016,828.148 45.9258,653.059 45.9258,437.07 45.9258,221.09 221.016,45.9961 437.004,45.9961" style="fill:#13c11e;fill-opacity:1;fill-rule:evenodd;stroke:none"/><path id="path4379" d="m 321.367,655.176 267.199,0 c 35.579,0 64.692,-29.11 64.692,-64.692 l 0,-267.195 -331.891,331.887 z m 232.324,-436.207 -268.253,0 c -35.583,0 -64.692,29.109 -64.692,64.691 l 0,268.254 332.945,-332.945" style="fill:#0b7407;fill-opacity:1;fill-rule:evenodd;stroke:none"/></g></g></g></g></g></g></g></svg>