<svg xmlns="http://www.w3.org/2000/svg" xmlns:svg="http://www.w3.org/2000/svg" id="svg2" width="12" height="13" version="1.1"><metadata id="metadata7"/><g id="layer1" transform="translate(-671.14288,-651.57648)"><g id="g4090" transform="matrix(0.1265625,0,0,-0.1265625,672.07092,663.09636)"><g id="g4092" transform="scale(0.1,0.1)"><g id="g4195" transform="matrix(9.9999999,0,0,9.9999999,3.1284009,-0.36309974)"><g id="g4197" transform="scale(0.1,0.1)"><path id="path4199" d="m 430.199,4.57031 c 236.063,0 427.43,191.36369 427.43,427.42969 0,236.059 -191.367,427.426 -427.43,427.426 C 194.137,859.426 2.76953,668.059 2.76953,432 2.76953,195.934 194.137,4.57031 430.199,4.57031" style="fill:#b4b4b4;fill-opacity:1;fill-rule:evenodd;stroke:none"/><path id="path4201" d="m 430.199,40.9219 c 215.985,0 391.078,175.0901 391.078,391.0781 0,215.98 -175.093,391.074 -391.078,391.074 C 214.215,823.074 39.1211,647.98 39.1211,432 39.1211,216.012 214.215,40.9219 430.199,40.9219" style="fill:#d4d4d4;fill-opacity:1;fill-rule:evenodd;stroke:none"/></g></g></g></g></g></svg>