<svg xmlns="http://www.w3.org/2000/svg" xmlns:svg="http://www.w3.org/2000/svg" id="svg2" width="16" height="16" version="1.1"><metadata id="metadata7"/><g id="layer1" transform="translate(-671.14288,-648.57648)"><g id="g4090" transform="matrix(0.1265625,0,0,-0.1265625,672.07092,663.09636)"><g id="g4092" transform="scale(0.1,0.1)"><path id="path4289" d="m 558.7771,-37.935173 c 305.45604,0 553.0815,247.625853 553.0815,553.085763 0,305.46122 -247.62546,553.08661 -553.0815,553.08661 -305.46509,0 -553.091393,-247.62539 -553.091393,-553.08661 0,-305.45991 247.626303,-553.085763 553.091393,-553.085763" style="fill:#13c11e;fill-opacity:1;fill-rule:evenodd;stroke:none"/><g id="g4147" transform="matrix(1.3132489,0,0,1.3132489,-9.8625362,-52.033006)"><path style="fill:#50fa7b;fill-opacity:1;fill-rule:evenodd;stroke:none" id="path4291" d="m 433.00051,40.81737 c 215.984,0 391.074,175.0938 391.074,391.0778 0,215.985 -175.09,391.075 -391.074,391.075 -215.988,0 -391.078202,-175.09 -391.078202,-391.075 0,-215.984 175.090202,-391.0778 391.078202,-391.0778"/><path style="fill:#032702;fill-opacity:1;fill-rule:evenodd;stroke:none" id="path4293" d="m 317.36351,650.00117 267.199,0 c 35.579,0 64.692,-29.113 64.692,-64.695 l 0,-267.196 -331.891,331.891 z m 232.324,-436.211 -268.253,0 c -35.583,0 -64.692,29.109 -64.692,64.691 l 0,268.254 332.945,-332.945"/></g></g></g></g></svg>