<svg xmlns="http://www.w3.org/2000/svg" xmlns:svg="http://www.w3.org/2000/svg" id="svg2" width="16" height="16" version="1.1"><metadata id="metadata7"/><g id="layer1" transform="translate(-671.14288,-648.57648)"><g id="g4090" transform="matrix(0.1265625,0,0,-0.1265625,672.07092,663.09636)"><g id="g4092" transform="scale(0.1,0.1)"><g id="g4285" transform="matrix(9.9999999,0,0,9.9999999,-4.0034923,0.11816995)"><g id="g4287" transform="scale(0.1,0.1)"><path id="path4289" d="m 562.7806,-38.053372 c 305.45604,0 553.0815,247.625852 553.0815,553.085772 0,305.46122 -247.62546,553.0867 -553.0815,553.0867 -305.4651,0 -553.0913989,-247.62548 -553.0913989,-553.0867 0,-305.45992 247.6262989,-553.085772 553.0913989,-553.085772" style="fill:#50fa7b;fill-opacity:1;fill-rule:evenodd;stroke:none"/><path id="path4291" d="m 562.77841,1.4521975 c 283.64075,0 513.57749,229.9417425 513.57749,513.5824825 0,283.64206 -229.93674,513.57882 -513.57749,513.57882 -283.646,0 -513.583014,-229.93676 -513.583014,-513.57882 0,-283.64074 229.937014,-513.5824825 513.583014,-513.5824825" style="fill:#50fa7b;fill-opacity:1;fill-rule:evenodd;stroke:none"/></g></g></g></g></g></svg>