<svg xmlns="http://www.w3.org/2000/svg" xmlns:svg="http://www.w3.org/2000/svg" id="svg2" width="16" height="16" version="1.1"><metadata id="metadata7"/><g id="layer1" transform="translate(-671.14288,-648.57648)"><g id="g4090" transform="matrix(0.1265625,0,0,-0.1265625,672.07092,663.09636)"><g id="g4092" transform="scale(0.1,0.1)"><g id="g4285" transform="matrix(9.9999999,0,0,9.9999999,-4.0034923,0.11816995)"><g id="g4287" transform="scale(0.1,0.1)"><g id="g4413" transform="matrix(10,0,0,10,4.1388913,2.0175489)"><g id="g4415" transform="scale(0.1,0.1)"><path id="path4417" d="m 558.63645,-40.071141 c 305.46261,0 553.08915,247.626261 553.08915,553.088871 0,305.45744 -247.62654,553.08397 -553.08915,553.08397 -305.46132,0 -553.0885503,-247.62653 -553.0885503,-553.08397 0,-305.46261 247.6272303,-553.088871 553.0885503,-553.088871" style="fill:#f1fa8c;fill-opacity:1;fill-rule:evenodd;stroke:none"/><path id="path4419" d="m 558.63936,-0.56504285 c 283.64212,0 513.57764,229.93706285 513.57764,513.58312285 0,283.64081 -229.93552,513.57752 -513.57764,513.57752 -283.64081,0 -513.582854,-229.93671 -513.582854,-513.57752 0,-283.64606 229.942044,-513.58312285 513.582854,-513.58312285" style="fill:#f1fa8c;fill-opacity:1;fill-rule:evenodd;stroke:none"/></g></g></g></g></g></g></g></svg>