<svg xmlns="http://www.w3.org/2000/svg" xmlns:svg="http://www.w3.org/2000/svg" id="svg2" width="16" height="16" version="1.1"><metadata id="metadata7"/><g id="layer1" transform="translate(-671.14288,-648.57648)"><g id="g4090" transform="matrix(0.1265625,0,0,-0.1265625,672.07092,663.09636)"><g id="g4092" transform="scale(0.1,0.1)"><g id="g4285" transform="matrix(9.9999999,0,0,9.9999999,-4.0034923,0.11816995)"><path style="fill:#da9e10;fill-opacity:1;fill-rule:evenodd;stroke:none" id="path4417" d="m 56.277533,-3.8051186 c 30.546127,0 55.308677,24.7625166 55.308677,55.3086436 0,30.54561 -24.76255,55.308165 -55.308677,55.308165 -30.545998,0 -55.30861206,-24.762555 -55.30861206,-55.308165 0,-30.546127 24.76261406,-55.3086436 55.30861206,-55.3086436"/><g id="g4152" transform="matrix(1.0148899,0,0,1.0148899,-0.8432698,-5.0312058)"><path id="path4419" d="m 56.283048,5.1005059 c 27.94807,0 50.604272,22.6563571 50.604272,50.6048151 0,27.947941 -22.656202,50.604269 -50.604272,50.604269 -27.947941,0 -50.6047894,-22.656328 -50.6047894,-50.604269 0,-27.948458 22.6568484,-50.6048151 50.6047894,-50.6048151" style="fill:#f1fa8c;fill-opacity:1;fill-rule:evenodd;stroke:none"/><path id="path4421" d="m 23.994703,60.30905 64.576819,0 c 2.499455,0 4.544076,-2.044103 4.544076,-4.544076 l 0,-0.119823 c 0,-2.499973 -2.044621,-4.544077 -4.544076,-4.544077 l -64.576819,0 c -2.499585,0 -4.544076,2.044104 -4.544076,4.544077 l 0,0.119823 c 0,2.499973 2.044491,4.544076 4.544076,4.544076" style="fill:#362007;fill-opacity:1;fill-rule:evenodd;stroke:none"/></g></g></g></g></g></svg>