<svg xmlns="http://www.w3.org/2000/svg" xmlns:svg="http://www.w3.org/2000/svg" id="svg2" width="12" height="13" version="1.1"><metadata id="metadata7"/><g id="layer1" transform="translate(-671.14288,-651.57648)"><g id="g4090" transform="matrix(0.1265625,0,0,-0.1265625,672.07092,663.09636)"><g id="g4092" transform="scale(0.1,0.1)"><g id="g4285" transform="matrix(9.9999999,0,0,9.9999999,-4.0034923,0.11816995)"><g id="g4287" transform="scale(0.1,0.1)"><g id="g4413" transform="matrix(10,0,0,10,4.1388913,2.0175489)"><g id="g4415" transform="scale(0.1,0.1)"><g id="g4491" transform="matrix(10.000001,0,0,10.000001,-2.63607,-7.9909082)"><g id="g4493" transform="scale(0.1,0.1)"><path id="path4495" d="m 435.832,9.64453 c 236.066,0 427.434,191.36747 427.434,427.42547 0,236.063 -191.368,427.43 -427.434,427.43 C 199.77,864.5 8.40234,673.133 8.40234,437.07 8.40234,201.012 199.77,9.64453 435.832,9.64453" style="fill:#fac536;fill-opacity:1;fill-rule:evenodd;stroke:none"/><path id="path4497" d="M 435.832,45.9961 C 651.82,45.9961 826.91,221.09 826.91,437.07 826.91,653.059 651.82,828.148 435.832,828.148 219.848,828.148 44.7578,653.059 44.7578,437.07 44.7578,221.09 219.848,45.9961 435.832,45.9961" style="fill:#fac536;fill-opacity:1;fill-rule:evenodd;stroke:none"/><path id="path4499" d="m 186.305,472.652 499.058,0 c 19.313,0 35.114,-15.8 35.114,-35.117 l 0,-0.93 c 0,-19.316 -15.801,-35.113 -35.114,-35.113 l -499.058,0 c -19.317,0 -35.114,15.797 -35.114,35.113 l 0,0.93 c 0,19.317 15.797,35.117 35.114,35.117" style="fill:#975914;fill-opacity:1;fill-rule:evenodd;stroke:none"/></g></g></g></g></g></g></g></g></g></svg>