<svg xmlns="http://www.w3.org/2000/svg" xmlns:svg="http://www.w3.org/2000/svg" id="svg2" width="100%" height="100%" version="1.1" viewBox="0 0 16 16"><metadata id="metadata16"/><defs id="defs14"><linearGradient id="linearGradient4159"><stop style="stop-color:#fff;stop-opacity:.50196081" id="stop4161" offset="0"/><stop style="stop-color:#000;stop-opacity:.2" id="stop4163" offset="1"/></linearGradient></defs><g id="g4" transform="translate(0 -1036.3622)"><path style="fill:#44475a;fill-opacity:1;stroke:none" id="path4151-7" d="M 8 1.5 A 6.4998866 6.499884 0 0 0 1.5 8 A 6.4998866 6.499884 0 0 0 8 14.5 A 6.4998866 6.499884 0 0 0 14.5 8 A 6.4998866 6.499884 0 0 0 8 1.5 z" transform="translate(0,1036.3622)"/><path style="fill:#000;fill-opacity:.2;stroke:none;stroke-width:1;stroke-miterlimit:4;stroke-dasharray:none;stroke-opacity:1" id="path4151-6" d="M 8 0.5 A 7.4998691 7.4998661 0 0 0 0.5 8 A 7.4998691 7.4998661 0 0 0 8 15.5 A 7.4998691 7.4998661 0 0 0 15.5 8 A 7.4998691 7.4998661 0 0 0 8 0.5 z M 8 1.5 A 6.4998866 6.499884 0 0 1 14.5 8 A 6.4998866 6.499884 0 0 1 8 14.5 A 6.4998866 6.499884 0 0 1 1.5 8 A 6.4998866 6.499884 0 0 1 8 1.5 z" transform="translate(0,1036.3622)"/></g></svg>