/* XPM */
static char *close_prelight[] = {
/* columns rows colors chars-per-pixel */
"28 32 47 1 ",
"  c #191A23",
". c #1A1A23",
"X c #1A1B23",
"o c #1A1B24",
"O c #1B1B24",
"+ c #1B1C24",
"@ c #1B1C25",
"# c #1C1C26",
"$ c #1C1D26",
"% c #1C1D27",
"& c #1D1E27",
"* c #1D1E28",
"= c #1E1F29",
"- c #3F242B",
"; c #2D2E37",
": c #40242B",
"> c #41252C",
", c #42242C",
"< c #4C272E",
"1 c #4E282F",
"2 c #50282F",
"3 c #6D3035",
"4 c #6F3036",
"5 c #703036",
"6 c #733136",
"7 c #743237",
"8 c #753237",
"9 c #9F1D2B",
"0 c #A01E2B",
"q c #A01E2C",
"w c #84363B",
"e c #86363A",
"r c #C1313A",
"t c #D73D43",
"y c #D83E44",
"u c #D83F44",
"i c #D93F45",
"p c #CF484A",
"a c #CE494A",
"s c #D0494B",
"d c #D1494B",
"f c #EE4B4D",
"g c #EF4C4E",
"h c #FA5454",
"j c #FB5455",
"k c #FD5455",
"l c #FF5555",
/* pixels */
";;;;;;;;;;;;;;;;;;;;;;;;;;;;",
"============================",
"============================",
"============================",
"==========***&&***==========",
"========*%$@@++@@$%*========",
"======*%#+oXX..XXoO@%*======",
"=====*$@o.        .o@$*=====",
"====*$OX    ,8w8,   XO$*====",
"===*$oX   2dllllls1  Xo$*===",
"===%@X   5jlllllllh4  X@%===",
"==*@o   2jkflllllfkh1  o#*==",
"==%O.   dlfqylllyqflp  .+&==",
"=*$o   ,llliqtliqtlll:  o$*=",
"=*@X   8llllyqrqyllll7  X@*=",
"=*@X   elllllr9rllllle  X@*=",
"=&+.   8lllluqrqullll6  .+*=",
"=*+.   ,llli0tli0tlll-  .+*=",
"=*@X    slfqylllyqgla   X@*=",
"=*@X    1hkflllllfkh<   X@*=",
"=*$o     4hlllllllh3    o$*=",
"==&+.     1pllllla<    .+&==",
"==*@o       >6w6:      o#*==",
"===%@X                X@&===",
"===*$oX              Xo$*===",
"====*$OX            XO$*====",
"=====*$@oX        .o@$*=====",
"======*&#+oXX..XXo+@%*======",
"========*&$@@@@@@$%*========",
"==========***&&***==========",
"============================",
"============================"
};
