/* XPM */
static char *close_inactive[] = {
/* columns rows colors chars-per-pixel */
"28 32 17 1 ",
"  c #1E1F29",
". c #20212B",
"X c #20212C",
"o c #20222C",
"O c #21222C",
"+ c #22232E",
"@ c #22242E",
"# c #22242F",
"$ c #23252F",
"% c #232430",
"& c #262733",
"* c #262734",
"= c #262833",
"- c #262834",
"; c #272936",
": c #282A36",
"> c #2D2E37",
/* pixels */
">>>>>>>>>>>>>>>>>>>>>>>>>>>>",
"                            ",
"                            ",
"                            ",
"                            ",
"                            ",
"                            ",
"                            ",
"            X#$#X           ",
"          O=:::::&o         ",
"         +;::::::::+        ",
"        O;::::::::::o       ",
"        =:::::::::::*       ",
"       X:::::::::::::.      ",
"       #:::::::::::::@      ",
"       %:::::::::::::%      ",
"       #:::::::::::::+      ",
"       X:::::::::::::.      ",
"        &:::::::::::-       ",
"        o:::::::::::X       ",
"         +:::::::::+        ",
"          o*:::::-X         ",
"            .+$+.           ",
"                            ",
"                            ",
"                            ",
"                            ",
"                            ",
"                            ",
"                            ",
"                            ",
"                            "
};
