/* XPM */
static char *hide_pressed[] = {
/* columns rows colors chars-per-pixel */
"28 32 30 1 ",
"  c #1E1F29",
". c #2D2E37",
"X c #414339",
"o c #42443A",
"O c #43453A",
"+ c #44463B",
"@ c #4D503F",
"# c #4F5240",
"$ c #515440",
"% c #6B6F4D",
"& c #6D704E",
"* c #6E714F",
"= c #717550",
"- c #717650",
"; c #727751",
": c #975914",
"> c #808657",
", c #828758",
"< c #C5AB51",
"1 c #C5AB52",
"2 c #C4CC77",
"3 c #C6CD77",
"4 c #C5CC78",
"5 c #C7CE78",
"6 c #E5E57C",
"7 c #EFF789",
"8 c #EDF68A",
"9 c #EDF68B",
"0 c #EFF78A",
"q c #F1FA8C",
/* pixels */
"............................",
"                            ",
"                            ",
"                            ",
"                            ",
"                            ",
"                            ",
"                            ",
"            +;>;+           ",
"          $5qqqqq3#         ",
"         *9qqqqqqq8&        ",
"        $9qqqqqqqqq8#       ",
"        5qqqqqqqqqqq4       ",
"       +qqqqqqqqqqqqqo      ",
"       ;q76666666667q-      ",
"       ,q<:::::::::1q,      ",
"       ;q06666666660q=      ",
"       +qqqqqqqqqqqqqX      ",
"        3qqqqqqqqqqq2       ",
"        #8qqqqqqqqq8@       ",
"         &8qqqqqqq8%        ",
"          #4qqqqq2@         ",
"            O=>=o           ",
"                            ",
"                            ",
"                            ",
"                            ",
"                            ",
"                            ",
"                            ",
"                            ",
"                            "
};
