/* XPM */
static char *hide_active[] = {
/* columns rows colors chars-per-pixel */
"28 32 28 1 ",
"  c #1E1F29",
". c #2D2E37",
"X c #414339",
"o c #42443A",
"O c #43453A",
"+ c #44463B",
"@ c #4D503F",
"# c #4F5240",
"$ c #515440",
"% c #6D714E",
"& c #6F724F",
"* c #707350",
"= c #717550",
"- c #717650",
"; c #727751",
": c #808657",
"> c #828758",
", c #CFD77B",
"< c #CED77C",
"1 c #CFD77C",
"2 c #D0D77C",
"3 c #D0D87C",
"4 c #D1D97C",
"5 c #D2D97D",
"6 c #EFF88B",
"7 c #F0F88B",
"8 c #F0F88C",
"9 c #F1FA8C",
/* pixels */
"............................",
"                            ",
"                            ",
"                            ",
"                            ",
"                            ",
"                            ",
"                            ",
"            +;:;+           ",
"          $4999993#         ",
"         *899999997&        ",
"        $89999999997#       ",
"        5999999999991       ",
"       +9999999999999o      ",
"       ;9999999999999-      ",
"       >9999999999999>      ",
"       ;9999999999999=      ",
"       +9999999999999X      ",
"        299999999999,       ",
"        #79999999996@       ",
"         &799999996%        ",
"          #199999<@         ",
"            O=:=o           ",
"                            ",
"                            ",
"                            ",
"                            ",
"                            ",
"                            ",
"                            ",
"                            ",
"                            "
};
