/* XPM */
static char *maximize_active[] = {
/* columns rows colors chars-per-pixel */
"28 32 25 1 ",
"  c #1E1F29",
". c #2D2E37",
"X c #264336",
"o c #264437",
"O c #274537",
"+ c #274638",
"@ c #29503B",
"# c #2A523C",
"$ c #2A543C",
"% c #307148",
"& c #317249",
"* c #317349",
"= c #317549",
"- c #32764A",
"; c #32774A",
": c #35864F",
"> c #368750",
", c #47D76E",
"< c #48D76D",
"1 c #49D76E",
"2 c #49D86E",
"3 c #48D96E",
"4 c #4FF87B",
"5 c #50F87B",
"6 c #50FA7B",
/* pixels */
"............................",
"                            ",
"                            ",
"                            ",
"                            ",
"                            ",
"                            ",
"                            ",
"            +;:;+           ",
"          $3666662#         ",
"         *466666665&        ",
"        $46666666665#       ",
"        366666666666<       ",
"       +6666666666666o      ",
"       ;6666666666666-      ",
"       >6666666666666>      ",
"       ;6666666666666=      ",
"       +6666666666666X      ",
"        166666666666<       ",
"        #56666666664@       ",
"         &566666664%        ",
"          #<66666,@         ",
"            O=:=o           ",
"                            ",
"                            ",
"                            ",
"                            ",
"                            ",
"                            ",
"                            ",
"                            ",
"                            "
};
