/* XPM */
static char *maximize_pressed[] = {
/* columns rows colors chars-per-pixel */
"28 32 40 1 ",
"  c #1E1F29",
". c #2D2E37",
"X c #0B7407",
"o c #264336",
"O c #264437",
"+ c #274537",
"@ c #274638",
"# c #29503B",
"$ c #2A523C",
"% c #2A543C",
"& c #306F47",
"* c #317048",
"= c #317148",
"- c #317549",
"; c #32764A",
": c #32774A",
"> c #219F2D",
", c #21A02E",
"< c #23A22F",
"1 c #24A430",
"2 c #35864F",
"3 c #368750",
"4 c #34C44D",
"5 c #36C850",
"6 c #3AD056",
"7 c #3BD259",
"8 c #3CD359",
"9 c #45CC6A",
"0 c #46CD6A",
"q c #46CE6A",
"w c #45E569",
"e c #46E66A",
"r c #47E86B",
"t c #47E96C",
"y c #4EF779",
"u c #4FF67A",
"i c #4FF879",
"p c #4FF87A",
"a c #50F97B",
"s c #50FA7B",
/* pixels */
"............................",
"                            ",
"                            ",
"                            ",
"                            ",
"                            ",
"                            ",
"                            ",
"            @:2:@           ",
"          %qsssss0$         ",
"         =usssssssu*        ",
"        %usse44446au$       ",
"        qsssp<XXXX8s9       ",
"       @ssrisp<XXX5ssO      ",
"       :ss5>ysp1XX5ss;      ",
"       3ss5X>ysp1X5ss3      ",
"       :ss5XX>ysp15ss-      ",
"       @ss5XXX,isptsso      ",
"        0s7XXXX,isss9       ",
"        $ua64444wssu#       ",
"         *usssssssu&        ",
"          $9sssss9#         ",
"            +-2-O           ",
"                            ",
"                            ",
"                            ",
"                            ",
"                            ",
"                            ",
"                            ",
"                            ",
"                            "
};
