/* XPM */
static char *menu_inactive[] = {
/* columns rows colors chars-per-pixel */
"28 32 3 1 ",
"  c #1E1F29",
". c #2D2E37",
"X c #707279",
/* pixels */
"............................",
"                            ",
"                            ",
"                            ",
"                            ",
"                            ",
"                            ",
"                            ",
"                            ",
"                            ",
"                            ",
"                            ",
"          XXXXXXXX          ",
"          XXXXXXXX          ",
"                            ",
"          XXXXXXXX          ",
"          XXXXXXXX          ",
"                            ",
"          XXXXXXXX          ",
"          XXXXXXXX          ",
"                            ",
"                            ",
"                            ",
"                            ",
"                            ",
"                            ",
"                            ",
"                            ",
"                            ",
"                            ",
"                            ",
"                            "
};
