/* XPM */
static char *stick_active[] = {
/* columns rows colors chars-per-pixel */
"28 32 11 1 ",
"  c #1E1F29",
". c #22232C",
"X c #2D2E37",
"o c #707279",
"O c #717279",
"+ c #70727A",
"@ c #A8AAB0",
"# c #A9ABB0",
"$ c #AAABB0",
"% c #AAACB1",
"& c #B9BBBF",
/* pixels */
"XXXXXXXXXXXXXXXXXXXXXXXXXXXX",
"                            ",
"                            ",
"                            ",
"                            ",
"                            ",
"                            ",
"                            ",
"                            ",
"                            ",
"                            ",
"                            ",
"                            ",
"           .O$#+.           ",
"           +&&&&+           ",
"           $&&&&%           ",
"           #&&&&@           ",
"           +&&&&o           ",
"           .+##+.           ",
"                            ",
"                            ",
"                            ",
"                            ",
"                            ",
"                            ",
"                            ",
"                            ",
"                            ",
"                            ",
"                            ",
"                            ",
"                            "
};
