/* XPM */
static char *stick_pressed[] = {
/* columns rows colors chars-per-pixel */
"28 32 35 1 ",
"  c #1E1F29",
". c #22232C",
"X c #22232D",
"o c #23242E",
"O c #292A35",
"+ c #2A2B35",
"@ c #2B2C35",
"# c #2D2E37",
"$ c #2F2F3A",
"% c #2F3039",
"& c #2F303A",
"* c #30303A",
"= c #36363F",
"- c #363741",
"; c #373841",
": c #373842",
"> c #383942",
", c #393A44",
"< c #3B3C45",
"1 c #3C3D45",
"2 c #3C3D46",
"3 c #41424A",
"4 c #41424B",
"5 c #44454E",
"6 c #45464F",
"7 c #464750",
"8 c #474851",
"9 c #4B4C55",
"0 c #9EA1A6",
"q c #9FA1A7",
"w c #A0A1A6",
"e c #DBDEE0",
"r c #DCDFE1",
"t c #DDE0E2",
"y c #ECEFF1",
/* pixels */
"############################",
"                            ",
"                            ",
"                            ",
"         o&246642%X         ",
"       X-7888888888,o       ",
"      @68888888888886+      ",
"     &8888888888888888&     ",
"    @888888888888888888+    ",
"   X68888888888888888886X   ",
"   :88888888888888888888;   ",
"  o7888888888888888888887X  ",
"  &8888888888888888888888*  ",
"  1888888889wreq988888888<  ",
"  488888888qyyyyq888888884  ",
"  688888888ryyyyt888888886  ",
"  688888888eyyyye888888885  ",
"  488888888qyyyy0888888883  ",
"  1888888889qeeq988888888<  ",
"  %8888888888888888888888$  ",
"  X7888888888888888888887X  ",
"   ;88888888888888888888-   ",
"   X68888888888888888885X   ",
"    O788888888888888888+    ",
"     &8888888888888888&     ",
"      +68888888888885+      ",
"       .=7888888888>X       ",
"         X*13663<*X         ",
"                            ",
"                            ",
"                            ",
"                            "
};
