/* XPM */
static char *stick_prelight[] = {
/* columns rows colors chars-per-pixel */
"28 32 28 1 ",
"  c #1E1F29",
". c #20212B",
"X c #20212C",
"o c #21222C",
"O c #24252F",
"+ c #242530",
"@ c #262731",
"# c #272831",
"$ c #292A35",
"% c #2A2B35",
"& c #2A2B36",
"* c #2B2C35",
"= c #2B2C36",
"- c #2C2D37",
"; c #2D2E37",
": c #2F2F3A",
"> c #30303A",
", c #30303B",
"< c #31323C",
"1 c #32333D",
"2 c #373842",
"3 c #95979D",
"4 c #96989D",
"5 c #D8DBDD",
"6 c #D9DCDE",
"7 c #DADDDF",
"8 c #DBDEE0",
"9 c #ECEFF1",
/* pixels */
";;;;;;;;;;;;;;;;;;;;;;;;;;;;",
"                            ",
"                            ",
"                            ",
"         o#;:<<:;#o         ",
"       X%1111111111=o       ",
"      +<111111111111<O      ",
"     #1111111111111111#     ",
"    +111111111111111111O    ",
"   o<111111111111111111<.   ",
"   &11111111111111111111&   ",
"  o1111111111111111111111o  ",
"  #1111111111111111111111#  ",
"  ;1111111124763211111111-  ",
"  ,1111111139999311111111:  ",
"  <1111111179999811111111<  ",
"  <1111111169999511111111<  ",
"  >1111111139999311111111:  ",
"  ;1111111123663211111111-  ",
"  #1111111111111111111111@  ",
"  o1111111111111111111111o  ",
"   &11111111111111111111%   ",
"   X<111111111111111111<.   ",
"    O111111111111111111O    ",
"     #1111111111111111#     ",
"      O<111111111111<O      ",
"       .$1111111111*.       ",
"         o#-:<<:-#o         ",
"                            ",
"                            ",
"                            ",
"                            "
};
