/* XPM */
static char *title_1_active_shaded[] = {
/* columns rows colors chars-per-pixel */
"28 32 2 1 ",
"  c #1E1F29",
". c #2D2E37",
/* pixels */
"............................",
"                            ",
"                            ",
"                            ",
"                            ",
"                            ",
"                            ",
"                            ",
"                            ",
"                            ",
"                            ",
"                            ",
"                            ",
"                            ",
"                            ",
"                            ",
"                            ",
"                            ",
"                            ",
"                            ",
"                            ",
"                            ",
"                            ",
"                            ",
"                            ",
"                            ",
"                            ",
"                            ",
"                            ",
"                            ",
"                            ",
"                            "
};
