/* XPM */
static char *top_left_active_shaded[] = {
/* columns rows colors chars-per-pixel */
"4 32 4 1 ",
"  c #1E1F29",
". c #21222B",
"X c #34353E",
"o c None",
/* pixels */
"oXXX",
".   ",
"    ",
"    ",
"    ",
"    ",
"    ",
"    ",
"    ",
"    ",
"    ",
"    ",
"    ",
"    ",
"    ",
"    ",
"    ",
"    ",
"    ",
"    ",
"    ",
"    ",
"    ",
"    ",
"    ",
"    ",
"    ",
"    ",
"    ",
"    ",
"    ",
"    "
};
