/* XPM */
static char *top_right_inactive[] = {
/* columns rows colors chars-per-pixel */
"4 32 5 1 ",
"  c #1E1F29",
". c #34353E",
"X c #3A3A42",
"o c #484950",
"O c #C0C0C3",
/* pixels */
"..oO",
"   X",
"    ",
"    ",
"    ",
"    ",
"    ",
"    ",
"    ",
"    ",
"    ",
"    ",
"    ",
"    ",
"    ",
"    ",
"    ",
"    ",
"    ",
"    ",
"    ",
"    ",
"    ",
"    ",
"    ",
"    ",
"    ",
"    ",
"    ",
"    ",
"    ",
"    "
};
