<svg xmlns="http://www.w3.org/2000/svg" xmlns:svg="http://www.w3.org/2000/svg" id="svg13" width="20" height="20" version="1.1" viewBox="0 0 5.292 5.292"><metadata id="metadata2"/><g id="titlebutton-close-hover" fill-rule="evenodd" transform="matrix(0.032498,0,0,0.032498,23.371255,34.469672)"><path id="path4" fill="#d52735" d="m -637.58,-921.74 c 31.475,0 56.99,-25.516 56.99,-56.991 0,-31.475 -25.516,-56.991 -56.99,-56.991 -31.475,0 -56.991,25.516 -56.991,56.991 0,31.475 25.516,56.991 56.991,56.991"/><path id="path6" fill="#f25056" d="m -637.58,-926.59 c 28.797,0 52.143,-23.346 52.143,-52.144 0,-28.798 -23.345,-52.143 -52.143,-52.143 -28.798,0 -52.144,23.345 -52.144,52.143 0,28.798 23.345,52.144 52.144,52.144"/><path id="path8" fill="#9f1d2b" d="m -664.46,-958.56 47.051,-47.052 c 1.8209,-1.8208 4.8,-1.8208 6.6219,0 l 0.087,0.088 c 1.8213,1.8208 1.8213,4.8 5.4e-4,6.6213 l -47.052,47.051 c -1.8213,1.8213 -4.8005,1.8213 -6.6213,0 l -0.088,-0.0869 c -1.8209,-1.8213 -1.8209,-4.8011 0,-6.6219"/><path id="path10" fill="#9f1d2b" d="m -657.75,-1005.6 47.051,47.052 c 1.8208,1.8208 1.8208,4.8005 0,6.6213 l -0.0876,0.0875 c -1.8213,1.8213 -4.8004,1.8213 -6.6213,0 l -47.051,-47.051 c -1.8215,-1.8214 -1.8215,-4.8006 0,-6.6218 l 0.0875,-0.087 c 1.8213,-1.8213 4.8005,-1.8213 6.6219,0"/></g></svg>