<svg xmlns="http://www.w3.org/2000/svg" xmlns:svg="http://www.w3.org/2000/svg" id="svg2" width="20" height="20" version="1.1"><metadata id="metadata7"/><g id="layer1" transform="translate(-671.14288,-644.57648)"><g id="g4090" transform="matrix(0.1265625,0,0,-0.1265625,672.07092,663.09636)"><g id="g4092" transform="scale(0.1)"><path id="path4094" d="m 718.73264,133.09656 c 305.45606,0 553.08156,247.62586 553.08156,553.0858 0,305.46123 -247.6255,553.08674 -553.08156,553.08674 -305.46512,0 -553.0913,-247.62551 -553.0913,-553.08674 0,-305.45994 247.62618,-553.0858 553.0913,-553.0858" style="fill:#f55;fill-opacity:1;fill-rule:evenodd;stroke:none"/><path id="path4096" d="m 718.73309,172.59948 c 283.63701,0 513.57491,229.94294 513.57491,513.58518 0,283.64353 -229.9379,513.58154 -513.57491,513.58154 -283.64749,0 -513.58558,-229.93801 -513.58558,-513.58154 0,-283.64224 229.93809,-513.58518 513.58558,-513.58518" style="fill:#f55;fill-opacity:1;fill-rule:evenodd;stroke:none"/></g></g></g></svg>