<svg xmlns="http://www.w3.org/2000/svg" xmlns:svg="http://www.w3.org/2000/svg" id="svg13" width="20" height="20" version="1.1" viewBox="0 0 5.292 5.292"><metadata id="metadata2"/><g id="titlebutton-close-active" fill-rule="evenodd" transform="matrix(0.0040622,0,0,-0.0040622,0.77497149,4.5421159)"><path id="path4" fill="#d52735" d="m 461.87,10.287 c 251.8,0 455.92,204.13 455.92,455.92 0,251.8 -204.12,455.93 -455.92,455.93 -251.8,0 -455.93,-204.12 -455.93,-455.93 0,-251.8 204.13,-455.92 455.93,-455.92"/><path id="path6" fill="#d52735" d="m 461.87,49.063 c 230.38,0 417.14,186.77 417.14,417.15 0,230.39 -186.76,417.15 -417.14,417.15 -230.39,0 -417.15,-186.76 -417.15,-417.15 0,-230.38 186.76,-417.15 417.15,-417.15"/><path id="path8" fill="#9f1d2b" d="m 246.82,304.84 376.41,376.41 c 14.567,14.571 38.4,14.571 52.975,0 l 0.69653,-0.69973 c 14.571,-14.567 14.571,-38.404 0.004,-52.972 l -376.4,-376.41 c -14.571,-14.571 -38.404,-14.571 -52.971,0 l -0.704,0.69547 c -14.567,14.571 -14.567,38.404 0,52.975"/><path id="path10" fill="#9f1d2b" d="M 300.5,681.25 676.9,304.84 c 14.566,-14.566 14.566,-38.404 0,-52.975 l -0.7008,-0.69547 c -14.571,-14.571 -38.403,-14.571 -52.971,0 l -376.41,376.42 c -14.572,14.567 -14.572,38.404 0,52.972 l 0.69974,0.69973 c 14.571,14.571 38.404,14.571 52.975,0"/></g></svg>