<svg xmlns="http://www.w3.org/2000/svg" xmlns:svg="http://www.w3.org/2000/svg" id="svg2" width="20" height="20" version="1.1"><metadata id="metadata7"/><g id="layer1" transform="translate(-671.14288,-644.57648)"><g id="g4090" transform="matrix(0.1265625,0,0,-0.1265625,672.07092,663.09636)"><g id="g4092" transform="scale(0.1)"><g id="g4285" transform="matrix(9.9999999,0,0,9.9999999,-4.0034923,0.11816995)"><g id="g4287" transform="scale(0.1)"><path id="path4289" d="m 726.99742,109.78614 c 305.45608,0 553.08148,247.62585 553.08148,553.08577 0,305.46122 -247.6254,553.08669 -553.08148,553.08669 -305.4651,0 -553.0914,-247.62547 -553.0914,-553.08669 0,-305.45992 247.6263,-553.08577 553.0914,-553.08577" style="fill:#50fa7a;fill-opacity:1;fill-rule:evenodd;stroke:none"/><path id="path4291" d="m 726.99523,149.29171 c 283.64077,0 513.57747,229.94174 513.57747,513.58248 0,283.64206 -229.9367,513.57881 -513.57747,513.57881 -283.646,0 -513.58301,-229.93675 -513.58301,-513.57881 0,-283.64074 229.93701,-513.58248 513.58301,-513.58248" style="fill:#50fa7a;fill-opacity:1;fill-rule:evenodd;stroke:none"/></g></g></g></g></g></svg>