<svg xmlns="http://www.w3.org/2000/svg" xmlns:svg="http://www.w3.org/2000/svg" id="svg11" width="20" height="20" version="1.1" viewBox="0 0 5.292 5.292"><metadata id="metadata2"/><g id="titlebutton-maximize-active" fill-rule="evenodd" transform="matrix(0.0040622,0,0,-0.0040622,0.72816839,4.4993104)"><path id="path4" fill="#13c11e" d="m 466.14,10.287 c 251.8,0 455.92,204.13 455.92,455.92 0,251.8 -204.12,455.93 -455.92,455.93 -251.8,0 -455.93,-204.12 -455.93,-455.93 0,-251.8 204.13,-455.92 455.93,-455.92"/><path id="path6" fill="#13c11e" d="m 466.14,49.063 c 230.38,0 417.15,186.77 417.15,417.15 0,230.39 -186.76,417.15 -417.15,417.15 -230.39,0 -417.15,-186.76 -417.15,-417.15 0,-230.38 186.76,-417.15 417.15,-417.15"/><path id="path8" fill="#0b7407" d="M 342.79,698.85 H 627.8 c 37.951,0 69.005,-31.051 69.005,-69.005 v -285 z M 590.6,233.57 H 304.47 c -37.955,0 -69.005,31.05 -69.005,69.004 v 286.14 l 355.14,-355.14"/></g></svg>