<svg xmlns="http://www.w3.org/2000/svg" xmlns:svg="http://www.w3.org/2000/svg" id="svg11" width="20" height="20" version="1.1" viewBox="0 0 5.292 5.292"><metadata id="metadata2"/><g id="titlebutton-minimize-active" fill-rule="evenodd" transform="matrix(0.0040622,0,0,-0.0040622,0.74797484,4.545568)"><path id="path4" fill="#fac536" d="m 464.89,10.287 c 251.8,0 455.93,204.13 455.93,455.92 0,251.8 -204.13,455.93 -455.93,455.93 C 213.09,922.127 8.96,718.007 8.96,466.207 8.9625,214.407 213.09,10.287 464.89,10.287"/><path id="path6" fill="#fac536" d="m 464.89,49.063 c 230.39,0 417.15,186.77 417.15,417.15 0,230.39 -186.76,417.15 -417.15,417.15 -230.38,0 -417.15,-186.76 -417.15,-417.15 0,-230.38 186.76,-417.15 417.15,-417.15"/><path id="path8" fill="#975914" d="m 198.73,504.16 h 532.33 c 20.601,0 37.455,-16.853 37.455,-37.458 v -0.992 c 0,-20.604 -16.854,-37.454 -37.455,-37.454 H 198.73 c -20.605,0 -37.455,16.85 -37.455,37.454 v 0.992 c 0,20.605 16.85,37.458 37.455,37.458"/></g></svg>