<svg xmlns="http://www.w3.org/2000/svg" xmlns:svg="http://www.w3.org/2000/svg" id="svg11" width="20" height="20" version="1.1" viewBox="0 0 5.292 5.292"><metadata id="metadata2"/><g id="titlebutton-minimize-hover" fill-rule="evenodd" transform="matrix(0.0040622,0,0,-0.0040622,0.74539212,4.5473214)"><path id="path4" fill="#da9e10" d="m 461.9,2.0792 c 251.8,0 455.93,204.12 455.93,455.93 0,251.8 -204.12,455.92 -455.93,455.92 -251.8,0 -455.92,-204.13 -455.92,-455.93 -8e-4,-251.8 204.12,-455.92 455.92,-455.92"/><path id="path6" fill="#fac536" d="m 461.9,40.854 c 230.38,0 417.15,186.76 417.15,417.15 0,230.38 -186.76,417.15 -417.15,417.15 -230.38,0 -417.15,-186.76 -417.15,-417.15 0,-230.39 186.77,-417.15 417.15,-417.15"/><path id="path8" fill="#975914" d="m 195.74,495.95 h 532.33 c 20.604,0 37.458,-16.85 37.458,-37.458 v -0.98773 c 0,-20.608 -16.854,-37.458 -37.458,-37.458 H 195.74 c -20.605,0 -37.458,16.85 -37.458,37.458 v 0.98773 c 0,20.608 16.853,37.458 37.458,37.458"/></g></svg>