<svg xmlns="http://www.w3.org/2000/svg" xmlns:svg="http://www.w3.org/2000/svg" id="svg2" width="20" height="20" version="1.1"><metadata id="metadata7"/><g id="layer1" transform="translate(-671.14288,-644.57648)"><g id="g4090" transform="matrix(0.1265625,0,0,-0.1265625,672.07092,663.09636)"><g id="g4092" transform="scale(0.1)"><g id="g4285" transform="matrix(9.9999999,0,0,9.9999999,-4.0034923,0.11816995)"><g id="g4287" transform="scale(0.1)"><g id="g4413" transform="matrix(10,0,0,10,4.1388913,2.0175489)"><g id="g4415" transform="scale(0.1)"><path id="path4417" d="m 719.41227,104.5668 c 305.46263,0 553.08913,247.62626 553.08913,553.08887 0,305.45744 -247.6265,553.08393 -553.08913,553.08393 -305.46132,0 -553.08855,-247.62649 -553.08855,-553.08393 0,-305.46261 247.62723,-553.08887 553.08855,-553.08887" style="fill:#f1fa8c;fill-opacity:1;fill-rule:evenodd;stroke:none"/><path id="path4419" d="m 719.41518,144.07289 c 283.64212,0 513.57762,229.93707 513.57762,513.58313 0,283.64081 -229.9355,513.57748 -513.57762,513.57748 -283.64081,0 -513.58286,-229.93667 -513.58286,-513.57748 0,-283.64606 229.94205,-513.58313 513.58286,-513.58313" style="fill:#f1fa8c;fill-opacity:1;fill-rule:evenodd;stroke:none"/></g></g></g></g></g></g></g></svg>