<svg xmlns="http://www.w3.org/2000/svg" xmlns:svg="http://www.w3.org/2000/svg" id="svg2" width="20" height="20" version="1.1"><metadata id="metadata7"/><g id="layer1" transform="translate(-671.14288,-644.57648)"><g id="g4090" transform="matrix(0.1265625,0,0,-0.1265625,672.07092,663.09636)"><g id="g4092" transform="scale(0.1)"><g id="g4195" transform="matrix(9.9999999,0,0,9.9999999,3.1284009,-0.36309974)"><g id="g4197" transform="scale(0.1)"><path id="path4199" d="m 713.72929,121.47321 c 305.46131,0 553.08671,247.62227 553.08671,553.08881 0,305.45751 -247.6254,553.08398 -553.08671,553.08398 -305.46,0 -553.08609,-247.62647 -553.08609,-553.08398 0,-305.46654 247.62609,-553.08881 553.08609,-553.08881" style="fill:#b4b4b4;fill-opacity:1;fill-rule:evenodd;stroke:none;stroke-width:1"/><path id="path4201" d="m 713.72929,168.51172 c 279.48073,0 506.04791,226.56445 506.04791,506.0503 0,279.47549 -226.56718,506.04498 -506.04791,506.04498 -279.47944,0 -506.04781,-226.56949 -506.04781,-506.04498 0,-279.48585 226.56837,-506.0503 506.04781,-506.0503" style="fill:#d4d4d4;fill-opacity:1;fill-rule:evenodd;stroke:none;stroke-width:1"/></g></g></g></g></g></svg>