<svg xmlns="http://www.w3.org/2000/svg" xmlns:svg="http://www.w3.org/2000/svg" xmlns:xlink="http://www.w3.org/1999/xlink" id="svg3199" width="24" height="22" version="1.1"><defs id="defs3201"><linearGradient id="linearGradient15404"><stop id="stop15406" offset="0" style="stop-color:#515151;stop-opacity:1"/><stop id="stop15408" offset="1" style="stop-color:#292929;stop-opacity:1"/></linearGradient><linearGradient id="linearGradient5891-0-4" x1="205.841" x2="206.748" y1="246.709" y2="231.241" gradientUnits="userSpaceOnUse" xlink:href="#linearGradient5872-5-1"/><linearGradient id="linearGradient5872-5-1"><stop style="stop-color:#0b2e52;stop-opacity:1" id="stop5874-4-4" offset="0"/><stop style="stop-color:#1862af;stop-opacity:1" id="stop5876-0-5" offset="1"/></linearGradient><linearGradient id="linearGradient14219" x1="-93.031" x2="-93.031" y1="-396.347" y2="-388.73" gradientTransform="matrix(1.5918367,0,0,0.85714285,-256.56122,59.685418)" gradientUnits="userSpaceOnUse" xlink:href="#linearGradient15404"/><linearGradient id="linearGradient10013-4-63-6"><stop style="stop-color:#333;stop-opacity:1" id="stop10015-2-76-1" offset="0"/><stop style="stop-color:#292929;stop-opacity:1" id="stop10017-46-15-8" offset="1"/></linearGradient><linearGradient id="linearGradient10597-5"><stop style="stop-color:#16191a;stop-opacity:1" id="stop10599-2" offset="0"/><stop style="stop-color:#2b3133;stop-opacity:1" id="stop10601-5" offset="1"/></linearGradient><linearGradient id="linearGradient15374" x1="921.328" x2="921.225" y1="-330.051" y2="-322.164" gradientTransform="matrix(1.5918367,0,0,0.85714285,-1456.5464,275.45191)" gradientUnits="userSpaceOnUse" xlink:href="#linearGradient10013-4-63-6"/><linearGradient id="linearGradient15376" x1="1203.918" x2="1203.918" y1="-217.567" y2="-227.08" gradientTransform="translate(-1199.9852,216.38048)" gradientUnits="userSpaceOnUse" xlink:href="#linearGradient10597-5"/><linearGradient id="linearGradient5581-5-2-4-6-8-7-35-8"><stop id="stop5583-0-92-8-0-7-6-5-1" offset="0" style="stop-color:#454c4c;stop-opacity:1"/><stop style="stop-color:#393f3f;stop-opacity:1" id="stop5585-4-7-2-7-9-9-92-0" offset=".4"/><stop id="stop5587-6-7-2-0-3-1-21-5" offset="1" style="stop-color:#2d3232;stop-opacity:1"/></linearGradient><filter style="color-interpolation-filters:sRGB" id="filter4588" width="1.086" height="1.108" x="-.043" y="-.054"><feGaussianBlur id="feGaussianBlur4590" stdDeviation=".18"/></filter></defs><metadata id="metadata3204"/><g id="layer1" transform="translate(-342.5,-521.36218)"><rect style="color:#000;fill:none;stroke:none;stroke-width:2;marker:none;visibility:visible;display:inline;overflow:visible;enable-background:accumulate" id="rect17347" width="21.944" height="21.944" x="342.299" y="521.584"/><path id="path4731" d="m 347,522.36218 c -2.493,0 -4.5,2.007 -4.5,4.5 l 0,12 c 0,2.493 2.007,4.5 4.5,4.5 l 12,0 c 2.493,0 4.5,-2.007 4.5,-4.5 l 0,-12 c 0,-2.493 -2.007,-4.5 -4.5,-4.5 l -12,0 z m 11.98242,4.48535 a 1.50015,1.50015 0 0 0 -0.14055,0.012 1.50015,1.50015 0 0 1 0.14055,-0.012 z m -0.73535,0.21386 a 1.50015,1.50015 0 0 0 -0.0908,0.0557 1.50015,1.50015 0 0 1 0.0908,-0.0557 z m -0.12599,0.0821 a 1.50015,1.50015 0 0 0 -0.0966,0.0762 1.50015,1.50015 0 0 1 0.0966,-0.0762 z m -0.0996,0.079 a 1.50015,1.50015 0 0 0 -0.0996,0.0968 1.50015,1.50015 0 0 1 0.0996,-0.0968 z m 2.37891,0.55373 a 1.50015,1.50015 0 0 1 0.0762,0.2578 1.50015,1.50015 0 0 0 -0.0762,-0.2578 z m -13.43848,3.56542 a 1.50015,1.50015 0 0 0 -0.11715,0.006 1.50015,1.50015 0 0 1 0.11715,-0.006 z m -0.34277,0.0439 a 1.50015,1.50015 0 0 0 -0.0762,0.0206 1.50015,1.50015 0 0 0 -0.14055,0.0498 1.50015,1.50015 0 0 1 0.14055,-0.0498 1.50015,1.50015 0 0 1 0.0762,-0.0206 z m 1.0869,0.14355 a 1.50015,1.50015 0 0 1 0.12601,0.0791 1.50015,1.50015 0 0 1 0.0937,0.0703 1.50015,1.50015 0 0 0 -0.0937,-0.0703 1.50015,1.50015 0 0 0 -0.12601,-0.0791 z m -1.47655,0.012 a 1.50015,1.50015 0 0 0 -0.0879,0.0528 1.50015,1.50015 0 0 1 0.0879,-0.0528 z m -0.70605,0.94043 a 1.50015,1.50015 0 0 0 -0.0206,0.0967 1.50015,1.50015 0 0 1 0.0206,-0.0967 z m 0.003,0.72949 a 1.50015,1.50015 0 0 0 0.0292,0.10545 1.50015,1.50015 0 0 0 0.0557,0.14055 1.50015,1.50015 0 0 1 -0.0557,-0.14055 1.50015,1.50015 0 0 1 -0.0292,-0.10545 z m 4.74022,5.03907 a 1.50015,1.50015 0 0 0 0.082,0.1026 1.50015,1.50015 0 0 1 -0.082,-0.1026 z m 0.57422,0.48047 a 1.50015,1.50015 0 0 0 0.126,0.0528 1.50015,1.50015 0 0 1 -0.126,-0.0528 z m 0.13185,0.0557 a 1.50015,1.50015 0 0 0 0.14355,0.0439 1.50015,1.50015 0 0 0 0.0821,0.0176 1.50015,1.50015 0 0 1 -0.0821,-0.0176 1.50015,1.50015 0 0 1 -0.14355,-0.0439 z" style="display:inline;opacity:1;fill:#49445e;fill-opacity:1;stroke:none;stroke-opacity:1;enable-background:new"/><path style="display:inline;opacity:1;fill:#fff;fill-opacity:.2;stroke:none;stroke-opacity:1;enable-background:new" id="path4733" d="m 347,522.36218 c -2.493,0 -4.5,2.007 -4.5,4.5 l 0,1 c 0,-2.493 2.007,-4.5 4.5,-4.5 l 12,0 c 2.493,0 4.5,2.007 4.5,4.5 l 0,-1 c 0,-2.493 -2.007,-4.5 -4.5,-4.5 l -12,0 z"/><path style="display:inline;opacity:1;fill:#000;fill-opacity:.2;stroke:none;stroke-opacity:1;enable-background:new" id="path4735" d="m 342.5,537.86218 0,1 c 0,2.493 2.007,4.5 4.5,4.5 l 12,0 c 2.493,0 4.5,-2.007 4.5,-4.5 l 0,-1 c 0,2.493 -2.007,4.5 -4.5,4.5 l -12,0 c -2.493,0 -4.5,-2.007 -4.5,-4.5 z"/><path id="path4737" d="m 354.98783,531.85204 a 1.0001,1.0001 0 0 0 -0.75586,0.36915 l -4.29883,5.16015 -2.22656,-2.22656 a 1.0001,1.0001 0 1 0 -1.41407,1.41406 l 2.88477,2.88477 a 1.0001,1.0001 0 0 0 0.88477,0.41601 1.0001,1.0001 0 0 0 0.81054,-0.49219 l 4.89453,-5.875 a 1.0001,1.0001 0 0 0 -0.77929,-1.65039 z" transform="matrix(1.5,0,0,1.5,-172.75,-270.18109)" style="color:#000;font-style:normal;font-variant:normal;font-weight:400;font-stretch:normal;font-size:medium;line-height:normal;font-family:sans-serif;text-indent:0;text-align:start;text-decoration:none;text-decoration-line:none;text-decoration-style:solid;text-decoration-color:#000;letter-spacing:normal;word-spacing:normal;text-transform:none;direction:ltr;block-progression:tb;writing-mode:lr-tb;baseline-shift:baseline;text-anchor:start;white-space:normal;clip-rule:nonzero;display:inline;overflow:visible;visibility:visible;opacity:1;isolation:auto;mix-blend-mode:normal;color-interpolation:sRGB;color-interpolation-filters:linearRGB;solid-color:#000;solid-opacity:1;fill:#000;fill-opacity:.2;fill-rule:evenodd;stroke:none;stroke-width:2;stroke-linecap:round;stroke-linejoin:miter;stroke-miterlimit:4;stroke-dasharray:none;stroke-dashoffset:0;stroke-opacity:1;filter:url(#filter4588);color-rendering:auto;image-rendering:auto;shape-rendering:auto;text-rendering:auto;enable-background:accumulate"/><path style="color:#000;font-style:normal;font-variant:normal;font-weight:400;font-stretch:normal;font-size:medium;line-height:normal;font-family:sans-serif;text-indent:0;text-align:start;text-decoration:none;text-decoration-line:none;text-decoration-style:solid;text-decoration-color:#000;letter-spacing:normal;word-spacing:normal;text-transform:none;direction:ltr;block-progression:tb;writing-mode:lr-tb;baseline-shift:baseline;text-anchor:start;white-space:normal;clip-rule:nonzero;display:inline;overflow:visible;visibility:visible;opacity:1;isolation:auto;mix-blend-mode:normal;color-interpolation:sRGB;color-interpolation-filters:linearRGB;solid-color:#000;solid-opacity:1;fill:#00ff7d;fill-opacity:1;fill-rule:evenodd;stroke:none;stroke-width:2;stroke-linecap:round;stroke-linejoin:miter;stroke-miterlimit:4;stroke-dasharray:none;stroke-dashoffset:0;stroke-opacity:1;color-rendering:auto;image-rendering:auto;shape-rendering:auto;text-rendering:auto;enable-background:accumulate" id="path4739" d="m 358.98242,526.84753 a 1.50015,1.50015 0 0 0 -1.13379,0.55372 l -6.44825,7.74023 -3.33984,-3.33984 a 1.50015,1.50015 0 1 0 -2.12109,2.12109 l 4.32715,4.32715 a 1.50015,1.50015 0 0 0 1.32715,0.62402 1.50015,1.50015 0 0 0 1.21582,-0.73829 l 7.3418,-8.8125 a 1.50015,1.50015 0 0 0 -1.16895,-2.47558 z"/></g></svg>