<svg xmlns="http://www.w3.org/2000/svg" xmlns:svg="http://www.w3.org/2000/svg" xmlns:xlink="http://www.w3.org/1999/xlink" id="svg3199" width="24" height="22" version="1.1"><defs id="defs3201"><linearGradient id="linearGradient15404"><stop id="stop15406" offset="0" style="stop-color:#515151;stop-opacity:1"/><stop id="stop15408" offset="1" style="stop-color:#292929;stop-opacity:1"/></linearGradient><linearGradient id="linearGradient5891-0-4" x1="205.841" x2="206.748" y1="246.709" y2="231.241" gradientUnits="userSpaceOnUse" xlink:href="#linearGradient5872-5-1"/><linearGradient id="linearGradient5872-5-1"><stop style="stop-color:#0b2e52;stop-opacity:1" id="stop5874-4-4" offset="0"/><stop style="stop-color:#1862af;stop-opacity:1" id="stop5876-0-5" offset="1"/></linearGradient><linearGradient id="linearGradient14219" x1="-93.031" x2="-93.031" y1="-396.347" y2="-388.73" gradientTransform="matrix(1.5918367,0,0,0.85714285,-256.56122,59.685418)" gradientUnits="userSpaceOnUse" xlink:href="#linearGradient15404"/><linearGradient id="linearGradient10013-4-63-6"><stop style="stop-color:#333;stop-opacity:1" id="stop10015-2-76-1" offset="0"/><stop style="stop-color:#292929;stop-opacity:1" id="stop10017-46-15-8" offset="1"/></linearGradient><linearGradient id="linearGradient10597-5"><stop style="stop-color:#16191a;stop-opacity:1" id="stop10599-2" offset="0"/><stop style="stop-color:#2b3133;stop-opacity:1" id="stop10601-5" offset="1"/></linearGradient><linearGradient id="linearGradient15374" x1="921.328" x2="921.225" y1="-330.051" y2="-322.164" gradientTransform="matrix(1.5918367,0,0,0.85714285,-1456.5464,275.45191)" gradientUnits="userSpaceOnUse" xlink:href="#linearGradient10013-4-63-6"/><linearGradient id="linearGradient15376" x1="1203.918" x2="1203.918" y1="-217.567" y2="-227.08" gradientTransform="translate(-1199.9852,216.38048)" gradientUnits="userSpaceOnUse" xlink:href="#linearGradient10597-5"/><linearGradient id="linearGradient5581-5-2-4-6-8-7-35-8"><stop id="stop5583-0-92-8-0-7-6-5-1" offset="0" style="stop-color:#454c4c;stop-opacity:1"/><stop style="stop-color:#393f3f;stop-opacity:1" id="stop5585-4-7-2-7-9-9-92-0" offset=".4"/><stop id="stop5587-6-7-2-0-3-1-21-5" offset="1" style="stop-color:#2d3232;stop-opacity:1"/></linearGradient></defs><metadata id="metadata3204"/><g id="layer1" transform="translate(-342.5,-521.36218)"><rect style="color:#000;fill:none;stroke:none;stroke-width:2;marker:none;visibility:visible;display:inline;overflow:visible;enable-background:accumulate" id="rect17347" width="21.944" height="21.944" x="342.299" y="521.584"/><path style="display:inline;opacity:1;fill:#48455b;fill-opacity:1;stroke:none;stroke-opacity:1;enable-background:new" id="path4731" d="M 4.5 1 C 2.007 1 0 3.007 0 5.5 L 0 17.5 C 0 19.993 2.007 22 4.5 22 L 16.5 22 C 18.993 22 21 19.993 21 17.5 L 21 5.5 C 21 3.007 18.993 1 16.5 1 L 4.5 1 z M 5 3 L 16 3 C 17.662 3 19 4.338 19 6 L 19 17 C 19 18.662 17.662 20 16 20 L 5 20 C 3.338 20 2 18.662 2 17 L 2 6 C 2 4.338 3.338 3 5 3 z" transform="translate(342.5,521.36218)"/></g></svg>