<svg xmlns="http://www.w3.org/2000/svg" xmlns:svg="http://www.w3.org/2000/svg" id="Foreground" width="32" height="32" x="0" y="0" enable-background="new 0 0 16 16" version="1.0" viewBox="0 0 23.273 23.273" xml:space="preserve"><metadata id="metadata2399"/><defs id="defs2397"><linearGradient id="linearGradient3173"><stop style="stop-color:#c4c4c4;stop-opacity:1" id="stop3175" offset="0"/><stop style="stop-color:#fff;stop-opacity:1" id="stop3177" offset="1"/></linearGradient></defs><path id="path2394-32" d="m 0.7272726,11.636364 c 0,-6.0245464 4.8845457,-10.90909163 10.9090924,-10.90909163 6.024543,0 10.909089,4.88454523 10.909089,10.90909163 0,6.024546 -4.884546,10.909091 -10.909089,10.909091 -6.0245467,0 -10.9090924,-4.884545 -10.9090924,-10.909093 z" clip-rule="evenodd" style="color:#000;fill:#ff5f50;fill-opacity:1;fill-rule:nonzero;stroke:none;stroke-width:1.45454550000000005;marker:none;visibility:visible;display:inline;overflow:visible;enable-background:accumulate"/><path id="path27279-0-5" d="m 8.9519832,7.2814498 2.6448998,2.6676769 2.68113,-2.6676769 c 1.118427,-0.9273761 2.760725,0.5779314 1.666643,1.6810017 l -2.644896,2.6676785 2.608666,2.631133 c 1.305091,1.315814 -0.493499,2.86379 -1.666647,1.681003 L 11.59688,13.274588 8.9519805,15.942266 C 7.9249237,16.97776 6.2096464,15.345788 7.285332,14.261263 L 9.9302312,11.63013 7.285332,8.9624515 C 6.1503592,7.8181541 7.8408705,6.1612084 8.9519832,7.2814498 z" style="font-size:medium;font-style:normal;font-variant:normal;font-weight:400;font-stretch:normal;text-indent:0;text-align:start;text-decoration:none;line-height:normal;letter-spacing:normal;word-spacing:normal;text-transform:none;direction:ltr;block-progression:tb;writing-mode:lr-tb;text-anchor:start;color:#bebebe;fill:#ececec;fill-opacity:1;fill-rule:nonzero;stroke:none;stroke-width:1.78124988;marker:none;visibility:visible;display:inline;overflow:visible;enable-background:new;font-family:Andale Mono;-inkscape-font-specification:Andale Mono"/></svg>