<svg xmlns="http://www.w3.org/2000/svg" xmlns:svg="http://www.w3.org/2000/svg" xmlns:xlink="http://www.w3.org/1999/xlink" id="svg11252" width="76" height="27" version="1.1"><defs id="defs11254"><radialGradient id="radialGradient68155-2-3" cx="49" cy="488" r="38" fx="49" fy="488" gradientTransform="matrix(1,0,0,0.3486842,0,317.8421)" gradientUnits="userSpaceOnUse" xlink:href="#linearGradient39563-4-2"/><linearGradient id="linearGradient39563-4-2"><stop style="stop-color:#fff;stop-opacity:1" id="stop39565-1-4" offset="0"/><stop style="stop-color:#fff;stop-opacity:0" id="stop39567-7-9" offset="1"/></linearGradient><radialGradient id="radialGradient68157-0-8" cx="50.5" cy="487.5" r="10.5" fx="50.5" fy="487.5" gradientUnits="userSpaceOnUse" xlink:href="#linearGradient39573-6-1"/><linearGradient id="linearGradient39573-6-1"><stop style="stop-color:#fff;stop-opacity:1" id="stop39575-5-6" offset="0"/><stop style="stop-color:#fff;stop-opacity:0" id="stop39577-1-2" offset="1"/></linearGradient></defs><g id="layer1" transform="translate(-337,-518.86218)"><g id="g99967" transform="translate(326,44.862171)" style="display:inline"><rect style="opacity:.49375;color:#000;fill:url(#radialGradient68155-2-3);fill-opacity:1;stroke:none;stroke-width:1;marker:none;visibility:visible;display:inline;overflow:visible;enable-background:accumulate" id="rect99969" width="76" height="2" x="11" y="487" rx="0" ry="0"/><path style="opacity:.43125;color:#000;fill:url(#radialGradient68157-0-8);fill-opacity:1;fill-rule:nonzero;stroke:none;stroke-width:1;marker:none;visibility:visible;display:inline;overflow:visible;enable-background:accumulate" id="path99971" d="M 61,487.5 C 61,493.29899 56.29899,498 50.5,498 44.70101,498 40,493.29899 40,487.5 40,481.70101 44.70101,477 50.5,477 c 5.79899,0 10.5,4.70101 10.5,10.5 z" transform="matrix(1.2857143,0,0,1.2857143,-14.428572,-139.28571)"/><path id="path99973" d="M 61,487.5 C 61,493.29899 56.29899,498 50.5,498 44.70101,498 40,493.29899 40,487.5 40,481.70101 44.70101,477 50.5,477 c 5.79899,0 10.5,4.70101 10.5,10.5 z" transform="matrix(0.43589747,0,0,0.43589747,28.487179,275)" style="color:#000;fill:#fff;fill-opacity:1;fill-rule:nonzero;stroke:none;stroke-width:1;marker:none;visibility:visible;display:inline;overflow:visible;enable-background:accumulate"/></g></g></svg>